<?xml version="1.0" encoding="utf-8"?>
<!-- Generator: Adobe Illustrator 19.1.1, SVG Export Plug-In . SVG Version: 6.00 Build 0)  -->
<svg version="1.1" id="Layer_1" xmlns="http://www.w3.org/2000/svg" xmlns:xlink="http://www.w3.org/1999/xlink" x="0px" y="0px"
	 viewBox="0 0 15 15" style="enable-background:new 0 0 15 15;" xml:space="preserve">
<style type="text/css">
	.st0{fill:#0278c1;}
	path{fill:#0278c1;}
	rect{fill:#0278c1;}
	.use{fill:#0278c1;}
</style>
<g>
	<g>
		<defs>
			<rect id="SVGID_1_" x="0.9" y="0.7" width="13.2" height="13.7"/>
		</defs>
		<clipPath id="SVGID_2_">
			<use xlink:href="#SVGID_1_" class="use"  style="overflow:visible;"/>
		</clipPath>
		<path class="st0" d="M7.3,6.5C7.2,6.3,7,6.2,6.9,6.2L5.8,5.7L5.3,5.3L4.5,6.1l0.3,2.3c0,0,0,0,0,0L4.5,8.9c0,0,0,0,0,0
			c0,0,0,0,0,0L4.1,8.4c0,0,0,0,0,0l0.3-2.3L3.6,5.3L3.1,5.7L2,6.2C1.9,6.2,1.7,6.4,1.6,6.5c0,0-1.2,2.7-0.5,2.7h6.7
			C8.4,9.2,7.3,6.5,7.3,6.5L7.3,6.5z M7.3,6.5"/>
		<path class="st0" d="M4.4,5.2c1.1,0,1.9-1,1.9-2.7c0-1.2-0.5-1.9-1.9-1.9c-1.4,0-1.9,0.7-1.9,1.9C2.6,4.2,3.4,5.2,4.4,5.2L4.4,5.2
			z M4.4,5.2"/>
		<path class="st0" d="M13.3,11.6c-0.1-0.2-0.2-0.3-0.4-0.3l-1.1-0.5l-0.5-0.4l-0.8,0.8l0.3,2.3c0,0,0,0,0,0l-0.4,0.5c0,0,0,0,0,0
			c0,0,0,0,0,0l-0.4-0.5c0,0,0,0,0,0l0.3-2.3l-0.8-0.8l-0.5,0.4l-1.1,0.5c-0.2,0.1-0.3,0.2-0.4,0.3c0,0-1.2,2.7-0.5,2.7h6.7
			C14.5,14.3,13.3,11.6,13.3,11.6L13.3,11.6z M13.3,11.6"/>
	</g>
	<path d="M8.6,7.6c0,1.7,0.8,2.7,1.9,2.7c1.1,0,1.9-1,1.9-2.7c0-1.2-0.5-1.9-1.9-1.9C9.2,5.7,8.6,6.4,8.6,7.6L8.6,7.6z M8.6,7.6"/>
	<path d="M6,13.3c-1.4,0-2.6-0.8-3.2-2l0.3-0.1c0.1,0,0.1-0.1,0.2-0.1c0-0.1,0-0.2,0-0.2l-0.9-1c0,0-0.1-0.1-0.2-0.1c0,0,0,0,0,0
		C2.1,9.8,2,9.9,2,9.9l-0.5,1.3c0,0.1,0,0.2,0,0.2c0.1,0.1,0.1,0.1,0.2,0.1l0.4-0.1C2.8,13,4.3,14,6,14c0.2,0,0.3-0.1,0.3-0.3
		C6.4,13.5,6.2,13.3,6,13.3L6,13.3z M6,13.3"/>
	<path d="M7.3,1.7c1.4,0,2.6,0.8,3.2,2l-0.3,0.1c-0.1,0-0.1,0.1-0.2,0.1c0,0.1,0,0.2,0,0.2l0.9,1c0,0,0.1,0.1,0.2,0.1c0,0,0,0,0,0
		c0.1,0,0.1-0.1,0.2-0.1l0.5-1.3c0-0.1,0-0.2,0-0.2c-0.1-0.1-0.1-0.1-0.2-0.1l-0.4,0.1C10.5,2.1,9,1.1,7.3,1.1C7.1,1.1,7,1.2,7,1.4
		C7,1.6,7.1,1.7,7.3,1.7L7.3,1.7z M7.3,1.7"/>
</g>
</svg>
