<?xml version="1.0" encoding="utf-8"?>
<!-- Generator: Adobe Illustrator 19.1.1, SVG Export Plug-In . SVG Version: 6.00 Build 0)  -->
<svg version="1.1" id="Layer_1" xmlns="http://www.w3.org/2000/svg" xmlns:xlink="http://www.w3.org/1999/xlink" x="0px" y="0px"
	 viewBox="0 0 118 74" style="enable-background:new 0 0 118 74;" xml:space="preserve">
<style type="text/css">
	.st0{fill:#FFFFFF;}
</style>
<g>
	<path class="st0" d="M65.2,48.3v-5.4c2.3,0.7,4,2.9,4,5.4l0.9-1.1c-0.5-2.6-2.4-4.8-5-5.4v-1.5l-1.1-0.4v1.7c-0.2,0-0.4,0-0.5,0
		s-0.4,0-0.5,0v-1.3L62,39.9v1.9c-2.9,0.7-5.1,3.4-5.1,6.6c0,2.4,1.2,4.5,3.1,5.7h-2.2l-0.8,1.1h11.3l0.8-1.1h-6
		c-2.9-0.2-5.2-2.7-5.2-5.7c0-2.6,1.7-4.8,4-5.5v5l1.1,0.4v-5.7c0.2,0,0.4,0,0.5,0s0.4,0,0.5,0v5.3L65.2,48.3z"/>
	<path class="st0" d="M6.1,3.4L6.1,3.4L6.1,3.4L6.1,3.4L6.1,3.4V3.3l0.4-0.1c0-0.1,0-0.2,0-0.2H6.1c0-0.2-0.1-0.3-0.1-0.5l0.3-0.2
		c0-0.1-0.1-0.2-0.1-0.2L5.9,2.3C5.8,2.1,5.7,2,5.7,1.9l0.2-0.3C5.8,1.5,5.8,1.5,5.7,1.4L5.4,1.6l0,0l0,0L5.3,1.4l0,0
		C5.2,1.3,5.2,1.3,5.1,1.3l0.2-0.3C5.2,0.9,5.2,0.9,5.1,0.8L4.9,1.1C4.8,1,4.7,0.9,4.5,0.9l0.1-0.4c-0.1,0-0.2-0.1-0.2-0.1L4.2,0.7
		C4.1,0.6,3.9,0.6,3.8,0.6V0.3c-0.1,0-0.2,0-0.2,0L3.5,0.6H3.4l0,0c-0.2,0-0.2,0-0.4,0.1L2.8,0.3c-0.1,0-0.2,0-0.2,0.1v0.4
		C2.5,0.9,2.3,0.9,2.2,0.9L1.9,0.6c-0.1,0-0.2,0.1-0.2,0.1l0.2,0.4C1.8,1.2,1.7,1.3,1.6,1.3l0,0l0,0L1.3,1.1
		C1.2,1.2,1.2,1.2,1.2,1.3l0.2,0.3C1.3,1.7,1.2,1.8,1.2,2L0.8,1.8C0.8,1.9,0.7,2,0.7,2L1,2.2C0.9,2.3,0.9,2.5,0.9,2.7H0.5
		c0,0.1,0,0.2-0.1,0.2L0.8,3c0,0.1,0,0.2,0,0.2l0,0v0.1l0,0l0,0v0.1L0.4,3.5c0,0.1,0,0.2,0,0.2h0.4c0,0.2,0.1,0.3,0.1,0.5L0.6,4.4
		c0,0.1,0.1,0.2,0.1,0.2L1,4.4c0.1,0.2,0.2,0.3,0.2,0.4L1,5.1c0.1,0.1,0.1,0.1,0.2,0.2l0.3-0.2l0,0l0,0l0.2,0.2l0,0
		c0.1,0.1,0.1,0.1,0.2,0.2L1.6,5.8c0.1,0.1,0.1,0.1,0.2,0.2L2,5.6c0.2,0.1,0.2,0.2,0.4,0.2L2.3,6.2c0.1,0,0.2,0.1,0.2,0.1L2.7,6
		C2.8,6.1,3,6.1,3.1,6.1v0.4c0.1,0,0.2,0,0.2,0l0.1-0.4h0.1l0,0c0.2,0,0.2,0,0.4-0.1l0.2,0.4c0.1,0,0.2,0,0.2-0.1V5.9
		c0.2-0.1,0.3-0.1,0.5-0.2L5,6.1C5.1,6.1,5.1,6,5.1,6L5,5.6c0.2-0.1,0.2-0.2,0.3-0.2l0,0l0,0l0.3,0.2c0.1-0.1,0.1-0.1,0.2-0.2
		L5.5,5.1C5.6,5,5.7,4.9,5.7,4.7l0.4,0.2c0-0.1,0.1-0.2,0.1-0.2L5.9,4.5C6,4.4,6,4.2,6.1,4h0.4c0-0.1,0-0.2,0.1-0.2L6.1,3.7
		C6.1,3.6,6.1,3.5,6.1,3.4z M5.8,3.2H4.5c0-0.2-0.1-0.5-0.2-0.6l0.9-0.9C5.6,2,5.8,2.6,5.8,3.2z M3.5,4C3,4,2.7,3.7,2.7,3.3
		c0-0.5,0.4-0.8,0.8-0.8c0.5,0,0.8,0.4,0.8,0.8C4.2,3.7,3.9,4,3.5,4z M5.1,1.5L4.1,2.4C4,2.3,3.8,2.2,3.5,2.2V0.9
		C4.1,0.9,4.7,1.1,5.1,1.5z M3.3,0.9v1.3c-0.2,0-0.5,0.1-0.6,0.2L1.8,1.5C2.2,1.1,2.8,0.9,3.3,0.9z M1.7,1.6l0.9,0.9
		C2.5,2.7,2.4,3,2.4,3.2H1.1C1.1,2.6,1.3,2,1.7,1.6z M1.1,3.4h1.3c0,0.2,0.1,0.5,0.2,0.6L1.7,5C1.3,4.5,1.1,4,1.1,3.4z M1.9,5.1
		l0.9-0.9c0.2,0.2,0.4,0.2,0.6,0.2v1.3C2.8,5.7,2.2,5.4,1.9,5.1z M3.5,5.8V4.4c0.2,0,0.5-0.1,0.6-0.2l0.9,0.9
		C4.7,5.4,4.1,5.7,3.5,5.8z M5.2,4.9L4.3,4c0.2-0.2,0.2-0.4,0.2-0.6h1.3C5.8,4,5.6,4.5,5.2,4.9z"/>
	<path class="st0" d="M32.5,50.1L32.5,50.1L32.5,50.1L32.5,50.1L32.5,50.1V50l0.4-0.1c0-0.1,0-0.2,0-0.2h-0.4c0-0.2-0.1-0.3-0.1-0.5
		l0.3-0.2c0-0.1-0.1-0.2-0.1-0.2l-0.4,0.1c-0.1-0.2-0.2-0.3-0.2-0.4l0.2-0.3c-0.1-0.1-0.1-0.1-0.2-0.2l-0.3,0.2l0,0l0,0L31.7,48l0,0
		c-0.1-0.1-0.1-0.1-0.2-0.2l0.2-0.3c-0.1-0.1-0.1-0.1-0.2-0.2l-0.2,0.3c-0.2-0.1-0.3-0.2-0.4-0.2l0.1-0.4c-0.1,0-0.2-0.1-0.2-0.1
		l-0.2,0.3c-0.2-0.1-0.3-0.1-0.5-0.1v-0.4c-0.1,0-0.2,0-0.2,0l-0.2,0.4h-0.1l0,0c-0.2,0-0.2,0-0.4,0.1L29.1,47c-0.1,0-0.2,0-0.2,0.1
		v0.4c-0.2,0.1-0.3,0.1-0.5,0.2l-0.2-0.3c-0.1,0-0.2,0.1-0.2,0.1l0.2,0.4c-0.2,0.1-0.2,0.2-0.3,0.3l0,0l0,0l-0.3-0.2
		c-0.1,0.1-0.1,0.1-0.2,0.2l0.2,0.3c-0.1,0.2-0.2,0.2-0.2,0.4l-0.4-0.2c0,0.1-0.1,0.2-0.1,0.2l0.3,0.2c-0.1,0.2-0.1,0.3-0.2,0.5
		h-0.4c0,0.1,0,0.2-0.1,0.2l0.4,0.2c0,0.1,0,0.2,0,0.2l0,0v0.1l0,0l0,0v0.1l-0.4,0.1c0,0.1,0,0.2,0,0.2h0.4c0,0.2,0.1,0.3,0.1,0.5
		l-0.3,0.2c0,0.1,0.1,0.2,0.1,0.2l0.4-0.1c0.1,0.2,0.2,0.3,0.2,0.4l-0.2,0.3c0.1,0.1,0.1,0.1,0.2,0.2l0.3-0.2l0,0l0,0l0.2,0.2l0,0
		c0.1,0.1,0.1,0.1,0.2,0.2l-0.2,0.3c0.1,0.1,0.1,0.1,0.2,0.2l0.2-0.3c0.2,0.1,0.3,0.2,0.4,0.2L28.6,53c0.1,0,0.2,0.1,0.2,0.1
		l0.2-0.3c0.2,0.1,0.3,0.1,0.5,0.1v0.4c0.1,0,0.2,0,0.2,0l0.1-0.4h0.1l0,0c0.2,0,0.2,0,0.4-0.1l0.2,0.4c0.1,0,0.2,0,0.2-0.1v-0.4
		c0.2-0.1,0.3-0.1,0.5-0.2l0.2,0.3c0.1,0,0.2-0.1,0.2-0.1l-0.2-0.4c0.2-0.1,0.2-0.2,0.3-0.3l0,0l0,0l0.3,0.2
		c0.1-0.1,0.1-0.1,0.2-0.2l-0.2-0.3c0.1-0.2,0.2-0.2,0.2-0.4l0.4,0.2c0-0.1,0.1-0.2,0.1-0.2l-0.3-0.2c0.1-0.2,0.1-0.3,0.2-0.5h0.4
		c0-0.1,0-0.2,0.1-0.2l-0.4-0.2C32.4,50.4,32.5,50.3,32.5,50.1z M32.2,50h-1.3c0-0.2-0.1-0.5-0.2-0.6l0.9-0.9
		C31.9,48.8,32.1,49.4,32.2,50z M29.7,50.8c-0.5,0-0.8-0.4-0.8-0.8c0-0.5,0.4-0.8,0.8-0.8c0.5,0,0.8,0.4,0.8,0.8
		C30.5,50.5,30.2,50.8,29.7,50.8z M31.3,48.3l-0.9,0.9C30.3,49.1,30,49,29.8,49v-1.3C30.4,47.7,31,47.9,31.3,48.3z M29.7,47.6v1.3
		c-0.2,0-0.5,0.1-0.6,0.2l-0.9-0.9C28.5,47.9,29.1,47.7,29.7,47.6z M28,48.4l0.9,0.9c-0.2,0.2-0.2,0.4-0.2,0.6h-1.3
		C27.4,49.4,27.6,48.8,28,48.4z M27.3,50.1h1.3c0,0.2,0.1,0.5,0.2,0.6l-0.9,0.9C27.6,51.3,27.4,50.8,27.3,50.1z M28.1,51.9l0.9-0.9
		c0.2,0.2,0.4,0.2,0.6,0.2v1.3C29.1,52.5,28.5,52.2,28.1,51.9z M29.8,52.5v-1.3c0.2,0,0.5-0.1,0.6-0.2l0.9,0.9
		C31,52.2,30.4,52.5,29.8,52.5z M31.5,51.7l-0.9-0.9c0.2-0.2,0.2-0.4,0.2-0.6h1.3C32.1,50.8,31.9,51.3,31.5,51.7z"/>
	<path class="st0" d="M117.5,56.4L117.5,56.4L117.5,56.4L117.5,56.4c0-0.1,0-0.1,0-0.2v-0.1l0.5-0.1c0-0.1,0-0.2,0-0.2h-0.5
		c0-0.2-0.1-0.4-0.2-0.5l0.4-0.2c0-0.1-0.1-0.2-0.1-0.2l-0.5,0.1c-0.1-0.2-0.2-0.3-0.3-0.5l0.3-0.3c-0.1-0.1-0.1-0.2-0.2-0.2
		l-0.4,0.2c0,0,0,0-0.1-0.1l0,0l-0.2-0.2l0,0c-0.1-0.1-0.1-0.1-0.2-0.2l0.2-0.4c-0.1-0.1-0.2-0.1-0.2-0.2l-0.3,0.3
		c-0.2-0.1-0.3-0.2-0.5-0.2l0.1-0.5c-0.1,0-0.2-0.1-0.2-0.1l-0.2,0.4c-0.2-0.1-0.4-0.1-0.5-0.1l-0.1-0.5c-0.1,0-0.2,0-0.2,0
		l-0.1,0.5h-0.1l0,0c-0.2,0-0.3,0-0.5,0.1l-0.2-0.4c-0.1,0-0.2,0-0.2,0.1l0.1,0.5c-0.2,0.1-0.4,0.2-0.5,0.2l-0.3-0.4
		c-0.1,0.1-0.2,0.1-0.2,0.2l0.2,0.4c-0.2,0.1-0.3,0.2-0.4,0.3l0,0l0,0l-0.4-0.2c-0.1,0.1-0.2,0.2-0.2,0.2l0.3,0.4
		c-0.2,0.2-0.2,0.3-0.3,0.5l-0.5-0.2c-0.1,0.1-0.1,0.2-0.1,0.2l0.4,0.2c-0.1,0.2-0.2,0.3-0.2,0.5h-0.5c0,0.1,0,0.2-0.1,0.2l0.5,0.2
		c0,0.1,0,0.2,0,0.3l0,0v0.1l0,0c0,0,0,0,0,0.1v0.1l-0.5,0.1c0,0.1,0,0.2,0,0.2h0.5c0,0.2,0.1,0.4,0.2,0.5l-0.4,0.2
		c0,0.1,0.1,0.2,0.1,0.2l0.5-0.1c0.1,0.2,0.2,0.3,0.3,0.5l-0.3,0.3c0.1,0.1,0.1,0.2,0.2,0.2l0.4-0.2c0,0,0,0,0.1,0.1l0,0l0.2,0.2
		l0,0c0.1,0.1,0.2,0.1,0.2,0.2l-0.2,0.4c0.1,0.1,0.2,0.1,0.2,0.2l0.3-0.3c0.2,0.1,0.3,0.2,0.5,0.2l-0.1,0.5c0.1,0,0.2,0.1,0.2,0.1
		l0.2-0.4c0.2,0.1,0.4,0.1,0.5,0.1l0.1,0.5c0.1,0,0.2,0,0.2,0l0.1-0.5h0.1l0,0c0.2,0,0.3,0,0.5-0.1l0.2,0.5c0.1,0,0.2-0.1,0.2-0.1
		l-0.1-0.5c0.2-0.1,0.4-0.2,0.5-0.2l0.3,0.4c0.1-0.1,0.2-0.1,0.2-0.2l-0.2-0.4c0.2-0.1,0.3-0.2,0.4-0.3l0,0l0,0l0.4,0.2
		c0.1-0.1,0.2-0.2,0.2-0.2l-0.3-0.4c0.2-0.2,0.2-0.3,0.3-0.5l0.5,0.2c0.1-0.1,0.1-0.2,0.2-0.2l-0.4-0.2c0.1-0.2,0.2-0.3,0.2-0.5h0.5
		c0-0.1,0-0.2,0.1-0.2l-0.5-0.2C117.5,56.6,117.5,56.6,117.5,56.4z M117.2,56.2h-1.6c0-0.3-0.2-0.5-0.3-0.7l1.1-1.2
		C116.9,54.8,117.1,55.5,117.2,56.2z M114.3,57.3c-0.5,0-0.9-0.5-0.9-0.9c0-0.5,0.5-0.9,0.9-0.9c0.5,0,0.9,0.5,0.9,0.9
		C115.2,56.9,114.8,57.3,114.3,57.3z M116.2,54.2l-1.1,1.2c-0.2-0.2-0.5-0.3-0.7-0.3v-1.6C115.1,53.4,115.7,53.7,116.2,54.2z
		 M114.1,53.4V55c-0.3,0-0.5,0.2-0.7,0.3l-1.1-1.2C112.7,53.7,113.4,53.4,114.1,53.4z M112.1,54.3l1.1,1.2c-0.2,0.2-0.3,0.5-0.3,0.7
		h-1.6C111.4,55.5,111.7,54.8,112.1,54.3z M111.4,56.4h1.6c0,0.3,0.2,0.5,0.3,0.7l-1.1,1.2C111.7,57.8,111.4,57.2,111.4,56.4z
		 M112.3,58.5l1.1-1.2c0.2,0.2,0.5,0.3,0.7,0.3v1.6C113.4,59.2,112.7,59,112.3,58.5z M114.3,59.3v-1.6c0.3,0,0.5-0.2,0.7-0.3
		l1.1,1.2C115.7,59,115.1,59.2,114.3,59.3z M116.4,58.3l-1.1-1.2c0.2-0.2,0.3-0.5,0.3-0.7h1.6C117.1,57.2,116.9,57.8,116.4,58.3z"/>
	<path class="st0" d="M32.1,30.3L32.1,30.3L32.1,30.3C32.1,30.2,32.1,30.2,32.1,30.3L32.1,30.3v-0.2l0.2-0.1c0-0.1,0-0.1,0-0.2H32
		c0-0.1-0.1-0.2-0.1-0.3l0.2-0.2c0-0.1,0-0.1-0.1-0.2l-0.2,0.1c-0.1-0.1-0.1-0.2-0.2-0.3l0.2-0.2c0-0.1-0.1-0.1-0.1-0.2l-0.2,0.2
		l0,0l0,0l-0.1-0.1l0,0l-0.1-0.1l0.2-0.2c-0.1,0-0.1-0.1-0.2-0.1l-0.2,0.2c-0.1-0.1-0.2-0.1-0.3-0.2l0.1-0.3c-0.1,0-0.1,0-0.2-0.1
		l-0.2,0.2c-0.1,0-0.2-0.1-0.3-0.1v-0.3c-0.1,0-0.1,0-0.2,0l-0.1,0.3h-0.1l0,0c-0.1,0-0.2,0-0.3,0L29.7,28c-0.1,0-0.1,0-0.2,0v0.3
		c-0.1,0-0.2,0.1-0.3,0.2l-0.2-0.2c-0.1,0-0.1,0.1-0.2,0.1l0.1,0.2c-0.1,0.1-0.2,0.2-0.2,0.2l0,0l0,0l-0.2-0.2l-0.1,0.1l0.2,0.2
		c-0.1,0.1-0.2,0.2-0.2,0.3l-0.2-0.1c0,0.1-0.1,0.1-0.1,0.2l0.2,0.2c-0.1,0.1-0.1,0.2-0.1,0.3H28c0,0.1,0,0.1,0,0.2l0.2,0.1
		c0,0.1,0,0.2,0,0.2l0,0v0.1l0,0l0,0v0.1L28,30.4c0,0.1,0,0.1,0,0.2h0.3c0,0.1,0.1,0.2,0.1,0.3L28.1,31c0,0.1,0,0.1,0.1,0.2l0.2-0.1
		c0.1,0.1,0.1,0.2,0.2,0.3l-0.2,0.2c0,0.1,0.1,0.1,0.1,0.2l0.2-0.2l0,0l0,0l0.1,0.1l0,0l0.1,0.1L28.7,32c0.1,0,0.1,0.1,0.2,0.1
		l0.2-0.2c0.1,0.1,0.2,0.1,0.3,0.2l-0.1,0.3c0.1,0,0.1,0,0.2,0.1l0.2-0.2c0.1,0,0.2,0.1,0.3,0.1v0.3c0.1,0,0.1,0,0.2,0l0.1-0.3h0.1
		l0,0c0.1,0,0.2,0,0.3,0l0.1,0.2c0.1,0,0.1,0,0.2,0v-0.3c0.1,0,0.2-0.1,0.3-0.2l0.2,0.2c0.1,0,0.1-0.1,0.2-0.1l-0.1-0.2
		c0.1-0.1,0.2-0.2,0.2-0.2l0,0l0,0l0.2,0.2l0.1-0.1l-0.2-0.2c0.1-0.1,0.2-0.2,0.2-0.3l0.2,0.1c0-0.1,0.1-0.1,0.1-0.2L32,31
		c0.1-0.1,0.1-0.2,0.1-0.3h0.3c0-0.1,0-0.1,0-0.2l-0.2-0.1C32.1,30.4,32.1,30.3,32.1,30.3z M32,30.1H31c0-0.2-0.1-0.3-0.2-0.5
		l0.7-0.7C31.7,29.3,31.9,29.7,32,30.1z M30.2,30.8c-0.3,0-0.5-0.2-0.5-0.5c0-0.3,0.2-0.5,0.5-0.5c0.3,0,0.5,0.2,0.5,0.5
		C30.7,30.5,30.5,30.8,30.2,30.8z M31.3,28.8l-0.7,0.7c-0.2-0.1-0.3-0.2-0.5-0.2v-0.9C30.7,28.4,31,28.6,31.3,28.8z M30,28.4v0.9
		c-0.2,0-0.3,0.1-0.5,0.2l-0.7-0.7C29.3,28.6,29.7,28.4,30,28.4z M28.9,29l0.7,0.7c-0.1,0.2-0.2,0.3-0.2,0.5h-0.9
		C28.4,29.7,28.6,29.3,28.9,29z M28.4,30.3h0.9c0,0.2,0.1,0.3,0.2,0.5l-0.7,0.7C28.6,31.1,28.4,30.7,28.4,30.3z M29,31.5l0.7-0.7
		c0.2,0.1,0.3,0.2,0.5,0.2v0.9C29.7,31.9,29.3,31.8,29,31.5z M30.3,32v-1c0.2,0,0.3-0.1,0.5-0.2l0.7,0.7C31,31.8,30.7,31.9,30.3,32z
		 M31.5,31.4l-0.7-0.7c0.1-0.2,0.2-0.3,0.2-0.5h0.9C31.9,30.7,31.7,31.1,31.5,31.4z"/>
	<path class="st0" d="M65.5,22.6L65.5,22.6L65.5,22.6C65.5,22.6,65.5,22.6,65.5,22.6L65.5,22.6v-0.2l0.2-0.1c0-0.1,0-0.1,0-0.2h-0.3
		c0-0.1-0.1-0.2-0.1-0.3l0.2-0.2c0-0.1,0-0.1-0.1-0.2l-0.2,0.1c-0.1-0.1-0.1-0.2-0.2-0.3l0.2-0.2c0-0.1-0.1-0.1-0.1-0.2L65,21.2l0,0
		l0,0l-0.2-0.1l0,0L64.7,21l0.2-0.2c-0.1,0-0.1-0.1-0.2-0.1l-0.2,0.2c-0.1-0.1-0.2-0.1-0.3-0.2l0.1-0.3c-0.1,0-0.1,0-0.2-0.1
		l-0.2,0.2c-0.1,0-0.2-0.1-0.3-0.1v-0.3c-0.1,0-0.1,0-0.2,0l-0.1,0.3h-0.1l0,0c-0.1,0-0.2,0-0.3,0l-0.1-0.2c-0.1,0-0.1,0-0.2,0v0.3
		c-0.1,0-0.2,0.1-0.3,0.2l-0.2-0.2c-0.1,0-0.1,0.1-0.2,0.1l0.1,0.2c-0.1,0.1-0.2,0.2-0.2,0.2l0,0l0,0l-0.2-0.2L61.8,21l0.2,0.2
		c-0.1,0.1-0.2,0.2-0.2,0.3l-0.2-0.1c0,0.1-0.1,0.1-0.1,0.2l0.2,0.2c-0.1,0.1-0.1,0.2-0.1,0.3h-0.3c0,0.1,0,0.1,0,0.2l0.2,0.1
		c0,0.1,0,0.2,0,0.2l0,0v0.1l0,0l0,0v0.1l-0.2,0.1c0,0.1,0,0.1,0,0.2h0.3c0,0.1,0.1,0.2,0.1,0.3l-0.2,0.2c0,0.1,0,0.1,0.1,0.2
		l0.2-0.1c0.1,0.1,0.1,0.2,0.2,0.3L61.8,24c0,0.1,0.1,0.1,0.1,0.2l0.2-0.2l0,0l0,0l0.1,0.2l0,0l0.1,0.1l-0.2,0.2
		c0.1,0,0.1,0.1,0.2,0.1l0.2-0.2c0.1,0.1,0.2,0.1,0.3,0.2l-0.1,0.3c0.1,0,0.1,0,0.2,0.1l0.2-0.2c0.1,0,0.2,0.1,0.3,0.1V25
		c0.1,0,0.1,0,0.2,0l0.1-0.3h0.1l0,0c0.1,0,0.2,0,0.3,0l0.1,0.2c0.1,0,0.1,0,0.2,0v-0.3c0.1,0,0.2-0.1,0.3-0.2l0.2,0.2
		c0.1,0,0.1-0.1,0.2-0.1l-0.1-0.2c0.1-0.1,0.2-0.2,0.2-0.2l0,0l0,0l0.2,0.2l0.1-0.1L65,24c0.1-0.1,0.2-0.2,0.2-0.3l0.2,0.1
		c0-0.1,0.1-0.1,0.1-0.2l-0.2-0.2c0.1-0.1,0.1-0.2,0.1-0.3h0.3c0-0.1,0-0.1,0-0.2l-0.2-0.1C65.5,22.7,65.5,22.7,65.5,22.6z
		 M65.3,22.5h-0.9c0-0.2-0.1-0.3-0.2-0.5l0.7-0.7C65.1,21.6,65.3,22,65.3,22.5z M63.5,23.1c-0.3,0-0.5-0.2-0.5-0.5
		c0-0.3,0.2-0.5,0.5-0.5c0.3,0,0.5,0.2,0.5,0.5C64.1,22.9,63.8,23.1,63.5,23.1z M64.7,21.2l-0.7,0.7c-0.2-0.1-0.3-0.2-0.5-0.2v-0.9
		C64.1,20.8,64.4,20.9,64.7,21.2z M63.4,20.8v0.9c-0.2,0-0.3,0.1-0.5,0.2l-0.7-0.7C62.6,20.9,63,20.8,63.4,20.8z M62.2,21.3l0.7,0.7
		c-0.1,0.2-0.2,0.3-0.2,0.5h-0.9C61.8,22,61.9,21.6,62.2,21.3z M61.8,22.6h0.9c0,0.2,0.1,0.3,0.2,0.5l-0.7,0.7
		C61.9,23.4,61.8,23,61.8,22.6z M62.3,23.9l0.7-0.7c0.2,0.1,0.3,0.2,0.5,0.2v0.9C63,24.3,62.6,24.1,62.3,23.9z M63.6,24.3v-0.9
		c0.2,0,0.3-0.1,0.5-0.2l0.7,0.7C64.4,24.1,64.1,24.3,63.6,24.3z M64.8,23.7L64.1,23c0.1-0.2,0.2-0.3,0.2-0.5h0.9
		C65.3,23,65.1,23.4,64.8,23.7z"/>
	<path class="st0" d="M49.8,14L49.8,14L49.8,14L49.8,14L49.8,14v-0.2l0.3-0.1c0-0.1,0-0.2,0-0.2h-0.3c0-0.2-0.1-0.3-0.1-0.4l0.3-0.2
		C50.1,13,50,13,50,13L49.7,13c-0.1-0.2-0.2-0.2-0.2-0.4l0.2-0.2c0-0.1-0.1-0.1-0.2-0.2l-0.3,0.2l0,0l0,0l-0.2-0.2l0,0
		c-0.1-0.1-0.1-0.1-0.2-0.1l0.2-0.3c-0.1-0.1-0.1-0.1-0.2-0.1L48.7,12c-0.2-0.1-0.2-0.2-0.4-0.2l0.1-0.3c-0.1,0-0.2-0.1-0.2-0.1
		l-0.2,0.3c-0.2,0-0.2-0.1-0.4-0.1v-0.3c-0.1,0-0.2,0-0.2,0l-0.1,0.3h-0.2l0,0c-0.2,0-0.2,0-0.3,0l-0.2-0.3c-0.1,0-0.2,0-0.2,0.1
		v0.3c-0.2,0.1-0.2,0.1-0.4,0.2l-0.2-0.2c-0.1,0-0.1,0.1-0.2,0.1l0.2,0.3c-0.1,0.1-0.2,0.2-0.3,0.2l0,0l0,0l-0.3-0.2
		c-0.1,0.1-0.1,0.1-0.2,0.2l0.2,0.2c-0.1,0.1-0.2,0.2-0.2,0.3L45,12.7c0,0.1-0.1,0.1-0.1,0.2l0.3,0.2c-0.1,0.2-0.1,0.2-0.2,0.4h-0.3
		c0,0.1,0,0.2,0,0.2l0.3,0.1c0,0.1,0,0.2,0,0.2l0,0V14l0,0l0,0v0.1l-0.3,0.1c0,0.1,0,0.2,0,0.2h0.3c0,0.2,0.1,0.3,0.1,0.4l-0.3,0.2
		c0,0.1,0.1,0.2,0.1,0.2l0.3-0.1c0.1,0.2,0.2,0.2,0.2,0.4l-0.2,0.2c0,0.1,0.1,0.1,0.2,0.2l0.3-0.2l0,0l0,0l0.2,0.2l0,0
		c0.1,0,0.1,0.1,0.2,0.1l-0.2,0.3c0.1,0,0.1,0.1,0.2,0.1l0.2-0.2c0.2,0.1,0.2,0.2,0.4,0.2l-0.1,0.3c0.1,0,0.2,0.1,0.2,0.1l0.2-0.3
		c0.2,0,0.2,0.1,0.4,0.1v0.3c0.1,0,0.2,0,0.2,0l0.1-0.3h0.1l0,0c0.2,0,0.2,0,0.3,0l0.2,0.3c0.1,0,0.2,0,0.2-0.1v-0.3
		c0.2-0.1,0.2-0.1,0.4-0.2l0.2,0.2c0.1,0,0.1-0.1,0.2-0.1l-0.2-0.3c0.1-0.1,0.2-0.2,0.3-0.2l0,0l0,0l0.3,0.2
		c0.1-0.1,0.1-0.1,0.2-0.2l-0.2-0.2c0.1-0.1,0.2-0.2,0.2-0.3l0.3,0.1c0-0.1,0.1-0.1,0.1-0.2l-0.3-0.2c0.1-0.2,0.1-0.2,0.2-0.4h0.3
		c0-0.1,0-0.2,0-0.2l-0.3-0.1C49.8,14.1,49.8,14,49.8,14z M49.5,13.8h-1.1c0-0.2-0.1-0.4-0.2-0.5l0.8-0.9
		C49.3,12.8,49.5,13.3,49.5,13.8z M47.4,14.6c-0.4,0-0.7-0.3-0.7-0.7c0-0.4,0.3-0.7,0.7-0.7c0.4,0,0.7,0.3,0.7,0.7
		C48.1,14.3,47.8,14.6,47.4,14.6z M48.8,12.3L48,13.1c-0.2-0.2-0.3-0.2-0.5-0.2v-1.2C48,11.7,48.5,11.9,48.8,12.3z M47.3,11.7v1.2
		c-0.2,0-0.4,0.1-0.5,0.2l-0.8-0.9C46.2,11.9,46.8,11.7,47.3,11.7z M45.8,12.4l0.8,0.9c-0.2,0.2-0.2,0.3-0.2,0.5h-1.1
		C45.3,13.3,45.5,12.8,45.8,12.4z M45.3,14h1.1c0,0.2,0.1,0.4,0.2,0.5l-0.8,0.9C45.5,15,45.3,14.5,45.3,14z M45.9,15.5l0.8-0.9
		c0.2,0.2,0.3,0.2,0.5,0.2v1.2C46.8,16.1,46.2,15.8,45.9,15.5z M47.5,16.1V15c0.2,0,0.4-0.1,0.5-0.2l0.8,0.9
		C48.5,15.8,48,16.1,47.5,16.1z M49,15.4l-0.8-0.9c0.2-0.2,0.2-0.3,0.2-0.5h1.1C49.5,14.5,49.3,15,49,15.4z"/>
	<path class="st0" d="M100,31.3L100,31.3v-0.2c0,0,0,0,0-0.1V31v-0.2l0.7-0.2c0-0.2,0-0.2-0.1-0.4h-0.7c-0.1-0.3-0.2-0.6-0.2-0.9
		l0.6-0.4c-0.1-0.2-0.1-0.2-0.2-0.4l-0.7,0.2c-0.2-0.2-0.3-0.5-0.5-0.8l0.5-0.5c-0.1-0.1-0.2-0.2-0.2-0.3l-0.6,0.4l-0.1-0.1l0,0
		l-0.3-0.3l0,0c-0.1-0.1-0.2-0.2-0.3-0.2l0.3-0.6c-0.1-0.1-0.2-0.2-0.3-0.2l-0.5,0.5c-0.2-0.2-0.5-0.3-0.8-0.4l0.2-0.7
		c-0.2-0.1-0.2-0.1-0.4-0.2L96.1,26c-0.3-0.1-0.5-0.2-0.8-0.2l-0.1-0.7c-0.2,0-0.2,0-0.4,0l-0.2,0.7h-0.2l0,0c-0.2,0-0.5,0-0.8,0.1
		l-0.2-0.7c-0.2,0-0.2,0.1-0.4,0.1l0.1,0.7c-0.3,0.1-0.5,0.2-0.8,0.3l-0.5-0.5c-0.2,0.1-0.2,0.2-0.4,0.2l0.3,0.7
		c-0.2,0.2-0.5,0.3-0.7,0.5l0,0l0,0l-0.6-0.4c-0.1,0.1-0.2,0.2-0.3,0.3l0.5,0.5c-0.2,0.2-0.4,0.5-0.5,0.7l-0.7-0.2
		c-0.1,0.2-0.2,0.2-0.2,0.4L90,29c-0.2,0.2-0.2,0.5-0.3,0.9H89c0,0.2-0.1,0.2-0.1,0.4l0.7,0.2c0,0.2,0,0.3,0,0.5l0,0v0.2
		c0,0,0,0,0,0.1v0.1v0.2l-0.7,0.2c0,0.2,0,0.2,0,0.4h0.7c0.1,0.3,0.2,0.6,0.2,0.9l-0.6,0.4c0.1,0.2,0.1,0.2,0.2,0.4l0.7-0.2
		c0.2,0.2,0.3,0.5,0.5,0.8L90,34.7c0.1,0.1,0.2,0.2,0.2,0.3l0.6-0.4l0.1,0.1l0,0l0.3,0.3l0,0c0.1,0.1,0.2,0.2,0.3,0.2l-0.3,0.6
		c0.1,0.1,0.2,0.2,0.3,0.2l0.5-0.5c0.2,0.2,0.5,0.3,0.8,0.4l-0.2,0.7c0.2,0.1,0.2,0.1,0.4,0.2l0.3-0.6c0.3,0.1,0.5,0.2,0.8,0.2
		l0.1,0.7c0.2,0,0.2,0,0.4,0l0.2-0.7h0.2l0,0c0.2,0,0.5,0,0.8-0.1l0.2,0.7c0.2,0,0.2-0.1,0.4-0.1l-0.1-0.7c0.3-0.1,0.5-0.2,0.8-0.3
		l0.5,0.5c0.2-0.1,0.2-0.2,0.4-0.2l-0.3-0.7c0.2-0.2,0.5-0.3,0.7-0.5l0,0l0,0l0.6,0.4c0.1-0.1,0.2-0.2,0.3-0.3l-0.5-0.5
		c0.2-0.2,0.4-0.5,0.5-0.7L100,34c0.1-0.1,0.2-0.2,0.2-0.4l-0.6-0.4c0.2-0.2,0.2-0.5,0.3-0.9h0.7c0-0.2,0.1-0.2,0.1-0.4l-0.7-0.2
		C100,31.6,100,31.5,100,31.3z M99.4,30.9h-2.5c-0.1-0.5-0.2-0.9-0.5-1.2l1.8-1.8C99,28.7,99.4,29.8,99.4,30.9z M94.8,32.6
		c-0.8,0-1.5-0.7-1.5-1.5s0.7-1.5,1.5-1.5s1.5,0.7,1.5,1.5C96.3,31.9,95.6,32.6,94.8,32.6z M97.9,27.6l-1.8,1.8
		c-0.3-0.2-0.7-0.5-1.1-0.5v-2.6C96.1,26.4,97.1,26.9,97.9,27.6z M94.6,26.4V29c-0.5,0.1-0.8,0.2-1.1,0.5l-1.8-1.8
		C92.5,26.9,93.5,26.4,94.6,26.4z M91.4,27.9l1.8,1.8c-0.2,0.3-0.5,0.7-0.5,1.2h-2.5C90.3,29.8,90.7,28.7,91.4,27.9z M90.2,31.3h2.5
		c0.1,0.5,0.2,0.9,0.5,1.2l-1.8,1.8C90.7,33.5,90.3,32.4,90.2,31.3z M91.7,34.6l1.8-1.8c0.3,0.2,0.7,0.5,1.1,0.5v2.6
		C93.5,35.7,92.5,35.3,91.7,34.6z M95,35.8v-2.6c0.5-0.1,0.8-0.2,1.1-0.5l1.8,1.8C97.1,35.3,96.1,35.7,95,35.8z M98.2,34.3l-1.8-1.8
		c0.2-0.3,0.5-0.7,0.5-1.2h2.5C99.4,32.4,99,33.5,98.2,34.3z"/>
	<path class="st0" d="M78.7,57.3L78.7,57.3L78.7,57.3C78.7,57.2,78.7,57.2,78.7,57.3L78.7,57.3v-0.2L79,57c0-0.1,0-0.1,0-0.2h-0.3
		c0-0.2-0.1-0.2-0.1-0.3l0.2-0.2c0-0.1,0-0.1-0.1-0.2l-0.3,0.1c-0.1-0.1-0.1-0.2-0.2-0.3l0.2-0.2c0-0.1-0.1-0.1-0.1-0.2l-0.2,0.2
		l0,0l0,0l-0.2-0.2l0,0L78,55.6l0.2-0.2c-0.1,0-0.1-0.1-0.2-0.1l-0.2,0.2c-0.1-0.1-0.2-0.1-0.3-0.2l0.1-0.3c-0.1,0-0.1,0-0.2-0.1
		l-0.2,0.2c-0.1,0-0.2-0.1-0.3-0.1v-0.3c-0.1,0-0.1,0-0.2,0l-0.1,0.3h-0.1l0,0c-0.1,0-0.2,0-0.3,0l-0.1-0.2c-0.1,0-0.1,0-0.2,0v0.3
		c-0.1,0-0.2,0.1-0.3,0.2l-0.2-0.2c-0.1,0-0.1,0.1-0.2,0.1l0.1,0.2c-0.1,0.1-0.2,0.2-0.2,0.2l0,0l0,0l-0.2-0.2l-0.1,0.1l0.2,0.2
		c-0.1,0.1-0.2,0.2-0.2,0.3L74.7,56c0,0.1-0.1,0.1-0.1,0.2l0.2,0.2c-0.1,0.1-0.1,0.2-0.1,0.3h-0.3c0,0.1,0,0.1,0,0.2l0.2,0.1
		c0,0.1,0,0.2,0,0.2l0,0v0.1l0,0l0,0v0.1l-0.3,0.1c0,0.1,0,0.1,0,0.2h0.3c0,0.2,0.1,0.2,0.1,0.3l-0.2,0.2c0,0.1,0.1,0.1,0.1,0.2
		L75,58c0.1,0.1,0.1,0.2,0.2,0.3l-0.2,0.2c0,0.1,0.1,0.1,0.1,0.2l0.2-0.2l0,0l0,0l0.2,0.2l0,0l0.1,0.1L75.3,59
		c0.1,0,0.1,0.1,0.2,0.1l0.2-0.2c0.1,0.1,0.2,0.1,0.3,0.2l-0.1,0.3c0.1,0,0.1,0,0.2,0.1l0.2-0.2c0.1,0,0.2,0.1,0.3,0.1v0.3
		c0.1,0,0.1,0,0.2,0l0.1-0.3h0.1l0,0c0.1,0,0.2,0,0.3,0l0.1,0.2c0.1,0,0.1,0,0.2,0v-0.3c0.1,0,0.2-0.1,0.3-0.2l0.2,0.2
		c0.1,0,0.1-0.1,0.2-0.1l-0.1-0.2c0.1-0.1,0.2-0.2,0.2-0.2l0,0l0,0l0.2,0.2l0.1-0.1l-0.2-0.2c0.1-0.1,0.2-0.2,0.2-0.3l0.2,0.1
		c0-0.1,0.1-0.1,0.1-0.2L78.6,58c0.1-0.1,0.1-0.2,0.1-0.3H79c0-0.1,0-0.1,0-0.2l-0.2-0.1C78.7,57.4,78.7,57.3,78.7,57.3z M78.5,57.1
		h-1c0-0.2-0.1-0.3-0.2-0.5l0.7-0.7C78.3,56.3,78.5,56.6,78.5,57.1z M76.7,57.8c-0.3,0-0.6-0.2-0.6-0.6c0-0.3,0.2-0.6,0.6-0.6
		c0.3,0,0.6,0.2,0.6,0.6C77.3,57.5,77,57.8,76.7,57.8z M77.9,55.9l-0.7,0.7c-0.2-0.1-0.3-0.2-0.5-0.2v-1
		C77.2,55.4,77.6,55.6,77.9,55.9z M76.6,55.3v1c-0.2,0-0.3,0.1-0.5,0.2l-0.7-0.7C75.7,55.6,76.2,55.4,76.6,55.3z M75.4,55.9l0.7,0.7
		c-0.1,0.2-0.2,0.3-0.2,0.5h-1C74.9,56.6,75.1,56.3,75.4,55.9z M74.9,57.3h1c0,0.2,0.1,0.3,0.2,0.5l-0.7,0.7
		C75.1,58.1,74.9,57.7,74.9,57.3z M75.4,58.6l0.7-0.7c0.2,0.1,0.3,0.2,0.5,0.2v1C76.2,59,75.7,58.8,75.4,58.6z M76.7,59v-1
		c0.2,0,0.3-0.1,0.5-0.2l0.7,0.7C77.6,58.8,77.2,59,76.7,59z M78,58.4l-0.7-0.7c0.1-0.2,0.2-0.3,0.2-0.5h1
		C78.5,57.7,78.3,58.1,78,58.4z"/>
	<path class="st0" d="M74.9,49.8L74.9,49.8v-0.4v-0.1c0-0.1,0-0.1,0-0.2v-0.3l1.5-0.3c0-0.3,0-0.6-0.1-0.9l-1.5-0.2
		c-0.1-0.6-0.2-1.3-0.4-1.9l1.4-0.7c-0.1-0.3-0.2-0.5-0.3-0.9L74,44.4c-0.2-0.6-0.5-1.2-0.8-1.7l1.1-1.1c-0.2-0.2-0.3-0.5-0.5-0.7
		l-1.4,0.7c-0.1-0.1-0.1-0.1-0.2-0.2l0,0l-0.6-0.7l0,0c-0.2-0.2-0.4-0.4-0.5-0.5l0.8-1.4c-0.2-0.2-0.5-0.4-0.7-0.5L70,39.4
		c-0.5-0.4-1.1-0.7-1.7-1l0.4-1.5c-0.2-0.2-0.5-0.2-0.8-0.3l-0.8,1.4c-0.6-0.2-1.2-0.4-1.8-0.5l-0.1-1.5c-0.3,0-0.6-0.1-0.8-0.1
		L64,37.4h-0.3l0,0c-0.5,0-1.1,0-1.6,0.1L61.5,36C61.2,36,61,36,60.7,36.1l0.1,1.5c-0.6,0.2-1.2,0.4-1.8,0.6L58,37
		c-0.2,0.2-0.5,0.2-0.8,0.4l0.5,1.5c-0.5,0.3-1,0.7-1.5,1.1l0,0L56.3,40L55,39c-0.2,0.2-0.5,0.4-0.6,0.6l0.9,1.3
		c-0.5,0.5-0.8,1-1.2,1.5l-1.5-0.6c-0.2,0.2-0.3,0.5-0.5,0.8l1.2,1c-0.3,0.5-0.5,1.2-0.7,1.8l-1.5-0.2c-0.1,0.3-0.2,0.5-0.2,0.9
		l1.5,0.6c-0.1,0.3-0.1,0.7-0.2,1l0,0v0.4v0.1c0,0.1,0,0.1,0,0.2v0.3L50.8,49c0,0.3,0,0.6,0.1,0.9l1.5,0.2c0.1,0.6,0.2,1.3,0.4,1.9
		l-1.4,0.7c0.1,0.3,0.2,0.5,0.3,0.9l1.5-0.3c0.2,0.6,0.5,1.2,0.8,1.7l-1.1,1.1c0.2,0.2,0.3,0.5,0.5,0.7l1.4-0.7
		c0.1,0.1,0.1,0.1,0.2,0.2l0,0l0.6,0.7l0,0c0.2,0.2,0.4,0.4,0.5,0.5l-0.8,1.4c0.2,0.2,0.5,0.4,0.7,0.5l1.1-1.1
		c0.5,0.4,1.1,0.7,1.7,1l-0.4,1.5c0.2,0.2,0.5,0.2,0.8,0.3l0.8-1.4c0.6,0.2,1.2,0.4,1.8,0.5l0.1,1.5c0.3,0,0.5,0.1,0.8,0.1l0.4-1.5
		h0.3l0,0c0.5,0,1.1,0,1.6-0.1l0.5,1.5c0.3-0.1,0.5-0.1,0.8-0.2l-0.1-1.5c0.6-0.2,1.2-0.4,1.8-0.6l0.9,1.3c0.2-0.2,0.5-0.2,0.8-0.4
		l-0.5-1.5c0.5-0.3,1-0.7,1.5-1.1l0,0l0.1-0.1l1.2,1c0.2-0.2,0.5-0.4,0.6-0.6l-0.9-1.3c0.5-0.5,0.8-1,1.2-1.5l1.5,0.6
		c0.2-0.2,0.3-0.5,0.5-0.8l-1.2-1c0.3-0.5,0.5-1.2,0.7-1.8l1.5,0.2c0.1-0.3,0.2-0.5,0.2-0.9l-1.5-0.6C74.8,50.5,74.9,50.2,74.9,49.8
		z M63.2,59c-5.5-0.3-9.8-5.1-9.5-10.7c0.3-5.6,5-9.9,10.5-9.6c5.5,0.3,9.8,5.1,9.5,10.7C73.5,54.9,68.7,59.2,63.2,59z"/>
	<g>
		<path class="st0" d="M111.4,42.8L111.4,42.8L111.4,42.8L111.4,42.8c0-0.1,0-0.1,0-0.2v-0.1l0.5-0.1c0-0.1,0-0.2,0-0.3h-0.5
			c0-0.2-0.1-0.4-0.2-0.6l0.4-0.2c0-0.1-0.1-0.2-0.1-0.2l-0.5,0.2c-0.1-0.2-0.2-0.4-0.3-0.5l0.3-0.4c-0.1-0.1-0.1-0.2-0.2-0.2
			l-0.4,0.2c0,0,0,0-0.1-0.1l0,0l-0.2-0.2l0,0c-0.1-0.1-0.2-0.1-0.2-0.2l0.2-0.5c-0.1-0.1-0.2-0.1-0.2-0.2l-0.3,0.4
			c-0.2-0.1-0.3-0.2-0.5-0.3l0.1-0.5c-0.1,0-0.2-0.1-0.2-0.1l-0.2,0.5c-0.2-0.1-0.4-0.1-0.6-0.1l-0.1-0.5c-0.1,0-0.2,0-0.3,0
			l-0.1,0.5h-0.1l0,0c-0.2,0-0.3,0-0.5,0.1l-0.2-0.5c-0.1,0-0.2,0.1-0.2,0.1l0.1,0.5c-0.2,0.1-0.4,0.2-0.5,0.2l-0.3-0.4
			c-0.1,0.1-0.2,0.1-0.2,0.2l0.2,0.5c-0.2,0.1-0.3,0.2-0.5,0.4l0,0l0,0l-0.4-0.3c-0.1,0.1-0.2,0.2-0.2,0.2l0.3,0.4
			c-0.2,0.2-0.2,0.3-0.3,0.5l-0.5-0.2c-0.1,0.1-0.1,0.2-0.2,0.2l0.4,0.3c-0.1,0.2-0.2,0.4-0.2,0.5h-0.5c0,0.1,0,0.2-0.1,0.2l0.5,0.2
			c0,0.1,0,0.2,0,0.3l0,0v0.1l0,0c0,0,0,0,0,0.1v0.1l-0.5,0.1c0,0.1,0,0.2,0,0.2h0.5c0,0.2,0.1,0.4,0.2,0.6l-0.4,0.2
			c0,0.1,0.1,0.2,0.1,0.2l0.5-0.2c0.1,0.2,0.2,0.4,0.3,0.5l-0.3,0.4c0.1,0.1,0.1,0.2,0.2,0.2l0.4-0.2c0,0,0,0,0.1,0.1l0,0l0.2,0.2
			l0,0c0.1,0.1,0.2,0.1,0.2,0.2l-0.2,0.5c0.1,0.1,0.2,0.1,0.2,0.2l0.3-0.4c0.2,0.1,0.3,0.2,0.5,0.3l-0.1,0.5c0.1,0,0.2,0.1,0.2,0.1
			l0.2-0.5c0.2,0.1,0.4,0.1,0.6,0.1l0.1,0.5c0.1,0,0.2,0,0.3,0l0.1-0.5h0.1l0,0c0.2,0,0.3,0,0.5-0.1l0.2,0.5c0.1,0,0.2-0.1,0.2-0.1
			L109,46c0.2-0.1,0.4-0.2,0.5-0.2l0.3,0.4c0.1-0.1,0.2-0.1,0.2-0.2l-0.2-0.5c0.2-0.1,0.3-0.2,0.5-0.4l0,0l0,0l0.4,0.3
			c0.1-0.1,0.2-0.2,0.2-0.2l-0.3-0.4c0.2-0.2,0.2-0.3,0.3-0.5l0.5,0.2c0.1-0.1,0.1-0.2,0.2-0.2l-0.4-0.3c0.1-0.2,0.2-0.4,0.2-0.5
			h0.5c0-0.1,0-0.2,0.1-0.2l-0.5-0.2C111.4,43,111.4,42.9,111.4,42.8z M111,42.5h-1.7c0-0.3-0.2-0.5-0.3-0.8l1.2-1.2
			C110.7,41.1,111,41.8,111,42.5z M107.9,43.7c-0.5,0-1-0.5-1-1c0-0.5,0.5-1,1-1c0.5,0,1,0.5,1,1C108.9,43.2,108.4,43.7,107.9,43.7z
			 M110,40.4l-1.2,1.2c-0.2-0.2-0.5-0.3-0.8-0.3v-1.8C108.8,39.5,109.5,39.8,110,40.4z M107.8,39.5v1.7c-0.3,0-0.5,0.2-0.8,0.3
			l-1.2-1.2C106.3,39.8,107,39.5,107.8,39.5z M105.6,40.5l1.2,1.2c-0.2,0.2-0.3,0.5-0.3,0.8h-1.7C104.9,41.8,105.2,41.1,105.6,40.5z
			 M104.8,42.8h1.7c0,0.3,0.2,0.5,0.3,0.8l-1.2,1.2C105.2,44.3,104.9,43.6,104.8,42.8z M105.9,45l1.2-1.2c0.2,0.2,0.5,0.3,0.8,0.3
			v1.7C107,45.8,106.3,45.5,105.9,45z M108.1,45.8v-1.7c0.3,0,0.5-0.2,0.8-0.3l1.2,1.2C109.5,45.5,108.8,45.8,108.1,45.8z
			 M110.2,44.8l-1.2-1.2c0.2-0.2,0.3-0.5,0.3-0.8h1.7C111,43.6,110.7,44.3,110.2,44.8z"/>
		<path class="st0" d="M90.8,39.8L90.8,39.8L90.8,39.8L90.8,39.8L90.8,39.8v-0.2l0.3-0.1c0-0.1,0-0.2,0-0.2h-0.4
			c0-0.2-0.1-0.3-0.1-0.4l0.3-0.2c0-0.1-0.1-0.2-0.1-0.2l-0.3,0.1c-0.1-0.2-0.2-0.2-0.2-0.4l0.2-0.2c-0.1-0.1-0.1-0.1-0.2-0.2
			l-0.3,0.2l0,0l0,0L90,38l0,0c-0.1-0.1-0.1-0.1-0.2-0.2l0.2-0.3c-0.1-0.1-0.1-0.1-0.2-0.1l-0.2,0.2c-0.2-0.1-0.2-0.2-0.4-0.2
			l0.1-0.3c-0.1,0-0.2-0.1-0.2-0.1L89,37.4c-0.2,0-0.3-0.1-0.4-0.1v-0.4c-0.1,0-0.2,0-0.2,0l-0.1,0.3h-0.1l0,0c-0.2,0-0.2,0-0.4,0
			l-0.2-0.3c-0.1,0-0.2,0-0.2,0.1v0.4c-0.2,0.1-0.3,0.1-0.4,0.2l-0.2-0.3c-0.1,0-0.1,0.1-0.2,0.1l0.2,0.3c-0.1,0.1-0.2,0.2-0.3,0.2
			l0,0l0,0l-0.3-0.2c-0.1,0.1-0.1,0.1-0.2,0.2l0.2,0.3c-0.1,0.1-0.2,0.2-0.2,0.4l-0.3-0.1c0,0.1-0.1,0.1-0.1,0.2l0.3,0.2
			C86,38.9,86,39,85.9,39.1h-0.4c0,0.1,0,0.2,0,0.2l0.3,0.1c0,0.1,0,0.2,0,0.2l0,0v0.1l0,0l0,0v0.1l-0.3,0.1c0,0.1,0,0.2,0,0.2h0.4
			c0,0.2,0.1,0.3,0.1,0.4l-0.3,0.2c0,0.1,0.1,0.2,0.1,0.2l0.3-0.1c0.1,0.2,0.2,0.2,0.2,0.4l-0.2,0.2c0.1,0.1,0.1,0.1,0.2,0.2
			l0.3-0.2l0,0l0,0l0.2,0.2l0,0c0.1,0.1,0.1,0.1,0.2,0.2L86.7,42c0.1,0.1,0.1,0.1,0.2,0.1l0.2-0.2c0.2,0.1,0.2,0.2,0.4,0.2l-0.1,0.3
			c0.1,0,0.2,0.1,0.2,0.1l0.2-0.3c0.2,0,0.3,0.1,0.4,0.1v0.4c0.1,0,0.2,0,0.2,0l0.1-0.3h0.1l0,0c0.2,0,0.2,0,0.4,0l0.2,0.3
			c0.1,0,0.2,0,0.2-0.1v-0.4c0.2-0.1,0.3-0.1,0.4-0.2l0.2,0.3c0.1,0,0.1-0.1,0.2-0.1l-0.2-0.3c0.1-0.1,0.2-0.2,0.3-0.2l0,0l0,0
			l0.3,0.2c0.1-0.1,0.1-0.1,0.2-0.2l-0.2-0.3c0.1-0.1,0.2-0.2,0.2-0.4l0.3,0.1c0-0.1,0.1-0.1,0.1-0.2l-0.3-0.2
			c0.1-0.2,0.1-0.2,0.2-0.4h0.4c0-0.1,0-0.2,0-0.2l-0.3-0.1C90.8,40,90.8,39.9,90.8,39.8z M90.5,39.7h-1.2c0-0.2-0.1-0.4-0.2-0.5
			l0.8-0.9C90.3,38.6,90.5,39.1,90.5,39.7z M88.3,40.5c-0.4,0-0.7-0.3-0.7-0.7c0-0.4,0.3-0.8,0.7-0.8s0.7,0.3,0.7,0.8
			C89,40.1,88.7,40.5,88.3,40.5z M89.8,38.1L89,38.9c-0.2-0.2-0.3-0.2-0.5-0.2v-1.2C88.9,37.5,89.4,37.7,89.8,38.1z M88.2,37.5v1.2
			c-0.2,0-0.4,0.1-0.5,0.2l-0.8-0.9C87.1,37.7,87.7,37.5,88.2,37.5z M86.6,38.2l0.8,0.9c-0.2,0.2-0.2,0.4-0.2,0.5H86
			C86.1,39.1,86.3,38.6,86.6,38.2z M86.1,39.8h1.2c0,0.2,0.1,0.4,0.2,0.5l-0.8,0.9C86.3,40.9,86.1,40.4,86.1,39.8z M86.7,41.5
			l0.8-0.9c0.2,0.2,0.3,0.2,0.5,0.2v1.2C87.7,42,87.1,41.8,86.7,41.5z M88.4,42v-1.2c0.2,0,0.4-0.1,0.5-0.2l0.8,0.9
			C89.4,41.8,88.9,42,88.4,42z M90,41.3l-0.8-0.9c0.2-0.2,0.2-0.3,0.2-0.5h1.2C90.5,40.4,90.3,40.9,90,41.3z"/>
		<path class="st0" d="M68.3,30.5L68.3,30.5v-0.2c0,0,0,0,0-0.1c0,0,0,0,0-0.1v-0.2l0.5-0.2c0-0.1,0-0.2,0-0.3h-0.6
			c0-0.2-0.1-0.5-0.2-0.7l0.5-0.3c0-0.1-0.1-0.2-0.2-0.3l-0.5,0.2c-0.1-0.2-0.2-0.5-0.4-0.6l0.4-0.5c-0.1-0.1-0.2-0.2-0.2-0.2
			l-0.5,0.3c0,0,0,0-0.1-0.1l0,0l-0.2-0.2l0,0c-0.1-0.1-0.2-0.2-0.2-0.2l0.3-0.5c-0.1-0.1-0.2-0.2-0.2-0.2l-0.4,0.5
			c-0.2-0.2-0.4-0.2-0.6-0.3l0.1-0.6c-0.1-0.1-0.2-0.1-0.3-0.1l-0.3,0.5c-0.2-0.1-0.5-0.1-0.7-0.2l-0.1-0.6c-0.1,0-0.2,0-0.3,0
			L64.1,26h-0.2l0,0c-0.2,0-0.4,0-0.6,0.1l-0.2-0.5c-0.1,0-0.2,0.1-0.3,0.1l0.1,0.6c-0.2,0.1-0.5,0.2-0.7,0.3l-0.4-0.5
			c-0.1,0.1-0.2,0.1-0.3,0.2l0.2,0.5c-0.2,0.2-0.4,0.2-0.5,0.5l0,0l0,0L60.7,27c-0.1,0.1-0.2,0.2-0.2,0.2l0.4,0.5
			c-0.2,0.2-0.3,0.4-0.4,0.6l-0.5-0.2c-0.1,0.1-0.1,0.2-0.2,0.3l0.5,0.3c-0.1,0.2-0.2,0.5-0.2,0.7h-0.6c0,0.1-0.1,0.2-0.1,0.3
			l0.5,0.2c0,0.2,0,0.2,0,0.4l0,0v0.2c0,0,0,0,0,0.1v0.1v0.1l-0.5,0.2c0,0.1,0,0.2,0,0.3h0.6c0,0.2,0.1,0.5,0.2,0.7l-0.5,0.3
			c0,0.1,0.1,0.2,0.2,0.3l0.5-0.2c0.1,0.2,0.2,0.5,0.4,0.6l-0.4,0.5c0.1,0.1,0.2,0.2,0.2,0.2l0.5-0.3c0,0,0,0,0.1,0.1l0,0l0.2,0.2
			l0,0c0.1,0.1,0.2,0.2,0.2,0.2l-0.3,0.5c0.1,0.1,0.2,0.2,0.3,0.2l0.4-0.5c0.2,0.2,0.4,0.2,0.6,0.3L62.4,35c0.1,0,0.2,0.1,0.3,0.1
			l0.2-0.5c0.2,0.1,0.5,0.1,0.7,0.2l0.1,0.6c0.1,0,0.2,0,0.3,0l0.1-0.6h0.2l0,0c0.2,0,0.4,0,0.6-0.1l0.2,0.5c0.1,0,0.2-0.1,0.3-0.1
			l-0.1-0.6c0.2-0.1,0.5-0.2,0.7-0.3l0.4,0.5c0.1-0.1,0.2-0.1,0.3-0.2l-0.2-0.5c0.2-0.2,0.4-0.3,0.5-0.5l0,0l0,0l0.5,0.3
			c0.1-0.1,0.2-0.2,0.2-0.2L67.3,33c0.2-0.2,0.3-0.4,0.4-0.6l0.5,0.2c0.1-0.1,0.1-0.2,0.2-0.3L67.9,32c0.1-0.2,0.2-0.5,0.2-0.7h0.6
			c0-0.1,0.1-0.2,0.1-0.3l-0.5-0.2C68.3,30.8,68.3,30.6,68.3,30.5z M67.9,30.2h-2.1c0-0.4-0.2-0.7-0.4-0.9l1.5-1.5
			C67.4,28.4,67.8,29.2,67.9,30.2z M64.1,31.6c-0.7,0-1.2-0.5-1.2-1.2c0-0.7,0.5-1.2,1.2-1.2s1.2,0.5,1.2,1.2
			C65.3,31,64.7,31.6,64.1,31.6z M66.6,27.5L65.1,29c-0.2-0.2-0.6-0.4-0.9-0.4v-2.1C65.1,26.5,66,26.9,66.6,27.5z M63.9,26.5v2.1
			c-0.4,0-0.7,0.2-0.9,0.4l-1.5-1.5C62.1,26.9,63,26.5,63.9,26.5z M61.2,27.8l1.5,1.5c-0.2,0.2-0.4,0.6-0.4,0.9h-2.1
			C60.3,29.2,60.7,28.4,61.2,27.8z M60.2,30.5h2.1c0,0.4,0.2,0.7,0.4,0.9l-1.5,1.5C60.7,32.3,60.3,31.5,60.2,30.5z M61.5,33.2
			l1.5-1.5c0.2,0.2,0.6,0.4,0.9,0.4v2.1C63,34.2,62.1,33.8,61.5,33.2z M64.2,34.2v-2.1c0.4,0,0.7-0.2,0.9-0.4l1.5,1.5
			C66,33.8,65.1,34.2,64.2,34.2z M66.9,32.9l-1.5-1.5c0.2-0.2,0.4-0.6,0.4-0.9h2.1C67.8,31.5,67.4,32.3,66.9,32.9z"/>
		<path class="st0" d="M15.5,7L15.5,7V6.8c0,0,0,0,0-0.1V6.7V6.5l0.6-0.2c0-0.2,0-0.2,0-0.4h-0.6c-0.1-0.2-0.1-0.5-0.2-0.8l0.5-0.3
			c-0.1-0.1-0.1-0.2-0.2-0.3l-0.6,0.2C15,4.5,14.8,4.3,14.7,4l0.5-0.5c-0.1-0.1-0.2-0.2-0.2-0.3l-0.5,0.3c0,0,0,0-0.1-0.1l0,0
			l-0.2-0.2l0,0C14,3.2,13.9,3.1,13.8,3l0.3-0.5c-0.1-0.1-0.2-0.2-0.3-0.2l-0.5,0.5c-0.2-0.2-0.5-0.2-0.7-0.4l0.2-0.6
			c-0.1-0.1-0.2-0.1-0.3-0.1l-0.4,0.7c-0.2-0.1-0.5-0.2-0.8-0.2l-0.1-0.6c-0.2,0-0.2,0-0.4,0l-0.2,0.6h-0.2l0,0
			c-0.2,0-0.5,0-0.6,0.1L9.8,1.6c-0.1,0-0.2,0.1-0.3,0.1l0.1,0.6C9.3,2.4,9.1,2.5,8.9,2.7L8.5,2.2C8.4,2.3,8.3,2.3,8.2,2.3L8.4,3
			C8.2,3.1,8,3.3,7.9,3.4l0,0l0,0L7.4,3C7.3,3.1,7.2,3.2,7.1,3.3l0.4,0.5C7.4,4,7.2,4.1,7,4.4L6.4,4.1C6.4,4.2,6.4,4.4,6.3,4.4
			l0.5,0.4C6.7,5.1,6.7,5.3,6.6,5.6H6c0,0.1-0.1,0.2-0.1,0.3l0.6,0.2c0,0.2,0,0.2,0,0.4l0,0v0.2c0,0,0,0,0,0.1v0.1V7L5.9,7.1
			c0,0.2,0,0.2,0,0.4h0.6c0.1,0.2,0.1,0.5,0.2,0.8L6.1,8.5c0.1,0.1,0.1,0.2,0.2,0.3l0.6-0.2C6.9,8.9,7,9.2,7.2,9.4L6.7,9.9
			C6.8,9.9,6.9,10,7,10.2l0.5-0.3c0,0,0,0,0.1,0.1l0,0l0.2,0.2l0,0C7.9,10.2,8,10.3,8,10.4l-0.3,0.5C7.8,11,7.9,11.1,8,11.2l0.5-0.5
			c0.2,0.2,0.5,0.2,0.7,0.4l-0.1,0.5c0.1,0.1,0.2,0.1,0.3,0.1l0.3-0.5c0.2,0.1,0.5,0.2,0.8,0.2l0.1,0.6c0.2,0,0.2,0,0.4,0l0.2-0.6
			h0.2l0,0c0.2,0,0.5,0,0.6-0.1l0.2,0.6c0.1,0,0.2-0.1,0.3-0.1l-0.1-0.6c0.2-0.1,0.5-0.2,0.7-0.3l0.4,0.5c0.1-0.1,0.2-0.2,0.3-0.2
			l-0.2-0.6c0.2-0.2,0.4-0.3,0.5-0.5l0,0l0,0l0.5,0.4c0.1-0.1,0.2-0.2,0.2-0.2l-0.4-0.5c0.2-0.2,0.3-0.4,0.5-0.6l0.6,0.2
			c0.1-0.1,0.1-0.2,0.2-0.3l-0.5-0.4c0.1-0.2,0.2-0.5,0.2-0.8h0.6c0-0.1,0.1-0.2,0.1-0.3l-0.6-0.2C15.5,7.2,15.5,7.1,15.5,7z
			 M14.9,6.6h-2.2c0-0.4-0.2-0.7-0.4-1L13.8,4C14.5,4.7,14.9,5.6,14.9,6.6z M10.9,8.1c-0.7,0-1.3-0.6-1.3-1.3s0.6-1.3,1.3-1.3
			c0.7,0,1.3,0.6,1.3,1.3C12.2,7.5,11.6,8.1,10.9,8.1z M13.6,3.7l-1.5,1.5c-0.3-0.2-0.6-0.4-1-0.4V2.7C12.1,2.7,12.9,3.1,13.6,3.7z
			 M10.7,2.7v2.2c-0.4,0-0.7,0.2-1,0.4L8.2,3.7C8.9,3.1,9.7,2.7,10.7,2.7z M7.9,4l1.5,1.5C9.2,5.8,9,6.1,9,6.5H6.8
			C6.9,5.6,7.3,4.7,7.9,4z M6.9,7h2.2c0,0.4,0.2,0.7,0.4,1L8,9.5C7.3,8.8,6.9,7.9,6.9,7z M8.2,9.8l1.5-1.5c0.3,0.2,0.6,0.4,1,0.4
			v2.2C9.7,10.8,8.9,10.4,8.2,9.8z M11.1,10.9V8.6c0.4,0,0.7-0.2,1-0.4l1.5,1.5C12.9,10.4,12.1,10.8,11.1,10.9z M13.9,9.5L12.4,8
			c0.2-0.3,0.4-0.6,0.4-1H15C14.9,7.9,14.5,8.8,13.9,9.5z"/>
	</g>
	<g>
		<path class="st0" d="M59.6,24L59.6,24v-0.2v-0.1v-0.1v-0.2l0.9-0.2c0-0.2,0-0.4-0.1-0.5l-1-0.1c-0.1-0.4-0.2-0.8-0.3-1.2L60,21
			c-0.1-0.2-0.2-0.3-0.2-0.5l-0.9,0.2c-0.2-0.4-0.4-0.7-0.6-1l0.7-0.7c-0.1-0.2-0.2-0.3-0.3-0.4l-0.8,0.5l-0.1-0.1l0,0l-0.4-0.4l0,0
			c-0.2-0.1-0.2-0.2-0.4-0.3l0.5-0.9c-0.2-0.1-0.3-0.2-0.5-0.3l-0.7,0.7c-0.3-0.2-0.7-0.4-1.1-0.5l0.2-0.9c-0.2-0.1-0.3-0.2-0.5-0.2
			l-0.5,0.9c-0.4-0.1-0.8-0.2-1.1-0.2L53.1,16c-0.2,0-0.4,0-0.5,0l-0.2,0.9h-0.2l0,0c-0.3,0-0.7,0.1-1,0.1l-0.4-0.9
			c-0.2,0-0.4,0.1-0.5,0.2l0.1,0.9c-0.4,0.2-0.8,0.2-1.1,0.5l-0.6-0.8c-0.2,0.1-0.3,0.2-0.5,0.3l0.4,0.9c-0.3,0.2-0.6,0.5-0.8,0.7
			l0,0l-0.1,0.1l-0.8-0.5c-0.2,0.2-0.2,0.2-0.4,0.4l0.6,0.8c-0.2,0.3-0.5,0.6-0.7,1l-0.9-0.3c-0.1,0.2-0.2,0.3-0.2,0.5l0.8,0.5
			c-0.2,0.4-0.3,0.8-0.4,1.2l-1-0.1c-0.1,0.2-0.1,0.4-0.1,0.5l0.9,0.3c0,0.2-0.1,0.4-0.1,0.6l0,0V24V24v0.1v0.2l-0.9,0.2
			c0,0.2,0,0.4,0.1,0.5l1,0.1c0.1,0.4,0.2,0.8,0.3,1.2l-0.8,0.5c0.1,0.2,0.2,0.3,0.2,0.5l0.9-0.2c0.2,0.4,0.4,0.7,0.6,1l-0.7,0.7
			c0.1,0.2,0.2,0.3,0.3,0.4l0.8-0.5l0.1,0.1l0,0l0.4,0.4l0,0c0.2,0.1,0.2,0.2,0.4,0.3l-0.5,0.9c0.2,0.1,0.3,0.2,0.5,0.3l0.7-0.7
			c0.3,0.2,0.7,0.4,1.1,0.5l-0.2,0.9c0.2,0.1,0.3,0.2,0.5,0.2l0.5-0.9c0.4,0.1,0.8,0.2,1.1,0.2l0.1,0.9c0.2,0,0.4,0,0.5,0l0.2-0.9
			h0.2l0,0c0.3,0,0.7-0.1,1-0.1l0.4,0.9c0.2,0,0.4-0.1,0.5-0.2l-0.1-0.9c0.4-0.2,0.8-0.2,1.1-0.5l0.6,0.8c0.2-0.1,0.3-0.2,0.5-0.3
			l-0.4-0.9c0.3-0.2,0.6-0.5,0.8-0.7l0,0l0.1-0.1l0.8,0.5c0.2-0.2,0.2-0.2,0.4-0.4l-0.6-0.8c0.2-0.3,0.5-0.6,0.7-1l0.9,0.3
			c0.1-0.2,0.2-0.3,0.2-0.5L59,26.6c0.2-0.4,0.3-0.8,0.4-1.2l1,0.1c0.1-0.2,0.1-0.4,0.1-0.5l-0.9-0.3C59.6,24.4,59.6,24.3,59.6,24z
			 M58.9,23.4h-3.4c-0.1-0.5-0.3-1.1-0.6-1.5l2.4-2.4C58.2,20.5,58.8,21.9,58.9,23.4z M52.7,25.7c-1.1,0-2-0.9-2-2s0.9-2,2-2
			s2,0.9,2,2S53.8,25.7,52.7,25.7z M56.9,19.1l-2.4,2.4c-0.5-0.4-0.9-0.5-1.5-0.6v-3.4C54.5,17.5,55.8,18.1,56.9,19.1z M52.4,17.4
			v3.4c-0.5,0.1-1.1,0.3-1.5,0.6l-2.4-2.4C49.5,18.1,50.9,17.5,52.4,17.4z M48.2,19.5l2.4,2.4c-0.4,0.5-0.5,0.9-0.6,1.5h-3.4
			C46.6,21.9,47.2,20.5,48.2,19.5z M46.6,24h3.4c0.1,0.5,0.3,1.1,0.6,1.5L48.2,28C47.2,26.9,46.6,25.5,46.6,24z M48.5,28.4l2.4-2.4
			c0.5,0.4,0.9,0.5,1.5,0.6V30C50.9,29.9,49.5,29.3,48.5,28.4z M53,30v-3.4c0.5-0.1,1.1-0.3,1.5-0.6l2.4,2.4
			C55.8,29.3,54.5,29.9,53,30z M57.3,28l-2.4-2.4c0.4-0.5,0.6-0.9,0.6-1.5h3.4C58.8,25.5,58.2,26.9,57.3,28z"/>
		<path class="st0" d="M57.6,34.9L57.6,34.9L57.6,34.9L57.6,34.9L57.6,34.9v-0.2l0.3-0.1c0-0.1,0-0.2,0-0.2h-0.4
			c0-0.2-0.1-0.3-0.1-0.4l0.3-0.2c0-0.1-0.1-0.2-0.1-0.2l-0.3,0.1c-0.1-0.2-0.2-0.2-0.2-0.4l0.2-0.2c-0.1-0.1-0.1-0.1-0.2-0.2
			l-0.3,0.2l0,0l0,0L56.8,33l0,0c-0.1-0.1-0.1-0.1-0.2-0.2l0.2-0.3c-0.1-0.1-0.1-0.1-0.2-0.1l-0.2,0.2c-0.2-0.1-0.2-0.2-0.4-0.2
			l0.1-0.4C56,32.1,56,32,56,32l-0.2,0.3c-0.2,0-0.3-0.1-0.5-0.1v-0.4c-0.1,0-0.2,0-0.2,0L55,32.2H55l0,0c-0.2,0-0.2,0-0.4,0.1
			L54.4,32c-0.1,0-0.2,0-0.2,0.1v0.4c-0.2,0.1-0.3,0.1-0.4,0.2l-0.2-0.3c-0.1,0-0.1,0.1-0.2,0.1l0.2,0.3c-0.1,0.1-0.2,0.2-0.3,0.2
			l0,0l0,0L53,32.7c-0.1,0.1-0.1,0.1-0.2,0.2l0.2,0.3c-0.1,0.1-0.2,0.2-0.2,0.4l-0.3-0.2c0,0.1-0.1,0.2-0.1,0.2l0.3,0.2
			c-0.1,0.2-0.1,0.2-0.2,0.4h-0.4c0,0.1,0,0.2,0,0.2l0.3,0.1c0,0.1,0,0.2,0,0.2l0,0v0.1l0,0l0,0v0.1L52.3,35c0,0.1,0,0.2,0,0.2h0.4
			c0,0.2,0.1,0.3,0.1,0.4l-0.3,0.2c0,0.1,0.1,0.2,0.1,0.2l0.3-0.1C52.9,36,53,36,53,36.2l-0.2,0.2c0.1,0.1,0.1,0.1,0.2,0.2l0.3-0.2
			l0,0l0,0l0.2,0.2l0,0c0.1,0.1,0.1,0.1,0.2,0.2L53.4,37c0.1,0.1,0.1,0.1,0.2,0.1l0.2-0.2C54,37,54,37,54.2,37.1l-0.1,0.4
			c0.1,0,0.2,0.1,0.2,0.1l0.2-0.3c0.2,0,0.3,0.1,0.5,0.1v0.4c0.1,0,0.2,0,0.2,0l0.1-0.4h0.1l0,0c0.2,0,0.2,0,0.4,0l0.2,0.3
			c0.1,0,0.2,0,0.2-0.1v-0.4c0.2-0.1,0.3-0.1,0.4-0.2l0.2,0.3c0.1,0,0.1-0.1,0.2-0.1L56.6,37c0.1-0.1,0.2-0.2,0.3-0.2l0,0l0,0
			l0.3,0.2c0.1-0.1,0.1-0.1,0.2-0.2l-0.2-0.3c0.1-0.1,0.2-0.2,0.2-0.4l0.3,0.2c0-0.1,0.1-0.2,0.1-0.2l-0.3-0.2
			c0.1-0.2,0.1-0.2,0.2-0.4h0.4c0-0.1,0-0.2,0-0.2l-0.3-0.1C57.6,35,57.6,35,57.6,34.9z M57.3,34.6h-1.2c0-0.2-0.1-0.4-0.2-0.5
			l0.8-0.9C57.1,33.6,57.3,34.1,57.3,34.6z M55.1,35.5c-0.4,0-0.8-0.3-0.8-0.8c0-0.4,0.3-0.8,0.8-0.8c0.4,0,0.8,0.3,0.8,0.8
			C55.8,35.2,55.5,35.5,55.1,35.5z M56.6,33.1l-0.8,0.9c-0.2-0.2-0.4-0.2-0.5-0.2v-1.2C55.7,32.5,56.3,32.7,56.6,33.1z M55,32.5v1.2
			c-0.2,0-0.4,0.1-0.5,0.2l-0.8-0.9C54,32.7,54.4,32.5,55,32.5z M53.4,33.3l0.8,0.9c-0.2,0.2-0.2,0.4-0.2,0.5h-1.2
			C52.8,34.1,53,33.6,53.4,33.3z M52.8,34.9H54c0,0.2,0.1,0.4,0.2,0.5l-0.8,0.9C53,36,52.8,35.4,52.8,34.9z M53.6,36.4l0.8-0.9
			c0.2,0.2,0.4,0.2,0.5,0.2V37C54.4,37,54,36.8,53.6,36.4z M55.2,37v-1.2c0.2,0,0.4-0.1,0.5-0.2l0.8,0.9C56.3,36.8,55.7,37,55.2,37z
			 M56.8,36.3L56,35.4c0.2-0.2,0.2-0.4,0.2-0.5h1.2C57.3,35.4,57.1,36,56.8,36.3z"/>
		<path class="st0" d="M110.1,52.7L110.1,52.7v-0.2c0,0,0,0,0-0.1v-0.1v-0.2l0.7-0.2c0-0.2,0-0.2,0-0.4h-0.7
			c-0.1-0.3-0.1-0.5-0.2-0.9l0.6-0.4c-0.1-0.2-0.1-0.2-0.2-0.4l-0.7,0.2c-0.2-0.2-0.2-0.5-0.5-0.8l0.5-0.5c-0.1-0.1-0.2-0.2-0.2-0.3
			l-0.6,0.4l-0.1-0.1l0,0l-0.3-0.3l0,0c-0.1-0.1-0.2-0.2-0.2-0.2l0.3-0.6c-0.1-0.1-0.2-0.2-0.3-0.2l-0.5,0.5
			c-0.2-0.2-0.5-0.3-0.8-0.4l0.2-0.7c-0.2-0.1-0.2-0.1-0.4-0.2l-0.3,0.6c-0.3-0.1-0.5-0.2-0.8-0.2l-0.1-0.7c-0.2,0-0.2,0-0.4,0
			l-0.2,0.7h-0.2l0,0c-0.2,0-0.5,0-0.7,0.1l-0.2-0.6c-0.2,0-0.2,0.1-0.4,0.1l0.1,0.7c-0.3,0.1-0.5,0.2-0.8,0.3l-0.5-0.5
			c-0.1,0.1-0.2,0.2-0.3,0.2l0.2,0.6c-0.2,0.2-0.5,0.3-0.6,0.5l0,0l0,0l-0.5-0.4c-0.1,0.1-0.2,0.2-0.2,0.3l0.5,0.5
			c-0.2,0.2-0.4,0.5-0.5,0.7l-0.7-0.2c-0.1,0.1-0.2,0.2-0.2,0.4l0.5,0.4c-0.1,0.2-0.2,0.5-0.3,0.9h-0.7c0,0.2-0.1,0.2-0.1,0.4
			l0.7,0.2c0,0.2,0,0.3,0,0.5l0,0v0.2c0,0,0,0,0,0.1v0.1v0.2l-0.7,0.2c0,0.2,0,0.2,0,0.4h0.7c0.1,0.3,0.1,0.5,0.2,0.9l-0.6,0.4
			c0.1,0.2,0.1,0.2,0.2,0.4l0.7-0.2c0.2,0.2,0.2,0.5,0.5,0.8l-0.5,0.5c0.1,0.1,0.2,0.2,0.2,0.3l0.6-0.4l0.1,0.1l0,0l0.3,0.3l0,0
			c0.1,0.1,0.2,0.2,0.2,0.2l-0.3,0.6c0.1,0.1,0.2,0.2,0.3,0.2l0.5-0.5c0.2,0.2,0.5,0.3,0.8,0.4l-0.2,0.7c0.2,0.1,0.2,0.1,0.4,0.2
			l0.3-0.6c0.3,0.1,0.5,0.2,0.8,0.2l0.1,0.7c0.2,0,0.2,0,0.4,0l0.2-0.7h0.2l0,0c0.2,0,0.5,0,0.7-0.1l0.2,0.6c0.2,0,0.2-0.1,0.4-0.1
			l-0.1-0.7c0.3-0.1,0.5-0.2,0.8-0.3l0.5,0.5c0.1-0.1,0.2-0.2,0.3-0.2l-0.2-0.6c0.2-0.2,0.5-0.3,0.6-0.5l0,0l0,0l0.5,0.4
			c0.1-0.1,0.2-0.2,0.2-0.3l-0.5-0.5c0.2-0.2,0.4-0.5,0.5-0.7l0.7,0.2c0.1-0.1,0.2-0.2,0.2-0.3l-0.5-0.4c0.1-0.2,0.2-0.5,0.3-0.9
			h0.7c0-0.2,0.1-0.2,0.1-0.4l-0.7-0.2C110.1,53,110.1,52.9,110.1,52.7z M109.6,52.2h-2.4c-0.1-0.4-0.2-0.8-0.5-1.1l1.7-1.7
			C109.1,50.1,109.5,51.1,109.6,52.2z M105.1,53.9c-0.8,0-1.5-0.6-1.5-1.5c0-0.8,0.6-1.5,1.5-1.5c0.8,0,1.5,0.6,1.5,1.5
			C106.5,53.2,105.9,53.9,105.1,53.9z M108.1,49.1l-1.7,1.7c-0.3-0.2-0.7-0.4-1.1-0.5v-2.5C106.4,48,107.4,48.4,108.1,49.1z
			 M104.9,47.9v2.5c-0.4,0.1-0.8,0.2-1.1,0.5l-1.7-1.7C102.9,48.4,103.9,48,104.9,47.9z M101.8,49.4l1.7,1.7
			c-0.2,0.3-0.4,0.7-0.5,1.1h-2.4C100.7,51.1,101.1,50.1,101.8,49.4z M100.7,52.7h2.4c0.1,0.4,0.2,0.8,0.5,1.1l-1.7,1.7
			C101.1,54.8,100.7,53.8,100.7,52.7z M102.1,55.8l1.7-1.7c0.3,0.2,0.7,0.4,1.1,0.5V57C103.9,57,102.9,56.5,102.1,55.8z M105.3,57
			v-2.5c0.4-0.1,0.8-0.2,1.1-0.5l1.7,1.7C107.4,56.5,106.4,57,105.3,57z M108.4,55.5l-1.7-1.7c0.2-0.3,0.4-0.7,0.5-1.1h2.4
			C109.5,53.8,109.1,54.8,108.4,55.5z"/>
		<path class="st0" d="M25.9,10.7L25.9,10.7v-0.2c0,0,0,0,0-0.1v-0.1v-0.2l0.6-0.2c0-0.2,0-0.2,0-0.4h-0.7c-0.1-0.3-0.1-0.5-0.2-0.8
			l0.5-0.3c-0.1-0.1-0.1-0.2-0.2-0.3l-0.6,0.2C25.2,8.2,25.2,8,25,7.8l0.5-0.5c-0.1-0.1-0.2-0.2-0.2-0.3l-0.5,0.3c0,0-0.1,0-0.1-0.1
			l0,0l-0.3-0.3l0,0c-0.1-0.1-0.2-0.2-0.2-0.2l0.3-0.6c-0.1-0.1-0.2-0.2-0.3-0.2l-0.5,0.5c-0.2-0.2-0.5-0.2-0.7-0.4l0.2-0.6
			c-0.1-0.1-0.2-0.1-0.3-0.2l-0.3,0.6c-0.2-0.1-0.5-0.2-0.8-0.2l-0.1-0.7c-0.2,0-0.2,0-0.4,0l-0.2,0.6H21l0,0c-0.2,0-0.5,0-0.7,0.1
			L20,5c-0.2,0-0.2,0.1-0.4,0.1l0.1,0.6C19.5,5.8,19.2,5.8,19,6l-0.4-0.5c-0.1,0.1-0.2,0.2-0.3,0.2l0.2,0.6
			c-0.2,0.2-0.4,0.3-0.6,0.5l0,0l0,0l-0.5-0.4c-0.1,0.1-0.2,0.2-0.2,0.2l0.4,0.5c-0.2,0.2-0.3,0.5-0.5,0.7l-0.6-0.2
			c-0.1,0.1-0.2,0.2-0.2,0.3l0.5,0.4c-0.1,0.2-0.2,0.5-0.2,0.8h-0.7c0,0.2-0.1,0.2-0.1,0.4l0.6,0.2c0,0.2,0,0.3,0,0.4l0,0v0.2
			c0,0,0,0,0,0.1v0.1v0.2l-0.6,0.2c0,0.2,0,0.2,0,0.4h0.7c0.1,0.3,0.1,0.5,0.2,0.8l-0.5,0.3c0.1,0.2,0.1,0.2,0.2,0.3l0.6-0.2
			c0.2,0.2,0.2,0.5,0.4,0.7l-0.5,0.5c0.1,0.1,0.2,0.2,0.2,0.3l0.5-0.3c0,0,0.1,0,0.1,0.1l0,0l0.3,0.3l0,0c0.1,0.1,0.2,0.2,0.2,0.2
			l-0.3,0.6c0.1,0.1,0.2,0.2,0.3,0.2l0.5-0.5c0.2,0.2,0.5,0.2,0.7,0.4l-0.2,0.6c0.1,0.1,0.2,0.1,0.3,0.2l0.3-0.6
			c0.2,0.1,0.5,0.2,0.8,0.2l0.1,0.6c0.2,0,0.2,0,0.4,0l0.2-0.6h0.2l0,0c0.2,0,0.5,0,0.7-0.1l0.2,0.6c0.2,0,0.2-0.1,0.4-0.1l-0.1-0.7
			c0.2-0.1,0.5-0.2,0.8-0.3l0.4,0.5C23.8,15,23.9,15,24,15l-0.2-0.6c0.2-0.2,0.4-0.3,0.6-0.5l0,0l0,0l0.5,0.4
			c0.1-0.1,0.2-0.2,0.2-0.2l-0.4-0.5c0.2-0.2,0.3-0.5,0.5-0.7l0.6,0.2c0.1-0.1,0.2-0.2,0.2-0.3l-0.5-0.4c0.1-0.2,0.2-0.5,0.2-0.8
			h0.7c0-0.2,0.1-0.2,0.1-0.4l-0.6-0.2C25.9,11,25.9,10.9,25.9,10.7z M25.5,10.3h-2.3c-0.1-0.4-0.2-0.8-0.5-1.1l1.6-1.6
			C25,8.4,25.4,9.3,25.5,10.3z M21.3,11.9c-0.8,0-1.4-0.6-1.4-1.4s0.6-1.4,1.4-1.4s1.4,0.6,1.4,1.4S21.9,11.9,21.3,11.9z M24.1,7.4
			L22.5,9c-0.3-0.2-0.6-0.4-1.1-0.5V6.2C22.4,6.3,23.4,6.7,24.1,7.4z M21,6.3v2.3c-0.4,0.1-0.8,0.2-1.1,0.5l-1.6-1.6
			C19.1,6.7,20,6.3,21,6.3z M18.1,7.6l1.6,1.6c-0.2,0.3-0.4,0.6-0.5,1.1H17C17.1,9.3,17.4,8.4,18.1,7.6z M17,10.7h2.3
			c0.1,0.4,0.2,0.8,0.5,1.1l-1.6,1.6C17.4,12.7,17.1,11.8,17,10.7z M18.4,13.7L20,12c0.3,0.2,0.6,0.4,1.1,0.5v2.3
			C20,14.7,19.1,14.3,18.4,13.7z M21.4,14.8v-2.3c0.4,0,0.8-0.2,1.1-0.5l1.6,1.6C23.4,14.3,22.4,14.7,21.4,14.8z M24.3,13.4
			l-1.6-1.6c0.2-0.3,0.4-0.6,0.5-1.1h2.3C25.4,11.8,25,12.7,24.3,13.4z"/>
		<path class="st0" d="M90.3,49.8L90.3,49.8v-0.2v-0.1v-0.1v-0.2l0.9-0.2c0-0.2,0-0.3-0.1-0.5l-0.9-0.1c-0.1-0.4-0.2-0.8-0.3-1.1
			l0.8-0.5c-0.1-0.2-0.2-0.3-0.2-0.5l-0.9,0.2c-0.2-0.3-0.4-0.7-0.5-1l0.6-0.7c-0.1-0.2-0.2-0.3-0.3-0.4L88.6,45l-0.1-0.1l0,0
			l-0.4-0.4l0,0c-0.2-0.1-0.2-0.2-0.4-0.3l0.5-0.9c-0.2-0.1-0.3-0.2-0.4-0.3l-0.6,0.7c-0.3-0.2-0.7-0.4-1-0.5l0.2-0.9
			c-0.2-0.1-0.3-0.2-0.5-0.2L85.5,43c-0.4-0.1-0.8-0.2-1.1-0.2l-0.1-0.9c-0.2,0-0.3,0-0.5,0l-0.2,0.9h-0.2l0,0
			c-0.3,0-0.6,0.1-0.9,0.1L82.2,42c-0.2,0-0.3,0.1-0.5,0.2l0.1,0.9c-0.4,0.1-0.7,0.2-1.1,0.5l-0.5-0.8c-0.2,0.1-0.3,0.2-0.5,0.2
			l0.4,0.9c-0.3,0.2-0.6,0.4-0.8,0.7l0,0l-0.1,0.1l-0.8-0.5c-0.2,0.2-0.2,0.2-0.4,0.4l0.6,0.7c-0.2,0.3-0.5,0.6-0.7,0.9l-0.8-0.3
			C77,46,77,46.1,76.9,46.3l0.8,0.5c-0.2,0.3-0.3,0.7-0.4,1.1l-0.9-0.1c0,0.2-0.1,0.3-0.1,0.5l0.8,0.3c0,0.2-0.1,0.4-0.1,0.6l0,0
			v0.2v0.1v0.1v0.2l-0.9,0.2c0,0.2,0,0.3,0.1,0.5l0.9,0.1c0.1,0.4,0.2,0.8,0.3,1.1l-0.8,0.5c0.1,0.2,0.2,0.3,0.2,0.5l0.9-0.2
			c0.2,0.3,0.4,0.7,0.5,1l-0.6,0.7c0.1,0.2,0.2,0.3,0.3,0.4l0.8-0.5l0.1,0.1l0,0l0.4,0.4l0,0c0.2,0.1,0.2,0.2,0.4,0.3l-0.5,0.9
			c0.2,0.1,0.3,0.2,0.4,0.3l0.6-0.7c0.3,0.2,0.7,0.4,1,0.5L81,56.8c0.2,0.1,0.3,0.2,0.5,0.2l0.4-0.9c0.4,0.1,0.8,0.2,1.1,0.2
			l0.1,0.9c0.2,0,0.3,0,0.5,0l0.2-0.9h0.2l0,0c0.3,0,0.6-0.1,0.9-0.1l0.4,0.9c0.2,0,0.3-0.1,0.5-0.2L85.7,56
			c0.4-0.1,0.7-0.2,1.1-0.5l0.5,0.8c0.2-0.1,0.3-0.2,0.5-0.2l-0.4-0.9c0.3-0.2,0.6-0.4,0.8-0.7l0,0l0.1-0.1L89,55
			c0.2-0.2,0.2-0.2,0.4-0.4l-0.6-0.7c0.2-0.3,0.5-0.6,0.7-0.9l0.8,0.3c0.1-0.2,0.2-0.3,0.2-0.5l-0.8-0.5c0.2-0.3,0.3-0.7,0.4-1.1
			l0.9,0.1c0-0.2,0.1-0.3,0.1-0.5l-0.8-0.3C90.3,50.2,90.3,50.1,90.3,49.8z M89.7,49.3h-3.2c-0.1-0.5-0.3-1.1-0.6-1.5l2.3-2.3
			C89,46.5,89.6,47.8,89.7,49.3z M83.7,51.5c-1.1,0-1.9-0.9-1.9-1.9c0-1.1,0.8-1.9,1.9-1.9s1.9,0.9,1.9,1.9
			C85.6,50.7,84.8,51.5,83.7,51.5z M87.7,45.1l-2.3,2.3c-0.4-0.3-0.9-0.5-1.5-0.6v-3.3C85.4,43.6,86.7,44.2,87.7,45.1z M83.5,43.6
			v3.3c-0.5,0.1-1.1,0.3-1.5,0.6l-2.3-2.3C80.7,44.2,82,43.6,83.5,43.6z M79.3,45.5l2.3,2.3c-0.3,0.4-0.5,0.9-0.6,1.5h-3.2
			C77.8,47.8,78.4,46.5,79.3,45.5z M77.7,49.8h3.2c0.1,0.5,0.3,1.1,0.6,1.5l-2.3,2.3C78.4,52.6,77.8,51.3,77.7,49.8z M79.7,54
			l2.3-2.3c0.4,0.3,0.9,0.5,1.5,0.6v3.3C82,55.6,80.7,54.9,79.7,54z M84,55.6v-3.3c0.5-0.1,1.1-0.3,1.5-0.6l2.3,2.3
			C86.7,54.9,85.4,55.6,84,55.6z M88.1,53.6l-2.3-2.3c0.3-0.4,0.5-0.9,0.6-1.5h3.2C89.6,51.3,89,52.6,88.1,53.6z"/>
	</g>
	<path class="st0" d="M36.1,17.8v-4.6c1.9,0.6,3.3,2.4,3.3,4.6l0.8-0.9c-0.4-2.2-2-4-4-4.6V11l-0.9-0.4V12c-0.2,0-0.3,0-0.5,0
		c-0.2,0-0.3,0-0.5,0v-1.1l-0.9-0.4v1.5c-2.4,0.6-4.1,2.9-4.1,5.6c0,2,1,3.8,2.5,4.8h-1.8l-0.7,0.9h9.2l0.7-0.9h-4.8
		C32,22.3,30,20.2,30,17.7c0-2.2,1.4-4,3.3-4.6v4.3l0.9,0.4V13c0.2,0,0.3,0,0.5,0c0.2,0,0.3,0,0.5,0v4.4L36.1,17.8z"/>
	<path class="st0" d="M97.9,43v-2.7c1.1,0.3,2,1.4,2,2.7l0.5-0.5c-0.2-1.3-1.2-2.4-2.4-2.7v-0.7l-0.5-0.2v0.9c-0.1,0-0.2,0-0.3,0
		c-0.1,0-0.2,0-0.3,0v-0.6l-0.5-0.2v0.9c-1.5,0.4-2.5,1.7-2.5,3.3c0,1.2,0.6,2.2,1.5,2.9h-1.1l-0.5,0.5h5.7l0.5-0.5h-3
		c-1.5-0.2-2.6-1.3-2.6-2.9c0-1.3,0.8-2.4,2-2.7v2.5l0.5,0.2v-2.8c0.1,0,0.2,0,0.3,0c0.1,0,0.2,0,0.3,0v2.6L97.9,43z"/>
	<path class="st0" d="M24.5,18.6L24.5,18.6L24.5,18.6C24.5,18.5,24.5,18.5,24.5,18.6L24.5,18.6v-0.2l0.3-0.1c0-0.1,0-0.1,0-0.2h-0.3
		c0-0.1-0.1-0.2-0.1-0.3l0.2-0.2c0-0.1,0-0.1-0.1-0.2l-0.3,0.1c-0.1-0.1-0.1-0.2-0.2-0.3l0.2-0.2c0-0.1-0.1-0.1-0.1-0.2L24,17.1l0,0
		l0,0L23.9,17l0,0l-0.1-0.1l0.2-0.2c-0.1,0-0.1-0.1-0.2-0.1l-0.2,0.2c-0.1-0.1-0.2-0.1-0.3-0.2l0.1-0.3c-0.1,0-0.1,0-0.2-0.1
		l-0.2,0.2c-0.1,0-0.2-0.1-0.3-0.1v-0.3c-0.1,0-0.1,0-0.2,0l-0.1,0.3h-0.1l0,0c-0.1,0-0.2,0-0.3,0l-0.1-0.2c-0.1,0-0.1,0-0.2,0v0.3
		c-0.1,0-0.2,0.1-0.3,0.2l-0.2-0.2c-0.1,0-0.1,0.1-0.2,0.1l0.1,0.2c-0.1,0.1-0.2,0.2-0.2,0.2l0,0l0,0L21,16.8l-0.1,0.1l0.2,0.2
		c-0.1,0.1-0.2,0.2-0.2,0.3l-0.2-0.1c0,0.1-0.1,0.1-0.1,0.2l0.2,0.2c-0.1,0.1-0.1,0.2-0.1,0.3h-0.3c0,0.1,0,0.1,0,0.2l0.2,0.1
		c0,0.1,0,0.2,0,0.2l0,0v0.1l0,0l0,0v0.1l-0.3,0.1c0,0.1,0,0.1,0,0.2h0.3c0,0.2,0.1,0.2,0.1,0.3l-0.2,0.2c0,0.1,0,0.1,0.1,0.2
		l0.3-0.1c0.1,0.1,0.1,0.2,0.2,0.3l-0.2,0.2c0,0.1,0.1,0.1,0.1,0.2l0.2-0.2l0,0l0,0l0.2,0.2l0,0l0.1,0.1l-0.2,0.2
		c0.1,0,0.1,0.1,0.2,0.1l0.2-0.2c0.1,0.1,0.2,0.1,0.3,0.2l-0.1,0.3c0.1,0,0.1,0,0.2,0.1l0.2-0.2c0.1,0,0.2,0.1,0.3,0.1v0.3
		c0.1,0,0.1,0,0.2,0l0.1-0.3h0.1l0,0c0.1,0,0.2,0,0.3,0l0.1,0.2c0.1,0,0.1,0,0.2-0.1v-0.3c0.1,0,0.2-0.1,0.3-0.2l0.2,0.2
		c0.1,0,0.1-0.1,0.2-0.1l-0.1-0.2c0.1-0.1,0.2-0.2,0.2-0.2l0,0l0,0l0.2,0.2l0.1-0.1L24,19.8c0.1-0.1,0.2-0.2,0.2-0.3l0.2,0.1
		c0-0.1,0.1-0.1,0.1-0.2l-0.2-0.2c0.1-0.1,0.1-0.2,0.1-0.3h0.3c0-0.1,0-0.1,0-0.2L24.5,18.6C24.5,18.8,24.5,18.7,24.5,18.6z
		 M24.2,18.5h-1c0-0.2-0.1-0.3-0.2-0.5l0.7-0.7C24,17.6,24.2,18,24.2,18.5z M22.4,19.1c-0.3,0-0.6-0.2-0.6-0.6
		c0-0.3,0.2-0.6,0.6-0.6c0.3,0,0.6,0.2,0.6,0.6C23,18.8,22.7,19.1,22.4,19.1z M23.6,17.2l-0.7,0.7c-0.2-0.1-0.3-0.2-0.5-0.2v-1
		C22.9,16.8,23.3,16.9,23.6,17.2z M22.3,16.7v1c-0.2,0-0.3,0.1-0.5,0.2l-0.7-0.7C21.5,16.9,21.9,16.8,22.3,16.7z M21.1,17.3l0.7,0.7
		c-0.1,0.2-0.2,0.3-0.2,0.5h-1C20.6,18,20.8,17.6,21.1,17.3z M20.6,18.6h1c0,0.2,0.1,0.3,0.2,0.5l-0.7,0.7
		C20.8,19.5,20.6,19.1,20.6,18.6z M21.2,19.8l0.7-0.7c0.2,0.1,0.3,0.2,0.5,0.2v1C21.9,20.3,21.5,20.2,21.2,19.8z M22.5,20.3v-0.9
		c0.2,0,0.3-0.1,0.5-0.2l0.7,0.7C23.3,20.2,22.9,20.3,22.5,20.3z M23.8,19.8l-0.7-0.7c0.1-0.2,0.2-0.3,0.2-0.5h1
		C24.2,19.1,24,19.5,23.8,19.8z"/>
	<path class="st0" d="M99.1,52.2L99.1,52.2L99.1,52.2C99.1,52.2,99.1,52.2,99.1,52.2L99.1,52.2v-0.2l0.2-0.1c0-0.1,0-0.1,0-0.2H99
		c0-0.1-0.1-0.2-0.1-0.3l0.2-0.2c0-0.1,0-0.1-0.1-0.2l-0.2,0.1c-0.1-0.1-0.1-0.2-0.2-0.3l0.2-0.2c0-0.1-0.1-0.1-0.1-0.2l-0.2,0.2
		l0,0l0,0l-0.2-0.1l0,0l-0.1-0.1l0.2-0.2c-0.1,0-0.1-0.1-0.2-0.1l-0.2,0.2c-0.1-0.1-0.2-0.1-0.3-0.2l0.1-0.3c-0.1,0-0.1,0-0.2-0.1
		l-0.2,0.2c-0.1,0-0.2-0.1-0.3-0.1v-0.3c-0.1,0-0.1,0-0.2,0l-0.1,0.3h-0.1l0,0c-0.1,0-0.2,0-0.3,0l-0.1-0.2c-0.1,0-0.1,0-0.2,0v0.3
		c-0.1,0-0.2,0.1-0.3,0.2l-0.2-0.2c-0.1,0-0.1,0.1-0.2,0.1l0.1,0.2c-0.1,0.1-0.2,0.2-0.2,0.2l0,0l0,0l-0.2-0.2l-0.1,0.1l0.2,0.2
		c-0.1,0.1-0.2,0.2-0.2,0.3l-0.2-0.1c0,0.1-0.1,0.1-0.1,0.2l0.2,0.2c-0.1,0.1-0.1,0.2-0.1,0.3h-0.3c0,0.1,0,0.1,0,0.2l0.2,0.1
		c0,0.1,0,0.2,0,0.2l0,0v0.1l0,0l0,0v0.1l-0.2,0.1c0,0.1,0,0.1,0,0.2h0.3c0,0.1,0.1,0.2,0.1,0.3l-0.2,0.2c0,0.1,0,0.1,0.1,0.2
		l0.2-0.1c0.1,0.1,0.1,0.2,0.2,0.3l-0.2,0.2c0,0.1,0.1,0.1,0.1,0.2l0.2-0.2l0,0l0,0l0.1,0.2l0,0l0.1,0.1L95.7,54
		c0.1,0,0.1,0.1,0.2,0.1l0.2-0.2c0.1,0.1,0.2,0.1,0.3,0.2l-0.1,0.3c0.1,0,0.1,0,0.2,0.1l0.2-0.2c0.1,0,0.2,0.1,0.3,0.1v0.3
		c0.1,0,0.1,0,0.2,0l0.1-0.3h0.1l0,0c0.1,0,0.2,0,0.3,0l0.1,0.2c0.1,0,0.1,0,0.2,0v-0.3c0.1,0,0.2-0.1,0.3-0.2l0.2,0.2
		c0.1,0,0.1-0.1,0.2-0.1l-0.1-0.2c0.1-0.1,0.2-0.2,0.2-0.2l0,0l0,0l0.2,0.2l0.1-0.1l-0.2-0.2c0.1-0.1,0.2-0.2,0.2-0.3l0.2,0.1
		c0-0.1,0.1-0.1,0.1-0.2L98.9,53c0.1-0.1,0.1-0.2,0.1-0.3h0.3c0-0.1,0-0.1,0-0.2L99,52.5C99.1,52.4,99.1,52.3,99.1,52.2z M98.9,52.1
		H98c0-0.2-0.1-0.3-0.2-0.5l0.7-0.7C98.7,51.3,98.9,51.7,98.9,52.1z M97.1,52.8c-0.3,0-0.5-0.2-0.5-0.5c0-0.3,0.2-0.5,0.5-0.5
		c0.3,0,0.5,0.2,0.5,0.5C97.8,52.5,97.4,52.8,97.1,52.8z M98.4,50.8l-0.7,0.7c-0.2-0.1-0.3-0.2-0.5-0.2v-1
		C97.7,50.4,98.1,50.6,98.4,50.8z M97.1,50.4v1c-0.2,0-0.3,0.1-0.5,0.2l-0.7-0.7C96.2,50.6,96.7,50.4,97.1,50.4z M95.8,51l0.7,0.7
		c-0.1,0.2-0.2,0.3-0.2,0.5h-0.9C95.4,51.7,95.6,51.3,95.8,51z M95.4,52.2h0.9c0,0.2,0.1,0.3,0.2,0.5l-0.7,0.7
		C95.6,53.1,95.4,52.7,95.4,52.2z M96,53.5l0.7-0.7c0.2,0.1,0.3,0.2,0.5,0.2v0.9C96.7,53.9,96.2,53.8,96,53.5z M97.2,53.9V53
		c0.2,0,0.3-0.1,0.5-0.2l0.7,0.7C98.1,53.8,97.7,53.9,97.2,53.9z M98.4,53.4l-0.7-0.7c0.1-0.2,0.2-0.3,0.2-0.5h0.9
		C98.9,52.7,98.7,53.1,98.4,53.4z"/>
	<path class="st0" d="M45.2,19.4c0-0.2,0.1-0.5,0.1-0.7L44,18.4c0-0.3,0-0.5,0-0.9l0,0v-0.3v-0.1c0-0.1,0-0.1,0-0.2v-0.2l1.2-0.4
		c0-0.2-0.1-0.5-0.2-0.7l-1.3,0.1c-0.2-0.5-0.3-1-0.5-1.5l1.1-0.8c-0.1-0.2-0.2-0.5-0.3-0.6l-1.2,0.4c-0.2-0.5-0.5-0.9-0.9-1.3
		l0.8-1c-0.2-0.2-0.3-0.4-0.5-0.5l-1,0.8c0,0-0.1-0.1-0.2-0.1l0,0l-0.6-0.5l0,0c-0.2-0.2-0.4-0.2-0.5-0.4l0.5-1.2
		c-0.2-0.2-0.4-0.2-0.6-0.4l-0.8,1c-0.5-0.2-0.9-0.5-1.5-0.6l0.2-1.3c-0.2-0.1-0.5-0.2-0.7-0.2l-0.5,1.2c-0.5-0.1-1-0.2-1.5-0.2
		l-0.2-1.2c-0.2,0-0.5,0-0.7,0l-0.2,1.3h-0.2l0,0c-0.5,0.1-0.8,0.2-1.3,0.2l-0.6-1.2c-0.2,0.1-0.5,0.2-0.7,0.2l0.2,1.2
		c-0.5,0.2-0.9,0.5-1.4,0.7L29.1,9c-0.2,0.2-0.4,0.3-0.5,0.4l0.6,1.2c-0.4,0.3-0.8,0.6-1.1,1l0,0l-0.1,0.1L27,11
		c-0.2,0.2-0.3,0.4-0.5,0.5l0.8,0.9c-0.3,0.5-0.5,0.9-0.8,1.4l-1.2-0.3c-0.1,0.2-0.2,0.5-0.2,0.7l1.1,0.6c-0.2,0.5-0.3,1-0.4,1.5
		l-1.3,0.1c0,0.2-0.1,0.5-0.1,0.7l1.2,0.3c0,0.3,0,0.5,0,0.9l0,0v0.3v0.1c0,0.1,0,0.1,0,0.2v0.2l-1.2,0.4c0,0.2,0.1,0.5,0.2,0.7
		l1.3-0.1c0.2,0.5,0.3,1,0.5,1.5l-1.1,0.8c0.1,0.2,0.2,0.5,0.3,0.6l1.2-0.4c0.2,0.5,0.5,0.9,0.9,1.3l-0.8,1c0.2,0.2,0.3,0.4,0.5,0.5
		l1-0.8c0.1,0,0.1,0.1,0.2,0.1l0,0l0.6,0.5l0,0c0.2,0.2,0.4,0.2,0.5,0.4l-0.5,1.2c0.2,0.2,0.4,0.2,0.6,0.4l0.8-1
		c0.5,0.2,0.9,0.5,1.5,0.6L32,28.1c0.2,0.1,0.5,0.2,0.7,0.2l0.5-1.2c0.5,0.1,1,0.2,1.5,0.2l0.2,1.2c0.2,0,0.5,0,0.7,0l0.2-1.3H36
		l0,0c0.5-0.1,0.8-0.2,1.3-0.2l0.6,1.2c0.2-0.1,0.5-0.2,0.7-0.2l-0.2-1.2c0.5-0.2,0.9-0.5,1.4-0.7l0.8,0.9c0.2-0.2,0.4-0.3,0.6-0.4
		l-0.6-1.2c0.4-0.3,0.8-0.6,1.1-1l0,0l0.1-0.1l1.1,0.6c0.2-0.2,0.3-0.4,0.5-0.5l-0.8-0.9c0.3-0.5,0.5-0.9,0.8-1.4l1.2,0.3
		c0.1-0.2,0.2-0.5,0.2-0.7L43.6,21c0.2-0.5,0.3-1,0.4-1.5L45.2,19.4z M35,26.4c-4.5,0.1-8.3-3.6-8.3-8.1c-0.1-4.6,3.5-8.4,8-8.4
		c4.5-0.1,8.3,3.6,8.3,8.1S39.5,26.3,35,26.4z"/>
	<path class="st0" d="M87.7,29.8L87.7,29.8l-0.1-0.3v-0.1v-0.1l-0.1-0.2l1.1-0.5c-0.1-0.2-0.2-0.5-0.2-0.6l-1.2,0.2
		c-0.2-0.5-0.4-0.9-0.6-1.4l0.9-0.8c-0.1-0.2-0.2-0.4-0.4-0.5L86.1,26c-0.3-0.4-0.6-0.8-1-1.2l0.7-1c-0.2-0.2-0.3-0.3-0.5-0.5
		l-0.9,0.8c-0.1,0-0.1-0.1-0.2-0.1l0,0l-0.6-0.4l0,0c-0.2-0.1-0.4-0.2-0.5-0.3l0.4-1.2c-0.2-0.1-0.4-0.2-0.6-0.3l-0.7,1
		c-0.5-0.2-0.9-0.3-1.5-0.4v-1.2c-0.2-0.1-0.5-0.1-0.7-0.1l-0.4,1.2c-0.5-0.1-1-0.1-1.5,0l-0.3-1.2c-0.2,0-0.5,0.1-0.7,0.1v1.2
		l-0.2,0.1l0,0c-0.4,0.1-0.8,0.2-1.2,0.4l-0.7-1c-0.2,0.1-0.5,0.2-0.6,0.3l0.3,1.2c-0.5,0.2-0.8,0.5-1.3,0.8l-0.9-0.8
		c-0.2,0.2-0.4,0.3-0.5,0.5l0.7,1c-0.4,0.3-0.7,0.7-0.9,1.1l0,0L71.5,26l-1.1-0.5c-0.2,0.2-0.2,0.4-0.4,0.5l0.9,0.8
		c-0.2,0.5-0.5,0.9-0.6,1.4l-1.2-0.2c-0.1,0.2-0.2,0.5-0.2,0.6l1.1,0.5c-0.2,0.5-0.2,1-0.2,1.5l-1.2,0.2c0,0.2,0,0.5,0,0.7l1.2,0.2
		c0,0.2,0.1,0.5,0.1,0.8l0,0l0.1,0.3v0.1v0.1l0.1,0.2l-1.1,0.5c0.1,0.2,0.2,0.5,0.2,0.6l1.2-0.2c0.2,0.5,0.4,0.9,0.6,1.4l-0.9,0.8
		c0.2,0.2,0.2,0.4,0.4,0.5l1.1-0.5c0.3,0.4,0.6,0.8,1,1.2l-0.7,1c0.2,0.2,0.3,0.3,0.5,0.5l0.9-0.8c0.1,0,0.1,0.1,0.2,0.1l0,0
		l0.6,0.4l0,0c0.2,0.1,0.4,0.2,0.5,0.3l-0.4,1.2c0.2,0.1,0.4,0.2,0.6,0.3l0.7-1c0.5,0.2,0.9,0.3,1.5,0.4V41c0.2,0.1,0.5,0.1,0.7,0.1
		l0.4-1.2c0.5,0.1,1,0.1,1.5,0l0.3,1.2c0.2,0,0.5-0.1,0.7-0.1v-1.2l0.2-0.1l0,0c0.4-0.1,0.8-0.2,1.2-0.4l0.7,1
		c0.2-0.1,0.5-0.2,0.6-0.3l-0.3-1.2c0.5-0.2,0.8-0.5,1.3-0.8l0.9,0.8c0.2-0.2,0.4-0.3,0.5-0.5l-0.7-1c0.4-0.3,0.7-0.7,0.9-1.1l0,0
		l0.1-0.1l1.1,0.5c0.2-0.2,0.2-0.4,0.4-0.5l-0.9-0.8c0.2-0.5,0.5-0.9,0.6-1.4l1.2,0.2c0.1-0.2,0.2-0.5,0.2-0.6L87.5,33
		c0.2-0.5,0.2-1,0.2-1.5l1.2-0.2c0-0.2,0-0.5,0-0.7l-1.2-0.2C87.7,30.2,87.7,30,87.7,29.8z M86.6,29.2L82.4,30
		c-0.2-0.7-0.6-1.3-1.1-1.8l2.4-3.5C85.1,25.8,86.1,27.4,86.6,29.2z M79.3,33.5c-1.4,0.2-2.8-0.6-3-2c-0.2-1.4,0.7-2.7,2.1-2.9
		c1.4-0.2,2.8,0.6,3,2C81.6,31.9,80.7,33.3,79.3,33.5z M83.1,24.3l-2.4,3.5c-0.6-0.3-1.3-0.5-2.1-0.5l-0.8-4.2
		C79.7,22.9,81.6,23.4,83.1,24.3z M77.1,23.3l0.8,4.2c-0.7,0.2-1.3,0.6-1.8,1.2l-3.5-2.4C73.6,24.9,75.2,23.8,77.1,23.3z M72.2,26.9
		l3.5,2.4c-0.3,0.6-0.5,1.3-0.5,2L71,32.1C70.7,30.2,71.2,28.4,72.2,26.9z M71.1,32.9l4.2-0.8c0.2,0.7,0.6,1.3,1.1,1.8L74,37.4
		C72.6,36.3,71.5,34.6,71.1,32.9z M74.6,37.7l2.4-3.5c0.6,0.3,1.3,0.5,2.1,0.5l0.8,4.2C78,39.1,76.1,38.7,74.6,37.7z M80.6,38.7
		l-0.8-4.2c0.7-0.2,1.3-0.6,1.8-1.2l3.5,2.4C84.1,37.2,82.5,38.2,80.6,38.7z M85.5,35.2L82,32.8c0.3-0.6,0.5-1.3,0.5-2l4.2-0.8
		C87,31.8,86.5,33.6,85.5,35.2z"/>
	<path class="st0" d="M51.7,39.4L51.7,39.4v-0.3v-0.1c0-0.1,0-0.1,0-0.2v-0.3l1.4-0.5C53,37.9,53,37.6,53,37.4l-1.5,0.1
		c-0.2-0.6-0.3-1.2-0.5-1.7l1.2-0.9c-0.1-0.2-0.2-0.5-0.4-0.7l-1.4,0.5c-0.3-0.5-0.6-1-1-1.5l0.9-1.2c-0.2-0.2-0.4-0.4-0.5-0.6
		l-1.2,0.9c-0.1-0.1-0.1-0.1-0.2-0.2l0,0l-0.7-0.5l0,0c-0.2-0.2-0.4-0.3-0.6-0.5l0.5-1.3c-0.2-0.2-0.5-0.3-0.7-0.4l-0.9,1.2
		c-0.5-0.3-1.1-0.5-1.7-0.7l0.2-1.5c-0.2-0.1-0.5-0.2-0.8-0.2l-0.5,1.3c-0.6-0.1-1.1-0.2-1.8-0.2l-0.3-1.3c-0.3,0-0.5,0-0.8,0
		l-0.2,1.5h-0.3l0,0c-0.5,0.1-1,0.2-1.5,0.3l-0.6-1.3c-0.2,0.1-0.5,0.2-0.8,0.2l0.2,1.4c-0.5,0.2-1.1,0.5-1.6,0.8l-1-1.1
		c-0.2,0.2-0.5,0.3-0.7,0.5l0.7,1.3c-0.5,0.3-0.8,0.7-1.2,1.2l0,0l-0.1,0.1l-1.2-0.8c-0.2,0.2-0.4,0.4-0.5,0.6l1,1.1
		c-0.4,0.5-0.7,1-0.9,1.5l-1.5-0.4C30.2,35,30,35.3,30,35.6l1.2,0.8c-0.2,0.5-0.4,1.2-0.5,1.7l-1.5,0.1c-0.1,0.2-0.1,0.5-0.1,0.8
		l1.5,0.4c0,0.3,0,0.6,0,0.9l0,0v0.3v0.1c0,0.1,0,0.1,0,0.2v0.3l-1.4,0.5c0,0.2,0.1,0.5,0.2,0.8l1.5-0.1c0.2,0.6,0.3,1.2,0.5,1.7
		l-1.2,0.9c0.1,0.2,0.2,0.5,0.4,0.7L32,45c0.3,0.5,0.6,1,1,1.5L32,47.7c0.2,0.2,0.4,0.4,0.5,0.6l1.2-0.9c0.1,0.1,0.1,0.1,0.2,0.2
		l0,0l0.7,0.5l0,0c0.2,0.2,0.4,0.3,0.6,0.5l-0.5,1.3c0.2,0.2,0.5,0.3,0.7,0.4l0.9-1.2c0.5,0.3,1.1,0.5,1.7,0.7l-0.2,1.5
		c0.2,0.1,0.5,0.2,0.8,0.2l0.5-1.3c0.6,0.1,1.1,0.2,1.8,0.2l0.2,1.4c0.3,0,0.5,0,0.8,0l0.2-1.5h0.3l0,0c0.5-0.1,1-0.2,1.5-0.3
		l0.6,1.3c0.2-0.1,0.5-0.2,0.8-0.2L45,49.6c0.5-0.2,1.1-0.5,1.6-0.8l1,1.1c0.2-0.2,0.5-0.3,0.7-0.5l-0.7-1.3
		c0.5-0.3,0.8-0.7,1.2-1.2l0,0l0.1-0.1l1.2,0.8c0.2-0.2,0.4-0.4,0.5-0.6l-1-1.1c0.4-0.5,0.7-1,0.9-1.5l1.5,0.4
		c0.1-0.2,0.2-0.5,0.3-0.8l-1.2-0.8c0.2-0.5,0.4-1.2,0.5-1.7l1.5-0.1c0.1-0.2,0.1-0.5,0.1-0.8l-1.5-0.4
		C51.7,40.1,51.7,39.8,51.7,39.4z M50.5,38.7l-5.1,0.4c-0.2-0.9-0.5-1.6-1.1-2.2l3.4-3.9C49.2,34.4,50.2,36.4,50.5,38.7z M41.4,42.9
		c-1.7,0.2-3.1-1.1-3.3-2.8C38,38.4,39.3,37,41,36.8s3.1,1.1,3.3,2.8C44.3,41.2,43,42.7,41.4,42.9z M47,32.4l-3.4,3.9
		c-0.7-0.5-1.5-0.8-2.4-0.8l-0.4-5C43.2,30.4,45.3,31.2,47,32.4z M40.1,30.5l0.4,5c-0.8,0.2-1.6,0.5-2.2,1.2l-3.9-3.3
		C35.8,31.9,37.8,30.8,40.1,30.5z M33.8,34.1l3.9,3.3c-0.5,0.7-0.8,1.5-0.8,2.4l-5.1,0.4C31.7,37.9,32.4,35.7,33.8,34.1z M31.8,41
		l5.1-0.4c0.2,0.9,0.5,1.6,1.1,2.2l-3.4,3.9C33.2,45.2,32.1,43.2,31.8,41z M35.4,47.2l3.4-3.9c0.7,0.5,1.5,0.8,2.4,0.8l0.4,5
		C39.1,49.3,37.1,48.5,35.4,47.2z M42.3,49.1l-0.4-5c0.8-0.2,1.6-0.5,2.2-1.2l3.9,3.3C46.6,47.7,44.6,48.8,42.3,49.1z M48.6,45.6
		l-3.9-3.3c0.5-0.7,0.8-1.5,0.8-2.4l5.1-0.4C50.7,41.8,49.9,43.9,48.6,45.6z"/>
	<path class="st0" d="M102.9,44.6c0-0.2,0.1-0.3,0.1-0.4l-0.7-0.2c0-0.2,0-0.3,0-0.5l0,0v-0.2c0,0,0,0,0-0.1v-0.1V43l0.8-0.2
		c0-0.2,0-0.3-0.1-0.4h-0.8c-0.1-0.3-0.2-0.6-0.2-0.9l0.7-0.4c-0.1-0.2-0.1-0.2-0.2-0.4l-0.8,0.2c-0.2-0.3-0.3-0.5-0.5-0.8l0.5-0.5
		c-0.1-0.1-0.2-0.2-0.2-0.3l-0.7,0.4l-0.1-0.1l0,0l-0.3-0.3l0,0c-0.1-0.1-0.2-0.2-0.3-0.2l0.3-0.7c-0.1-0.1-0.2-0.2-0.4-0.2
		l-0.5,0.5c-0.2-0.2-0.5-0.3-0.8-0.4l0.2-0.8c-0.2-0.1-0.2-0.1-0.4-0.2l-0.3,0.7c-0.3-0.1-0.6-0.2-0.9-0.2l-0.1-0.8
		c-0.2,0-0.3,0-0.4,0l-0.2,0.8h-0.2l0,0c-0.2,0-0.5,0.1-0.8,0.1l-0.3-0.7c-0.2,0-0.3,0.1-0.4,0.1l0.1,0.8c-0.3,0.1-0.6,0.2-0.8,0.4
		l-0.5-0.6c-0.2,0.1-0.2,0.2-0.4,0.2l0.3,0.7c-0.2,0.2-0.5,0.4-0.7,0.5l0,0l0,0l-0.6-0.5c-0.1,0.1-0.2,0.2-0.3,0.3l0.5,0.6
		c-0.2,0.2-0.4,0.5-0.5,0.8l-0.7-0.2c-0.1,0.2-0.2,0.2-0.2,0.4l0.6,0.5c-0.2,0.3-0.2,0.6-0.3,0.9h-0.8c0,0.2-0.1,0.3-0.1,0.4
		l0.7,0.2c0,0.2,0,0.3,0,0.5l0,0v0.2c0,0,0,0,0,0.1v0.1v0.2l-0.8,0.2c0,0.2,0,0.3,0.1,0.4h0.8c0.1,0.3,0.2,0.6,0.2,0.9l-0.7,0.4
		c0.1,0.2,0.1,0.2,0.2,0.4l0.8-0.2c0.2,0.3,0.3,0.5,0.5,0.8L91.9,47c0.1,0.1,0.2,0.2,0.2,0.3l0.6-0.4l0.1,0.1l0,0l0.3,0.3l0,0
		c0.1,0.1,0.2,0.2,0.3,0.2l-0.3,0.7c0.1,0.1,0.2,0.2,0.4,0.2l0.5-0.5c0.2,0.2,0.5,0.3,0.8,0.4l-0.2,0.8c0.2,0.1,0.2,0.1,0.4,0.2
		l0.3-0.7c0.3,0.1,0.6,0.2,0.9,0.2l0.1,0.8c0.2,0,0.3,0,0.4,0l0.2-0.8h0.2l0,0c0.2,0,0.5-0.1,0.8-0.1l0.3,0.7c0.2,0,0.3-0.1,0.4-0.1
		l-0.1-0.8c0.3-0.1,0.6-0.2,0.8-0.4l0.5,0.6c0.2-0.1,0.2-0.2,0.4-0.2l-0.3-0.7c0.2-0.2,0.5-0.4,0.7-0.5l0,0l0,0l0.6,0.5
		c0.1-0.1,0.2-0.2,0.3-0.3l-0.5-0.6c0.2-0.2,0.4-0.5,0.5-0.8l0.7,0.2c0.1-0.2,0.2-0.2,0.2-0.4l-0.6-0.5c0.2-0.3,0.2-0.6,0.3-0.9
		L102.9,44.6z M96.6,48.1c-2.7-0.2-4.7-2.6-4.5-5.3c0.2-2.7,2.5-4.8,5.2-4.6c2.7,0.2,4.7,2.6,4.5,5.3
		C101.6,46.3,99.3,48.4,96.6,48.1z"/>
	<g>
		<g>
			<path class="st0" d="M32,73.5c0,0.1,0,0.2,0,0.2c0,0.1,0,0.1,0,0.1s0,0.1-0.1,0.1c0,0,0,0-0.1,0h-2.3c-0.1,0-0.2,0-0.2-0.1
				c-0.1-0.1-0.1-0.2-0.1-0.2v-4c0-0.1,0-0.2,0.1-0.2c0.1-0.1,0.2-0.1,0.2-0.1h2.2h0.1c0,0,0,0,0.1,0.1v0.1c0,0.1,0,0.1,0,0.2
				c0,0.1,0,0.2,0,0.2c0,0.1,0,0.1,0,0.1s0,0.1-0.1,0.1c0,0,0,0-0.1,0h-1.6v1.1h1.4h0.1c0,0,0,0,0.1,0.1v0.1c0,0.1,0,0.1,0,0.2
				c0,0.1,0,0.2,0,0.2c0,0.1,0,0.1,0,0.1s0,0.1-0.1,0.1c0,0,0,0-0.1,0h-1.4v1.3h1.6h0.1c0,0,0,0,0.1,0.1V73C32,73.4,32,73.5,32,73.5
				z"/>
			<path class="st0" d="M36.5,73.5c0,0.1,0,0.1,0,0.2c0,0.1-0.1,0.1-0.1,0.1l-0.1,0.1c-0.1,0-0.1,0-0.2,0h-0.4c-0.1,0-0.2,0-0.2,0
				c-0.1,0-0.1-0.1-0.2-0.1c-0.1-0.1-0.1-0.1-0.2-0.2c-0.1-0.1-0.1-0.2-0.2-0.3l-1.1-2.2c-0.1-0.2-0.2-0.2-0.2-0.4
				c-0.1-0.2-0.2-0.3-0.2-0.5l0,0c0,0.2,0,0.3,0,0.5c0,0.2,0,0.3,0,0.5v2.4v0.1c0,0,0,0-0.1,0.1c0,0-0.1,0-0.2,0c-0.1,0-0.2,0-0.2,0
				c-0.1,0-0.2,0-0.2,0c-0.1,0-0.1,0-0.2,0c0,0-0.1,0-0.1-0.1v-0.1v-4.1c0-0.1,0-0.2,0.1-0.2c0.1-0.1,0.2-0.1,0.2-0.1h0.5
				c0.1,0,0.2,0,0.2,0c0.1,0,0.1,0.1,0.2,0.1s0.1,0.1,0.2,0.2c0.1,0.1,0.1,0.2,0.2,0.2l0.8,1.7c0.1,0.1,0.1,0.2,0.2,0.3
				c0.1,0.1,0.1,0.2,0.2,0.3c0.1,0.1,0.1,0.2,0.2,0.3c0.1,0.1,0.1,0.2,0.2,0.3l0,0c0-0.2,0-0.3,0-0.5c0-0.2,0-0.3,0-0.5v-2.2v-0.1
				c0,0,0,0,0.1-0.1c0,0,0.1,0,0.2,0c0.1,0,0.2,0,0.2,0c0.1,0,0.2,0,0.2,0c0.1,0,0.1,0,0.2,0c0,0,0.1,0,0.1,0.1v0.1L36.5,73.5
				L36.5,73.5z"/>
			<path class="st0" d="M40.4,69.7c0,0.1,0,0.2,0,0.2c0,0.1,0,0.1,0,0.2c0,0,0,0.1-0.1,0.1c0,0,0,0-0.1,0h-1.1v3.6v0.1
				c0,0-0.1,0-0.1,0.1c0,0-0.1,0-0.2,0s-0.2,0-0.2,0c-0.1,0-0.2,0-0.2,0c-0.1,0-0.1,0-0.2,0c0,0-0.1,0-0.1-0.1v-0.1V70h-1.1H37
				c0,0,0,0-0.1-0.1c0,0,0-0.1,0-0.2c0-0.1,0-0.1,0-0.2c0-0.1,0-0.2,0-0.2c0-0.1,0-0.1,0-0.2c0,0,0-0.1,0.1-0.1c0,0,0,0,0.1,0h3.1
				h0.1c0,0,0,0,0.1,0.1c0,0,0,0.1,0,0.2C40.4,69.6,40.4,69.6,40.4,69.7z"/>
			<path class="st0" d="M43.6,73.5c0,0.1,0,0.2,0,0.2c0,0.1,0,0.1,0,0.1s0,0.1-0.1,0.1c0,0,0,0-0.1,0h-2.3c-0.1,0-0.2,0-0.2-0.1
				c-0.1-0.1-0.1-0.2-0.1-0.2v-4c0-0.1,0-0.2,0.1-0.2c0.1-0.1,0.2-0.1,0.2-0.1h2.2h0.1c0,0,0,0,0.1,0.1v0.1c0,0.1,0,0.1,0,0.2
				c0,0.1,0,0.2,0,0.2c0,0.1,0,0.1,0,0.1s0,0.1-0.1,0.1c0,0,0,0-0.1,0h-1.6v1.1h1.4h0.1c0,0,0,0,0.1,0.1v0.1c0,0.1,0,0.1,0,0.2
				c0,0.1,0,0.2,0,0.2c0,0.1,0,0.1,0,0.1s0,0.1-0.1,0.1c0,0,0,0-0.1,0h-1.4v1.3h1.6h0.1c0,0,0,0,0.1,0.1V73
				C43.6,73.4,43.6,73.5,43.6,73.5z"/>
			<path class="st0" d="M47.8,73.8L47.8,73.8C47.8,73.8,47.7,73.8,47.8,73.8c-0.1,0.1-0.2,0.1-0.2,0.1s-0.2,0-0.3,0
				c-0.1,0-0.2,0-0.2,0c-0.1,0-0.1,0-0.2,0c0,0-0.1,0-0.1-0.1v-0.1l-0.4-1c-0.1-0.1-0.1-0.2-0.2-0.3c-0.1-0.1-0.1-0.2-0.2-0.2
				c-0.1-0.1-0.2-0.1-0.2-0.2c-0.1,0-0.2-0.1-0.2-0.1h-0.3v1.7v0.1c0,0-0.1,0-0.1,0.1c0,0-0.1,0-0.2,0c-0.1,0-0.2,0-0.2,0
				c-0.1,0-0.2,0-0.2,0c-0.1,0-0.1,0-0.2,0c0,0-0.1,0-0.1-0.1v-0.1v-4.1c0-0.1,0-0.2,0.1-0.2c0.1-0.1,0.2-0.1,0.2-0.1h1.1
				c0.2,0,0.2,0,0.3,0c0.1,0,0.2,0,0.2,0c0.2,0,0.3,0.1,0.5,0.2c0.2,0.1,0.3,0.2,0.4,0.2c0.1,0.1,0.2,0.2,0.2,0.4
				c0.1,0.2,0.1,0.3,0.1,0.5s0,0.3-0.1,0.4c0,0.2-0.1,0.2-0.2,0.3c-0.1,0.1-0.2,0.2-0.3,0.2c-0.1,0.1-0.2,0.2-0.4,0.2
				c0.1,0,0.2,0.1,0.2,0.2c0.1,0.1,0.1,0.1,0.2,0.2c0.1,0.1,0.1,0.2,0.2,0.2c0.1,0.1,0.1,0.2,0.2,0.3l0.4,0.9c0,0.1,0.1,0.2,0.1,0.2
				C47.8,73.7,47.8,73.7,47.8,73.8z M46.6,70.7c0-0.2,0-0.3-0.1-0.4c-0.1-0.1-0.2-0.2-0.3-0.2c-0.1,0-0.1,0-0.2,0s-0.2,0-0.2,0h-0.4
				v1.3h0.5c0.2,0,0.2,0,0.3-0.1c0.1,0,0.2-0.1,0.2-0.2c0.1-0.1,0.1-0.2,0.2-0.2C46.6,70.8,46.6,70.7,46.6,70.7z"/>
			<path class="st0" d="M51.5,70.7c0,0.2-0.1,0.5-0.2,0.7c-0.1,0.2-0.2,0.4-0.3,0.5c-0.2,0.2-0.3,0.2-0.5,0.3
				c-0.2,0.1-0.5,0.1-0.8,0.1h-0.4v1.5v0.1c0,0-0.1,0-0.1,0.1c0,0-0.1,0-0.2,0c-0.1,0-0.2,0-0.2,0c-0.1,0-0.2,0-0.2,0
				c-0.1,0-0.1,0-0.2,0c0,0-0.1,0-0.1-0.1v-0.1v-4.1c0-0.1,0-0.2,0.1-0.2c0.1-0.1,0.2-0.1,0.2-0.1h1.1c0.1,0,0.2,0,0.3,0
				c0.1,0,0.2,0,0.4,0.1c0.2,0,0.3,0.1,0.4,0.2c0.2,0.1,0.2,0.2,0.4,0.3c0.1,0.1,0.2,0.2,0.2,0.4C51.5,70.4,51.5,70.5,51.5,70.7z
				 M50.6,70.7c0-0.2,0-0.3-0.1-0.4c-0.1-0.1-0.2-0.2-0.2-0.2C50.2,70,50.1,70,50.1,70c-0.1,0-0.2,0-0.3,0h-0.4v1.5h0.4
				c0.2,0,0.3,0,0.4-0.1c0.1-0.1,0.2-0.1,0.2-0.2c0.1-0.1,0.1-0.2,0.2-0.2C50.6,71,50.6,70.9,50.6,70.7z"/>
			<path class="st0" d="M55.6,73.8L55.6,73.8C55.6,73.8,55.5,73.8,55.6,73.8c-0.1,0.1-0.2,0.1-0.2,0.1c-0.1,0-0.2,0-0.3,0
				c-0.1,0-0.2,0-0.2,0c-0.1,0-0.1,0-0.2,0c0,0-0.1,0-0.1-0.1v-0.1l-0.4-1c-0.1-0.1-0.1-0.2-0.2-0.3c-0.1-0.1-0.1-0.2-0.2-0.2
				c-0.1-0.1-0.2-0.1-0.2-0.2c-0.1,0-0.2-0.1-0.2-0.1h-0.3v1.7v0.1c0,0-0.1,0-0.1,0.1c0,0-0.1,0-0.2,0s-0.2,0-0.2,0
				c-0.1,0-0.2,0-0.2,0c-0.1,0-0.1,0-0.2,0c0,0-0.1,0-0.1-0.1v-0.1v-4.1c0-0.1,0-0.2,0.1-0.2c0.1-0.1,0.2-0.1,0.2-0.1h1.1
				c0.2,0,0.2,0,0.3,0c0.1,0,0.2,0,0.2,0c0.2,0,0.3,0.1,0.5,0.2c0.2,0.1,0.3,0.2,0.4,0.2c0.1,0.1,0.2,0.2,0.2,0.4
				c0.1,0.2,0.1,0.3,0.1,0.5s0,0.3-0.1,0.4c0,0.2-0.1,0.2-0.2,0.3c-0.1,0.1-0.2,0.2-0.3,0.2c-0.1,0.1-0.2,0.2-0.4,0.2
				c0.1,0,0.2,0.1,0.2,0.2c0.1,0.1,0.1,0.1,0.2,0.2c0.1,0.1,0.1,0.2,0.2,0.2c0.1,0.1,0.1,0.2,0.2,0.3l0.4,0.9c0,0.1,0.1,0.2,0.1,0.2
				C55.6,73.7,55.6,73.7,55.6,73.8z M54.4,70.7c0-0.2,0-0.3-0.1-0.4c-0.1-0.1-0.2-0.2-0.3-0.2c-0.1,0-0.1,0-0.2,0s-0.2,0-0.2,0h-0.4
				v1.3h0.5c0.2,0,0.2,0,0.3-0.1c0.1,0,0.2-0.1,0.2-0.2c0.1-0.1,0.1-0.2,0.2-0.2C54.4,70.8,54.4,70.7,54.4,70.7z"/>
			<path class="st0" d="M57.2,73.8L57.2,73.8C57.2,73.8,57.1,73.8,57.2,73.8c-0.1,0.1-0.2,0.1-0.2,0.1s-0.2,0-0.2,0
				c-0.1,0-0.2,0-0.2,0c-0.1,0-0.1,0-0.2,0c0,0-0.1,0-0.1-0.1v-0.1v-4.3v-0.1c0,0,0.1,0,0.1-0.1c0,0,0.1,0,0.2,0s0.2,0,0.2,0
				c0.1,0,0.2,0,0.2,0c0.1,0,0.1,0,0.2,0c0,0,0.1,0,0.1,0.1v0.1V73.8z"/>
			<path class="st0" d="M60.8,72.5c0,0.2-0.1,0.5-0.2,0.6c-0.1,0.2-0.2,0.3-0.4,0.5c-0.2,0.2-0.3,0.2-0.5,0.3
				C59.5,74,59.4,74,59.2,74c-0.2,0-0.3,0-0.5-0.1c-0.2,0-0.2-0.1-0.4-0.1c-0.1,0-0.2-0.1-0.2-0.1c-0.1-0.1-0.2-0.1-0.2-0.1
				s-0.1-0.1-0.1-0.2c0-0.1,0-0.2,0-0.2c0-0.1,0-0.2,0-0.2c0-0.1,0-0.1,0-0.2c0,0,0-0.1,0.1-0.1c0,0,0,0,0.1,0c0,0,0.1,0,0.2,0.1
				c0.1,0.1,0.2,0.1,0.2,0.2c0.1,0.1,0.2,0.1,0.3,0.2c0.2,0.1,0.3,0.1,0.5,0.1c0.1,0,0.2,0,0.3-0.1c0.1,0,0.2-0.1,0.2-0.1
				c0.1-0.1,0.1-0.1,0.2-0.2c0-0.1,0.1-0.2,0.1-0.2c0-0.1,0-0.2-0.1-0.2c-0.1-0.1-0.2-0.2-0.2-0.2c-0.1-0.1-0.2-0.1-0.3-0.2
				c-0.1-0.1-0.2-0.1-0.4-0.2c-0.2-0.1-0.2-0.2-0.4-0.2c-0.1-0.1-0.2-0.2-0.3-0.2c-0.1-0.1-0.2-0.2-0.2-0.4
				c-0.1-0.2-0.1-0.3-0.1-0.5c0-0.2,0.1-0.4,0.2-0.5c0.1-0.2,0.2-0.3,0.3-0.4c0.2-0.1,0.3-0.2,0.5-0.2c0.2-0.1,0.4-0.1,0.6-0.1
				c0.1,0,0.2,0,0.3,0s0.2,0,0.3,0.1c0.1,0,0.2,0.1,0.2,0.1c0.1,0,0.2,0.1,0.2,0.1l0.1,0.1c0,0,0,0,0,0.1V70c0,0.1,0,0.1,0,0.2
				c0,0.1,0,0.2,0,0.2c0,0.1,0,0.1,0,0.1v0.1c0,0,0,0-0.1,0c0,0-0.1,0-0.2-0.1c-0.1,0-0.2-0.1-0.2-0.1c-0.1-0.1-0.2-0.1-0.3-0.1
				c-0.1,0-0.2-0.1-0.4-0.1c-0.1,0-0.2,0-0.2,0c-0.1,0-0.2,0.1-0.2,0.1s-0.1,0.1-0.1,0.2c0,0.1,0,0.2,0,0.2c0,0.1,0,0.2,0.1,0.2
				c0.1,0.1,0.2,0.2,0.2,0.2c0.1,0.1,0.2,0.1,0.3,0.2c0.2,0.1,0.2,0.1,0.4,0.2c0.2,0.1,0.2,0.2,0.4,0.2c0.2,0.1,0.2,0.2,0.3,0.2
				c0.1,0.1,0.2,0.2,0.2,0.4C60.8,72.1,60.8,72.3,60.8,72.5z"/>
			<path class="st0" d="M64.2,73.5c0,0.1,0,0.2,0,0.2c0,0.1,0,0.1,0,0.1s0,0.1-0.1,0.1c0,0,0,0-0.1,0h-2.3c-0.1,0-0.2,0-0.2-0.1
				c-0.1-0.1-0.1-0.2-0.1-0.2v-4c0-0.1,0-0.2,0.1-0.2c0.1-0.1,0.2-0.1,0.2-0.1H64h0.1c0,0,0,0,0.1,0.1v0.1c0,0.1,0,0.1,0,0.2
				c0,0.1,0,0.2,0,0.2c0,0.1,0,0.1,0,0.1s0,0.1-0.1,0.1c0,0,0,0-0.1,0h-1.6v1.1h1.4h0.1c0,0,0,0,0.1,0.1v0.1c0,0.1,0,0.1,0,0.2
				c0,0.1,0,0.2,0,0.2c0,0.1,0,0.1,0,0.1s0,0.1-0.1,0.1c0,0,0,0-0.1,0h-1.4v1.3H64h0.1c0,0,0,0,0.1,0.1V73
				C64.2,73.4,64.2,73.5,64.2,73.5z"/>
			<path class="st0" d="M71.8,70c0,0.1,0,0.2,0,0.2c0,0.1,0,0.1,0,0.2v0.1c0,0,0,0-0.1,0c0,0-0.1,0-0.2-0.1
				c-0.1-0.1-0.2-0.1-0.2-0.2C71.3,70,71.2,70,71,70c-0.2-0.1-0.3-0.1-0.5-0.1c-0.2,0-0.4,0-0.6,0.1c-0.2,0.1-0.3,0.2-0.5,0.3
				c-0.2,0.2-0.2,0.3-0.3,0.5C69,71.1,69,71.2,69,71.4s0,0.5,0.1,0.7c0.1,0.2,0.2,0.4,0.3,0.5c0.2,0.2,0.3,0.2,0.5,0.3
				C70,73,70.2,73,70.4,73c0.1,0,0.2,0,0.3,0c0.1,0,0.2-0.1,0.3-0.1v-1.1h-0.8c-0.1,0-0.1,0-0.1-0.1c0-0.1,0-0.2,0-0.2
				c0-0.1,0-0.2,0-0.2c0-0.1,0-0.1,0-0.1s0-0.1,0.1-0.1c0,0,0,0,0.1,0h1.5h0.1c0,0,0.1,0,0.1,0.1l0.1,0.1c0,0,0,0.1,0,0.2v1.8
				c0,0.1,0,0.2,0,0.2c0,0.1-0.1,0.1-0.2,0.2c-0.1,0-0.2,0.1-0.3,0.1c-0.1,0-0.2,0.1-0.4,0.1c-0.2,0-0.2,0.1-0.4,0.1s-0.2,0-0.4,0
				c-0.4,0-0.7-0.1-1-0.2c-0.3-0.1-0.5-0.2-0.7-0.5c-0.2-0.2-0.4-0.5-0.5-0.7c-0.1-0.3-0.2-0.6-0.2-1c0-0.4,0.1-0.7,0.2-1
				c0.1-0.3,0.3-0.5,0.5-0.8c0.2-0.2,0.5-0.4,0.8-0.5c0.3-0.1,0.6-0.2,1-0.2c0.2,0,0.4,0,0.5,0.1c0.2,0,0.3,0.1,0.4,0.1
				c0.2,0,0.2,0.1,0.3,0.2c0.1,0.1,0.2,0.1,0.2,0.2c0,0,0.1,0.1,0.1,0.2C71.8,69.8,71.8,69.9,71.8,70z"/>
			<path class="st0" d="M75.4,73.5c0,0.1,0,0.2,0,0.2c0,0.1,0,0.1,0,0.1s0,0.1-0.1,0.1c0,0,0,0-0.1,0H73c-0.1,0-0.2,0-0.2-0.1
				c-0.1-0.1-0.1-0.2-0.1-0.2v-4c0-0.1,0-0.2,0.1-0.2c0.1-0.1,0.2-0.1,0.2-0.1h2.2h0.1c0,0,0,0,0.1,0.1v0.1c0,0.1,0,0.1,0,0.2
				c0,0.1,0,0.2,0,0.2c0,0.1,0,0.1,0,0.1s0,0.1-0.1,0.1c0,0,0,0-0.1,0h-1.6v1.1H75h0.1c0,0,0,0,0.1,0.1v0.1c0,0.1,0,0.1,0,0.2
				c0,0.1,0,0.2,0,0.2c0,0.1,0,0.1,0,0.1s0,0.1-0.1,0.1c0,0,0,0-0.1,0h-1.4v1.3h1.6h0.1c0,0,0,0,0.1,0.1V73
				C75.4,73.4,75.4,73.5,75.4,73.5z"/>
			<path class="st0" d="M80.2,71.5c0,0.4-0.1,0.7-0.2,1c-0.1,0.3-0.2,0.5-0.4,0.8c-0.2,0.2-0.4,0.4-0.7,0.5
				c-0.3,0.1-0.6,0.2-0.9,0.2c-0.4,0-0.7-0.1-0.9-0.2c-0.2-0.1-0.5-0.2-0.7-0.4c-0.2-0.2-0.3-0.5-0.4-0.7c-0.1-0.3-0.2-0.6-0.2-1
				c0-0.4,0.1-0.7,0.2-1c0.1-0.3,0.2-0.5,0.4-0.8c0.2-0.2,0.4-0.4,0.7-0.5c0.3-0.1,0.6-0.2,0.9-0.2c0.3,0,0.6,0.1,0.9,0.2
				c0.2,0.1,0.5,0.2,0.7,0.4c0.2,0.2,0.3,0.5,0.4,0.7C80.1,70.8,80.2,71.1,80.2,71.5z M79.2,71.6c0-0.2,0-0.5-0.1-0.6
				c0-0.2-0.1-0.4-0.2-0.5c-0.1-0.2-0.2-0.2-0.4-0.3C78.4,70,78.3,70,78,70c-0.2,0-0.4,0.1-0.5,0.2c-0.2,0.1-0.3,0.2-0.4,0.3
				C77,70.7,77,70.8,76.9,71c0,0.2-0.1,0.4-0.1,0.6s0,0.5,0.1,0.7c0,0.2,0.1,0.4,0.2,0.5c0.1,0.2,0.2,0.2,0.4,0.3
				c0.2,0.1,0.3,0.1,0.5,0.1c0.2,0,0.4-0.1,0.5-0.2c0.2-0.1,0.3-0.2,0.4-0.3c0.1-0.2,0.2-0.3,0.2-0.5C79.2,72,79.2,71.8,79.2,71.6z"
				/>
			<path class="st0" d="M84.2,73.8L84.2,73.8C84.2,73.8,84.1,73.8,84.2,73.8c-0.1,0.1-0.2,0.1-0.2,0.1c-0.1,0-0.2,0-0.3,0
				c-0.1,0-0.2,0-0.2,0c-0.1,0-0.1,0-0.2,0c0,0-0.1,0-0.1-0.1v-0.1l-0.4-1c-0.1-0.1-0.1-0.2-0.2-0.3c-0.1-0.1-0.1-0.2-0.2-0.2
				c-0.1-0.1-0.2-0.1-0.2-0.2c-0.1,0-0.2-0.1-0.2-0.1h-0.3v1.7v0.1c0,0-0.1,0-0.1,0.1c0,0-0.1,0-0.2,0s-0.2,0-0.2,0
				c-0.1,0-0.2,0-0.2,0c-0.1,0-0.1,0-0.2,0c0,0-0.1,0-0.1-0.1v-0.1v-4.1c0-0.1,0-0.2,0.1-0.2c0.1-0.1,0.2-0.1,0.2-0.1h1.1
				c0.2,0,0.2,0,0.3,0s0.2,0,0.2,0c0.2,0,0.3,0.1,0.5,0.2c0.2,0.1,0.3,0.2,0.4,0.2c0.1,0.1,0.2,0.2,0.2,0.4c0.1,0.2,0.1,0.3,0.1,0.5
				s0,0.3-0.1,0.4c0,0.2-0.1,0.2-0.2,0.3c-0.1,0.1-0.2,0.2-0.3,0.2c-0.1,0.1-0.2,0.2-0.4,0.2c0.1,0,0.2,0.1,0.2,0.2
				c0.1,0.1,0.2,0.1,0.2,0.2c0.1,0.1,0.1,0.2,0.2,0.2c0.1,0.1,0.1,0.2,0.2,0.3l0.4,0.9c0,0.1,0.1,0.2,0.1,0.2
				C84.2,73.7,84.2,73.7,84.2,73.8z M83.1,70.7c0-0.2,0-0.3-0.1-0.4c-0.1-0.1-0.2-0.2-0.3-0.2c-0.1,0-0.1,0-0.2,0
				c-0.1,0-0.2,0-0.2,0h-0.4v1.3h0.5c0.2,0,0.2,0,0.3-0.1c0.1,0,0.2-0.1,0.2-0.2c0.1-0.1,0.1-0.2,0.2-0.2
				C83.1,70.8,83.1,70.7,83.1,70.7z"/>
			<path class="st0" d="M88.5,70c0,0.1,0,0.2,0,0.2c0,0.1,0,0.1,0,0.2c0,0,0,0.1-0.1,0.1c0,0,0,0-0.1,0c0,0-0.1,0-0.2-0.1
				c-0.1-0.1-0.2-0.1-0.2-0.2C87.9,70,87.7,70,87.6,70c-0.2-0.1-0.3-0.1-0.5-0.1c-0.2,0-0.4,0-0.6,0.1c-0.2,0.1-0.3,0.2-0.5,0.3
				c-0.2,0.2-0.2,0.3-0.3,0.5c-0.1,0.2-0.1,0.4-0.1,0.6s0,0.5,0.1,0.7c0.1,0.2,0.2,0.4,0.3,0.5c0.2,0.2,0.3,0.2,0.5,0.3
				C86.6,73,86.8,73,87,73c0.1,0,0.2,0,0.3,0c0.1,0,0.2-0.1,0.3-0.1v-1.1h-0.8c-0.1,0-0.1,0-0.1-0.1c0-0.1,0-0.2,0-0.2
				c0-0.1,0-0.2,0-0.2c0-0.1,0-0.1,0-0.1s0-0.1,0.1-0.1c0,0,0,0,0.1,0h1.5h0.1c0,0,0.1,0,0.1,0.1l0.1,0.1c0,0,0,0.1,0,0.2v1.8
				c0,0.1,0,0.2,0,0.2c0,0.1-0.1,0.1-0.2,0.2c-0.1,0-0.2,0.1-0.3,0.1c-0.1,0-0.2,0.1-0.4,0.1c-0.2,0-0.2,0.1-0.4,0.1
				c-0.2,0-0.2,0-0.4,0c-0.4,0-0.7-0.1-1-0.2c-0.3-0.1-0.5-0.2-0.7-0.5c-0.2-0.2-0.4-0.5-0.5-0.7c-0.1-0.3-0.2-0.6-0.2-1
				c0-0.4,0.1-0.7,0.2-1c0.1-0.3,0.3-0.5,0.5-0.8c0.2-0.2,0.5-0.4,0.8-0.5c0.3-0.1,0.6-0.2,1-0.2c0.2,0,0.4,0,0.5,0.1
				c0.2,0,0.3,0.1,0.4,0.1c0.2,0,0.2,0.1,0.3,0.2c0.1,0.1,0.2,0.1,0.2,0.2c0,0,0.1,0.1,0.1,0.2C88.5,69.8,88.5,69.9,88.5,70z"/>
			<path class="st0" d="M90.3,73.8L90.3,73.8C90.3,73.8,90.3,73.8,90.3,73.8c-0.1,0.1-0.2,0.1-0.2,0.1c-0.1,0-0.2,0-0.2,0
				c-0.1,0-0.2,0-0.2,0c-0.1,0-0.1,0-0.2,0c0,0-0.1,0-0.1-0.1v-0.1v-4.3v-0.1c0,0,0.1,0,0.1-0.1c0,0,0.1,0,0.2,0c0.1,0,0.2,0,0.2,0
				c0.1,0,0.2,0,0.2,0c0.1,0,0.1,0,0.2,0c0,0,0.1,0,0.1,0.1v0.1V73.8z"/>
			<path class="st0" d="M95,73.5c0,0.1,0.1,0.2,0.1,0.2c0,0.1,0,0.1,0,0.1s-0.1,0.1-0.2,0.1c-0.1,0-0.2,0-0.3,0c-0.2,0-0.2,0-0.3,0
				c-0.1,0-0.2,0-0.2,0s-0.1,0-0.1-0.1v-0.1l-0.3-0.9h-1.7l-0.3,0.9v0.1l-0.1,0.1c0,0-0.1,0-0.2,0s-0.2,0-0.2,0c-0.1,0-0.2,0-0.2,0
				c-0.1,0-0.1,0-0.2-0.1v-0.1c0-0.1,0-0.1,0.1-0.2l1.4-4c0-0.1,0-0.1,0.1-0.1l0.1-0.1c0.1,0,0.1,0,0.2,0c0.1,0,0.2,0,0.3,0
				c0.2,0,0.2,0,0.3,0s0.2,0,0.2,0c0.1,0,0.1,0,0.1,0.1c0,0,0,0.1,0.1,0.1L95,73.5z M92.9,70.2L92.9,70.2l-0.6,1.9h1.3L92.9,70.2z"
				/>
		</g>
	</g>
</g>
</svg>
