<?xml version="1.0" encoding="utf-8"?>
<!-- Generator: Adobe Illustrator 19.1.1, SVG Export Plug-In . SVG Version: 6.00 Build 0)  -->
<svg version="1.1" id="Layer_1" xmlns="http://www.w3.org/2000/svg" xmlns:xlink="http://www.w3.org/1999/xlink" x="0px" y="0px"
	 viewBox="0 0 20 23" style="enable-background:new 0 0 20 23;" xml:space="preserve">
<style type="text/css">
	.st0{fill:#FFFFFF;}
</style>
<g>
	<path class="st0" d="M0.9,18.2h0.9c-0.2,3.5,3.5,4.2,6.4,4.1c0.1,0.2,0.4,0.4,0.6,0.4h2.9c0.4,0,0.7-0.3,0.7-0.7v-0.6
		c0-0.4-0.3-0.7-0.7-0.7H8.7c-0.3,0-0.6,0.2-0.7,0.6c-2.3,0.1-5.3-0.2-5.2-3h1.3c0.3,0,0.6-0.3,0.6-0.6v-6.8c0-0.3-0.3-0.6-0.6-0.6
		H2.4C2.6,6,6.1,2.5,10.2,2.5S17.7,6,18,10.2h-1.8c-0.3,0-0.6,0.3-0.6,0.6v6.8c0,0.3,0.3,0.6,0.6,0.6h3.3c0.3,0,0.6-0.3,0.6-0.6
		v-6.8c0-0.1-0.1-0.3-0.1-0.4c-0.1-5.3-4.5-9.7-9.7-9.7S0.7,5,0.5,10.3c-0.1,0.1-0.2,0.3-0.2,0.5v6.8C0.3,17.9,0.5,18.2,0.9,18.2
		L0.9,18.2z"/>
</g>
</svg>
