<?xml version="1.0" encoding="utf-8"?>
<!-- Generator: Adobe Illustrator 19.1.1, SVG Export Plug-In . SVG Version: 6.00 Build 0)  -->
<svg version="1.1" id="Layer_1" xmlns="http://www.w3.org/2000/svg" xmlns:xlink="http://www.w3.org/1999/xlink" x="0px" y="0px"
	 viewBox="0 0 20 23" style="enable-background:new 0 0 20 23;" xml:space="preserve">
<style type="text/css">
	.st0{fill:#FFFFFF;}
</style>
<g>
	<path class="st0" d="M0.6,18.3h0.9C1.4,22,5.1,22.7,8,22.7C8.1,22.9,8.4,23,8.6,23h3c0.4,0,0.7-0.3,0.7-0.7v-0.6
		c0-0.4-0.3-0.7-0.7-0.7h-3c-0.3,0-0.6,0.2-0.7,0.6c-2.3,0.1-5.4-0.2-5.3-3.2h1.3c0.3,0,0.6-0.3,0.6-0.6v-7.1c0-0.3-0.3-0.6-0.6-0.6
		H2.1C2.4,5.6,5.9,2,10,2s7.7,3.6,7.9,8h-1.9c-0.3,0-0.6,0.3-0.6,0.6v7.1c0,0.3,0.3,0.6,0.6,0.6h3.3c0.3,0,0.6-0.3,0.6-0.6v-7.1
		c0-0.2-0.1-0.3-0.1-0.4C19.7,4.7,15.3,0,10,0C4.8,0,0.4,4.6,0.2,10.1C0.1,10.2,0,10.4,0,10.6v7.1C0,18.1,0.3,18.3,0.6,18.3
		L0.6,18.3z"/>
</g>
</svg>
