<?xml version="1.0" encoding="utf-8"?>
<!-- Generator: Adobe Illustrator 19.1.1, SVG Export Plug-In . SVG Version: 6.00 Build 0)  -->
<svg version="1.1" id="Layer_1" xmlns="http://www.w3.org/2000/svg" xmlns:xlink="http://www.w3.org/1999/xlink" x="0px" y="0px"
	 viewBox="0 0 24 26" style="enable-background:new 0 0 24 26;" xml:space="preserve">
<style type="text/css">
	.st0{fill:#FFFFFF;}
</style>
<g>
	<path class="st0" d="M6.3,26C5.5,26,5,25.8,5,25.8c-0.4-0.1-0.6-0.5-0.5-0.9l1.2-4c-3.5-2-5.7-5.7-5.7-9.6C0,5.1,5.4,0,12,0
		s12,5.1,12,11.3c0,6.1-5,11-11.5,11.3c-0.1,0-0.2,0-0.3,0l0,0c-0.4-0.1-0.6-0.4-0.6-0.8c0-0.4,0.4-0.7,0.7-0.7
		c5.7-0.2,10.1-4.4,10.1-9.7c0-5.4-4.7-9.8-10.5-9.8c-5.8,0-10.5,4.4-10.5,9.8c0,3.5,2.1,6.8,5.4,8.6c0.3,0.2,0.5,0.5,0.4,0.9
		c0,0,0,0.1,0,0.1l-1.1,3.7c0.8,0,2.1-0.2,3.7-1.4c0.3-0.2,0.8-0.2,1.1,0.2c0.3,0.3,0.2,0.8-0.2,1.1C9,25.7,7.4,26,6.3,26L6.3,26z"
		/>
	<path class="st0" d="M18.4,8.2H5.4C5,8.2,4.7,7.9,4.7,7.5l0,0c0-0.4,0.3-0.7,0.7-0.7h12.9c0.4,0,0.7,0.3,0.7,0.7l0,0
		C19.1,7.9,18.8,8.2,18.4,8.2z"/>
	<path class="st0" d="M18.4,12H5.4c-0.4,0-0.7-0.3-0.7-0.7l0,0c0-0.4,0.3-0.7,0.7-0.7h12.9c0.4,0,0.7,0.3,0.7,0.7l0,0
		C19.1,11.7,18.8,12,18.4,12z"/>
	<path class="st0" d="M18.4,15.9H5.4c-0.4,0-0.7-0.3-0.7-0.7l0,0c0-0.4,0.3-0.7,0.7-0.7h12.9c0.4,0,0.7,0.3,0.7,0.7l0,0
		C19.1,15.5,18.8,15.9,18.4,15.9z"/>
</g>
</svg>
