<?xml version="1.0" encoding="utf-8"?>
<!-- Generator: Adobe Illustrator 18.1.0, SVG Export Plug-In . SVG Version: 6.00 Build 0)  -->
<svg version="1.1" id="Layer_1" xmlns="http://www.w3.org/2000/svg" xmlns:xlink="http://www.w3.org/1999/xlink" x="0px" y="0px"
	 viewBox="0 0 195 107" enable-background="new 0 0 195 107" xml:space="preserve">
<path fill="none" d="M-764.8-666.8c0-11.6-3.9-16.3-13.3-16.3h-12v49.4h10.3c9.4,0,15.5-4.3,15.5-16.7L-764.8-666.8
	C-764.4-666.8-764.8-666.8-764.8-666.8z"/>
<polygon fill="none" points="-685,-677.9 -697.4,-596.4 -672.5,-596.4 "/>
<polyline fill="none" points="-124.8,-706.2 -124.8,-637.1 -95.7,-637.1 -95.7,-706.2 "/>
<g>
	<path fill="#FFFFFF" d="M17.5,100.6h-2l-4-6.5v6.5h-2v-9.9h2l4,6.5v-6.5h2V100.6z"/>
	<path fill="#FFFFFF" d="M23.4,100.6c-0.1-0.2-0.2-0.4-0.2-0.7c-0.5,0.5-1.1,0.8-1.9,0.8c-0.7,0-1.3-0.2-1.8-0.6s-0.7-0.9-0.7-1.6
		c0-0.8,0.3-1.4,0.9-1.8s1.4-0.6,2.5-0.6h0.9v-0.4c0-0.3-0.1-0.6-0.3-0.8c-0.2-0.2-0.5-0.3-0.8-0.3s-0.6,0.1-0.8,0.2
		s-0.3,0.4-0.3,0.7h-2c0-0.4,0.1-0.8,0.4-1.2c0.3-0.4,0.6-0.6,1.1-0.9c0.5-0.2,1-0.3,1.6-0.3c0.9,0,1.6,0.2,2.2,0.7
		c0.5,0.5,0.8,1.1,0.8,1.9v3.2c0,0.7,0.1,1.2,0.3,1.6v0.1L23.4,100.6L23.4,100.6z M21.8,99.2c0.3,0,0.6-0.1,0.8-0.2s0.4-0.3,0.5-0.5
		v-1.3h-0.7c-1,0-1.5,0.3-1.6,1v0.1c0,0.2,0.1,0.4,0.3,0.6S21.5,99.2,21.8,99.2z"/>
	<path fill="#FFFFFF" d="M29,91.4v1.8h1.3v1.4H29v3.7c0,0.3,0.1,0.5,0.2,0.6s0.3,0.2,0.6,0.2c0.2,0,0.4,0,0.6,0v1.5
		c-0.4,0.1-0.8,0.2-1.2,0.2c-1.4,0-2.1-0.7-2.1-2.1v-4H26v-1.4h1.1v-1.8L29,91.4L29,91.4z"/>
	<path fill="#FFFFFF" d="M31.3,91.3c0-0.3,0.1-0.5,0.3-0.7s0.5-0.3,0.8-0.3s0.6,0.1,0.8,0.3c0.2,0.2,0.3,0.4,0.3,0.7
		c0,0.3-0.1,0.5-0.3,0.7s-0.5,0.3-0.8,0.3s-0.6-0.1-0.8-0.3S31.3,91.6,31.3,91.3z M33.4,100.6h-2v-7.4h2V100.6z"/>
	<path fill="#FFFFFF" d="M34.7,96.8c0-0.7,0.1-1.4,0.4-2c0.3-0.6,0.7-1,1.2-1.3s1.1-0.5,1.8-0.5c1,0,1.8,0.3,2.4,0.9
		c0.6,0.6,1,1.4,1.1,2.5v0.5c0,1.1-0.3,2-0.9,2.7c-0.6,0.7-1.5,1-2.5,1s-1.9-0.3-2.5-1C35,99,34.7,98.1,34.7,96.8L34.7,96.8z
		 M36.7,97c0,0.7,0.1,1.2,0.4,1.6c0.3,0.4,0.6,0.6,1.1,0.6s0.9-0.2,1.1-0.6c0.3-0.4,0.4-1,0.4-1.8c0-0.7-0.1-1.2-0.4-1.6
		s-0.6-0.6-1.1-0.6s-0.9,0.2-1.1,0.6S36.7,96.2,36.7,97z"/>
	<path fill="#FFFFFF" d="M44.7,93.2l0.1,0.9c0.5-0.7,1.2-1,2.1-1c0.8,0,1.4,0.2,1.7,0.7c0.4,0.5,0.6,1.1,0.6,2.1v4.8h-2V96
		c0-0.4-0.1-0.7-0.3-0.9c-0.2-0.2-0.5-0.3-0.9-0.3c-0.6,0-1,0.2-1.2,0.7v5.2h-2v-7.4L44.7,93.2L44.7,93.2z"/>
	<path fill="#FFFFFF" d="M55,100.6c-0.1-0.2-0.2-0.4-0.2-0.7c-0.5,0.5-1.1,0.8-1.9,0.8c-0.7,0-1.3-0.2-1.8-0.6s-0.7-0.9-0.7-1.6
		c0-0.8,0.3-1.4,0.9-1.8c0.6-0.4,1.4-0.6,2.5-0.6h0.9v-0.4c0-0.3-0.1-0.6-0.3-0.8s-0.5-0.3-0.8-0.3s-0.6,0.1-0.8,0.2
		c-0.2,0.2-0.3,0.4-0.3,0.7h-2c0-0.4,0.1-0.8,0.4-1.2s0.6-0.6,1.1-0.9c0.5-0.2,1-0.3,1.6-0.3c0.9,0,1.6,0.2,2.2,0.7
		c0.5,0.5,0.8,1.1,0.8,1.9v3.2c0,0.7,0.1,1.2,0.3,1.6v0.1L55,100.6L55,100.6z M53.4,99.2c0.3,0,0.6-0.1,0.8-0.2s0.4-0.3,0.5-0.5
		v-1.3H54c-1,0-1.5,0.3-1.6,1v0.1c0,0.2,0.1,0.4,0.3,0.6S53.1,99.2,53.4,99.2z"/>
	<path fill="#FFFFFF" d="M60.3,100.6h-2V90.1h2V100.6z"/>
	<path fill="#FFFFFF" d="M71.5,96.3h-3.9V99h4.6v1.6h-6.7v-9.9h6.6v1.6h-4.6v2.4h4V96.3z"/>
	<path fill="#FFFFFF" d="M76.1,95.4l1.2-2.2h2.1l-2.1,3.6l2.2,3.8h-2.1l-1.3-2.3l-1.3,2.3h-2.1l2.2-3.8l-2.1-3.6h2.1L76.1,95.4z"/>
	<path fill="#FFFFFF" d="M87,97c0,1.1-0.3,2-0.8,2.7s-1.2,1-2.1,1c-0.7,0-1.3-0.3-1.8-0.8v3.5h-2V93.2h1.8l0.1,0.7
		c0.5-0.6,1.1-0.9,1.9-0.9c0.9,0,1.6,0.3,2.1,1s0.8,1.6,0.8,2.8V97z M85,96.8c0-0.7-0.1-1.2-0.4-1.6c-0.2-0.4-0.6-0.6-1.1-0.6
		c-0.6,0-1,0.2-1.3,0.7v3c0.2,0.5,0.7,0.7,1.3,0.7C84.6,99.1,85,98.4,85,96.8z"/>
	<path fill="#FFFFFF" d="M87.9,96.8c0-0.7,0.1-1.4,0.4-2s0.7-1,1.2-1.3s1.1-0.5,1.8-0.5c1,0,1.8,0.3,2.4,0.9s1,1.4,1.1,2.5v0.5
		c0,1.1-0.3,2-0.9,2.7s-1.5,1-2.5,1c-1.1,0-1.9-0.3-2.5-1C88.2,99,87.9,98.1,87.9,96.8L87.9,96.8z M89.9,97c0,0.7,0.1,1.2,0.4,1.6
		s0.6,0.6,1.1,0.6s0.9-0.2,1.1-0.6c0.3-0.4,0.4-1,0.4-1.8c0-0.7-0.1-1.2-0.4-1.6s-0.6-0.6-1.1-0.6s-0.9,0.2-1.1,0.6
		C90,95.6,89.9,96.2,89.9,97z"/>
	<path fill="#FFFFFF" d="M100.3,95.1c-0.3,0-0.5-0.1-0.7-0.1c-0.7,0-1.2,0.3-1.5,0.8v4.8h-2v-7.4H98l0.1,0.9c0.4-0.7,0.9-1,1.6-1
		c0.2,0,0.4,0,0.6,0.1V95.1z"/>
	<path fill="#FFFFFF" d="M103.9,91.4v1.8h1.3v1.4h-1.3v3.7c0,0.3,0.1,0.5,0.2,0.6s0.3,0.2,0.6,0.2c0.2,0,0.4,0,0.6,0v1.5
		c-0.4,0.1-0.8,0.2-1.2,0.2c-1.4,0-2.1-0.7-2.1-2.1v-4h-1.1v-1.4h1.1v-1.8L103.9,91.4L103.9,91.4z"/>
	<path fill="#FFFFFF" d="M109.7,100.7c-1.1,0-2-0.3-2.6-1c-0.7-0.7-1-1.5-1-2.7v-0.2c0-0.7,0.1-1.4,0.4-2s0.7-1,1.2-1.4
		c0.5-0.3,1.1-0.5,1.8-0.5c1,0,1.8,0.3,2.4,1c0.6,0.6,0.9,1.5,0.9,2.7v0.8h-4.7c0.1,0.5,0.3,0.9,0.6,1.2c0.3,0.3,0.7,0.4,1.2,0.4
		c0.8,0,1.4-0.3,1.8-0.8l1,1.1c-0.3,0.4-0.7,0.7-1.2,1C110.9,100.6,110.3,100.7,109.7,100.7z M109.5,94.7c-0.4,0-0.7,0.1-1,0.4
		c-0.2,0.3-0.4,0.6-0.5,1.1h2.7V96c0-0.4-0.1-0.8-0.4-1C110.2,94.8,109.9,94.7,109.5,94.7z"/>
	<path fill="#FFFFFF" d="M118,95.1c-0.3,0-0.5-0.1-0.7-0.1c-0.7,0-1.2,0.3-1.5,0.8v4.8h-2v-7.4h1.9l0.1,0.9c0.4-0.7,0.9-1,1.6-1
		c0.2,0,0.4,0,0.6,0.1V95.1z"/>
	<path fill="#FFFFFF" d="M122.9,98.6c0-0.2-0.1-0.4-0.4-0.6s-0.6-0.3-1.1-0.4c-1.8-0.4-2.6-1.1-2.6-2.2c0-0.7,0.3-1.2,0.8-1.6
		s1.3-0.7,2.1-0.7c0.9,0,1.7,0.2,2.2,0.7c0.6,0.4,0.8,1,0.8,1.7h-2c0-0.3-0.1-0.5-0.3-0.7c-0.2-0.2-0.5-0.3-0.9-0.3
		c-0.3,0-0.6,0.1-0.8,0.2c-0.2,0.2-0.3,0.3-0.3,0.6c0,0.2,0.1,0.4,0.3,0.5s0.6,0.3,1,0.3s0.9,0.2,1.2,0.3c1,0.4,1.6,1,1.6,2
		c0,0.7-0.3,1.2-0.9,1.6s-1.3,0.6-2.2,0.6c-0.6,0-1.2-0.1-1.6-0.3c-0.5-0.2-0.9-0.5-1.1-0.9c-0.3-0.4-0.4-0.8-0.4-1.2h1.9
		c0,0.4,0.1,0.6,0.4,0.8c0.2,0.2,0.6,0.3,1,0.3s0.7-0.1,0.9-0.2S122.9,98.8,122.9,98.6z"/>
	<path fill="#FFFFFF" d="M129.7,100.6v-9.9h3.1c0.9,0,1.7,0.2,2.3,0.6s1.2,1,1.6,1.7c0.4,0.7,0.6,1.5,0.6,2.5V96
		c0,0.9-0.2,1.7-0.6,2.5c-0.4,0.7-0.9,1.3-1.6,1.7s-1.5,0.6-2.3,0.6h-3.1V100.6z M131.8,92.3v6.6h1c0.8,0,1.4-0.3,1.8-0.8
		c0.4-0.5,0.6-1.3,0.6-2.2v-0.5c0-1-0.2-1.8-0.6-2.3c-0.4-0.5-1-0.8-1.8-0.8C132.8,92.3,131.8,92.3,131.8,92.3z"/>
	<path fill="#FFFFFF" d="M142.9,100.6c-0.1-0.2-0.2-0.4-0.2-0.7c-0.5,0.5-1.1,0.8-1.9,0.8c-0.7,0-1.3-0.2-1.8-0.6s-0.7-0.9-0.7-1.6
		c0-0.8,0.3-1.4,0.9-1.8c0.6-0.4,1.4-0.6,2.5-0.6h0.9v-0.4c0-0.3-0.1-0.6-0.3-0.8s-0.5-0.3-0.8-0.3s-0.6,0.1-0.8,0.2
		s-0.3,0.4-0.3,0.7h-2c0-0.4,0.1-0.8,0.4-1.2c0.3-0.4,0.6-0.6,1.1-0.9c0.5-0.2,1-0.3,1.6-0.3c0.9,0,1.6,0.2,2.2,0.7
		c0.5,0.5,0.8,1.1,0.8,1.9v3.2c0,0.7,0.1,1.2,0.3,1.6v0.1L142.9,100.6L142.9,100.6z M141.3,99.2c0.3,0,0.6-0.1,0.8-0.2
		s0.4-0.3,0.5-0.5v-1.3h-0.7c-1,0-1.5,0.3-1.6,1v0.1c0,0.2,0.1,0.4,0.3,0.6C140.8,99.1,141,99.2,141.3,99.2z"/>
	<path fill="#FFFFFF" d="M148.5,91.4v1.8h1.3v1.4h-1.3v3.7c0,0.3,0.1,0.5,0.2,0.6s0.3,0.2,0.6,0.2c0.2,0,0.4,0,0.6,0v1.5
		c-0.4,0.1-0.8,0.2-1.2,0.2c-1.4,0-2.1-0.7-2.1-2.1v-4h-1.1v-1.4h1.1v-1.8L148.5,91.4L148.5,91.4z"/>
	<path fill="#FFFFFF" d="M155.1,100.6c-0.1-0.2-0.2-0.4-0.2-0.7c-0.5,0.5-1.1,0.8-1.9,0.8c-0.7,0-1.3-0.2-1.8-0.6s-0.7-0.9-0.7-1.6
		c0-0.8,0.3-1.4,0.9-1.8c0.6-0.4,1.4-0.6,2.5-0.6h0.9v-0.4c0-0.3-0.1-0.6-0.3-0.8s-0.5-0.3-0.8-0.3s-0.6,0.1-0.8,0.2
		s-0.3,0.4-0.3,0.7h-2c0-0.4,0.1-0.8,0.4-1.2c0.3-0.4,0.6-0.6,1.1-0.9c0.5-0.2,1-0.3,1.6-0.3c0.9,0,1.6,0.2,2.2,0.7
		c0.5,0.5,0.8,1.1,0.8,1.9v3.2c0,0.7,0.1,1.2,0.3,1.6v0.1L155.1,100.6L155.1,100.6z M153.5,99.2c0.3,0,0.6-0.1,0.8-0.2
		s0.4-0.3,0.5-0.5v-1.3h-0.7c-1,0-1.5,0.3-1.6,1v0.1c0,0.2,0.1,0.4,0.3,0.6C153,99.1,153.2,99.2,153.5,99.2z"/>
	<path fill="#FFFFFF" d="M165,97c0,1.2-0.3,2.1-0.8,2.8c-0.5,0.7-1.2,1-2.1,1c-0.8,0-1.4-0.3-1.9-0.9l-0.1,0.8h-1.8V90.1h2v3.8
		c0.5-0.5,1.1-0.8,1.8-0.8c0.9,0,1.6,0.3,2.1,1S165,95.7,165,97L165,97z M163,96.8c0-0.7-0.1-1.3-0.4-1.6c-0.2-0.3-0.6-0.5-1.1-0.5
		c-0.6,0-1.1,0.3-1.3,0.8v2.9c0.2,0.5,0.7,0.8,1.3,0.8s1.1-0.3,1.3-0.9C163,97.9,163,97.4,163,96.8z"/>
	<path fill="#FFFFFF" d="M170.5,100.6c-0.1-0.2-0.2-0.4-0.2-0.7c-0.5,0.5-1.1,0.8-1.9,0.8c-0.7,0-1.3-0.2-1.8-0.6s-0.7-0.9-0.7-1.6
		c0-0.8,0.3-1.4,0.9-1.8c0.6-0.4,1.4-0.6,2.5-0.6h0.9v-0.4c0-0.3-0.1-0.6-0.3-0.8s-0.5-0.3-0.8-0.3s-0.6,0.1-0.8,0.2
		s-0.3,0.4-0.3,0.7h-2c0-0.4,0.1-0.8,0.4-1.2s0.6-0.6,1.1-0.9c0.5-0.2,1-0.3,1.6-0.3c0.9,0,1.6,0.2,2.2,0.7c0.5,0.5,0.8,1.1,0.8,1.9
		v3.2c0,0.7,0.1,1.2,0.3,1.6v0.1L170.5,100.6L170.5,100.6z M168.9,99.2c0.3,0,0.6-0.1,0.8-0.2s0.4-0.3,0.5-0.5v-1.3h-0.7
		c-1,0-1.5,0.3-1.6,1v0.1c0,0.2,0.1,0.4,0.3,0.6S168.6,99.2,168.9,99.2z"/>
	<path fill="#FFFFFF" d="M177.7,98.6c0-0.2-0.1-0.4-0.4-0.6c-0.2-0.1-0.6-0.3-1.1-0.4c-1.8-0.4-2.6-1.1-2.6-2.2
		c0-0.7,0.3-1.2,0.8-1.6s1.3-0.7,2.1-0.7c0.9,0,1.7,0.2,2.2,0.7s0.8,1,0.8,1.7h-2c0-0.3-0.1-0.5-0.3-0.7s-0.5-0.3-0.9-0.3
		c-0.3,0-0.6,0.1-0.8,0.2s0,0.4,0,0.6s0.1,0.4,0.3,0.5s0.6,0.3,1,0.3s0.9,0.2,1.2,0.3c1,0.4,1.6,1,1.6,2c0,0.7-0.3,1.2-0.9,1.6
		c-0.6,0.4-1.3,0.6-2.2,0.6c-0.6,0-1.2-0.1-1.6-0.3c-0.5-0.2-0.9-0.5-1.1-0.9c-0.3-0.4-0.4-0.8-0.4-1.2h1.9c0,0.4,0.1,0.6,0.4,0.8
		c0.2,0.2,0.6,0.3,1,0.3s0.7-0.1,0.9-0.2S177.7,98.8,177.7,98.6z"/>
	<path fill="#FFFFFF" d="M184.3,100.7c-1.1,0-2-0.3-2.6-1c-0.7-0.7-1-1.5-1-2.7v-0.2c0-0.7,0.1-1.4,0.4-2c0.3-0.6,0.7-1,1.2-1.4
		c0.5-0.3,1.1-0.5,1.8-0.5c1,0,1.8,0.3,2.4,1s0.9,1.5,0.9,2.7v0.8h-4.7c0.1,0.5,0.3,0.9,0.6,1.2c0.3,0.3,0.7,0.4,1.2,0.4
		c0.8,0,1.4-0.3,1.8-0.8l1,1.1c-0.3,0.4-0.7,0.7-1.2,1C185.5,100.6,184.9,100.7,184.3,100.7z M184.1,94.7c-0.4,0-0.7,0.1-1,0.4
		c-0.2,0.3-0.4,0.6-0.5,1.1h2.7V96c0-0.4-0.1-0.8-0.4-1C184.8,94.8,184.5,94.7,184.1,94.7z"/>
	<path fill="#FFFFFF" d="M8.1,5h17v5h-5.7v30h-5.5V10H8.1V5z"/>
	<path fill="#FFFFFF" d="M39,40c-0.3-0.9-0.5-1.4-0.5-4.3v-5.5c0-3.2-1.1-4.4-3.6-4.4H33V40h-5.5V5h8.3c5.7,0,8.1,2.6,8.1,8v2.7
		c0,3.6-1.1,5.9-3.6,7.1c2.7,1.1,3.6,3.8,3.6,7.4v5.4c0,1.7,0.1,2.9,0.6,4.2H39z M33,10v10.7h2.1c2,0,3.3-0.9,3.3-3.7v-3.4
		c0-2.5-0.8-3.6-2.8-3.6H33z"/>
	<path fill="#FFFFFF" d="M65.3,40h-5.5l-0.9-6.3h-6.7L51.1,40h-5L51.7,5h8L65.3,40z M52.8,28.9h5.3l-2.6-17.7L52.8,28.9z"/>
	<path fill="#FFFFFF" d="M67.9,5h8.7c5.5,0,8.2,3,8.2,8.6v17.7c0,5.6-2.7,8.6-8.2,8.6h-8.7V5z M73.4,10v25h3.1
		c1.7,0,2.8-0.9,2.8-3.4V13.4c0-2.5-1-3.4-2.8-3.4H73.4z"/>
	<path fill="#FFFFFF" d="M93.8,19.7h7.5v5h-7.5V35h9.5v5h-15V5h15v5h-9.5V19.7z"/>
	<path fill="#FFFFFF" d="M126.6,21.3l-2,18.6H117L113.1,5h5.3l2.9,27.6L124.1,5h5.3l2.7,27.8L135,5h4.8L135.9,40h-7.3L126.6,21.3z"
		/>
	<path fill="#FFFFFF" d="M142.5,5h5.5V40h-5.5V5z"/>
	<path fill="#FFFFFF" d="M150.4,5h17v5h-5.7v30h-5.5V10h-5.7V5z"/>
	<path fill="#FFFFFF" d="M175.3,40h-5.5V5h5.5v15h6.2V5h5.6V40h-5.6V25h-6.2V40z"/>
	<path fill="#FFFFFF" d="M17.9,64.4h7.7v11.1c0,5.6-2.8,8.8-8.2,8.8c-5.4,0-8.2-3.2-8.2-8.8V57.3c0-5.6,2.8-8.8,8.2-8.8
		c5.4,0,8.2,3.2,8.2,8.8v3.4h-5.2V57c0-2.5-1.1-3.4-2.8-3.4c-1.7,0-2.8,0.9-2.8,3.4v18.9c0,2.5,1.1,3.4,2.8,3.4
		c1.7,0,2.8-0.9,2.8-3.4v-6.4h-2.5V64.4z"/>
	<path fill="#FFFFFF" d="M34.7,63.7h7.5v5h-7.5v10.2h9.5v5h-15V48.9h15v5h-9.5V63.7z"/>
	<path fill="#FFFFFF" d="M47.1,57.3c0-5.6,2.9-8.8,8.3-8.8c5.4,0,8.3,3.2,8.3,8.8v18.2c0,5.6-2.9,8.8-8.3,8.8
		c-5.4,0-8.3-3.2-8.3-8.8V57.3z M52.6,75.9c0,2.5,1.1,3.4,2.8,3.4c1.7,0,2.8-0.9,2.8-3.4V57c0-2.5-1.1-3.4-2.8-3.4
		c-1.7,0-2.8,0.9-2.8,3.4V75.9z"/>
	<path fill="#FFFFFF" d="M78.8,83.9c-0.3-0.9-0.5-1.4-0.5-4.3v-5.5c0-3.2-1.1-4.4-3.6-4.4h-1.9v14.2h-5.5V48.9h8.3
		c5.7,0,8.1,2.6,8.1,8v2.7c0,3.6-1.1,5.9-3.6,7.1c2.7,1.1,3.6,3.8,3.6,7.4v5.4c0,1.7,0.1,2.9,0.6,4.2H78.8z M72.8,53.9v10.7H75
		c2,0,3.3-0.9,3.3-3.7v-3.4c0-2.5-0.8-3.6-2.8-3.6H72.8z"/>
	<path fill="#FFFFFF" d="M95.7,64.4h7.7v11.1c0,5.6-2.8,8.8-8.2,8.8c-5.4,0-8.2-3.2-8.2-8.8V57.3c0-5.6,2.8-8.8,8.2-8.8
		c5.4,0,8.2,3.2,8.2,8.8v3.4h-5.2V57c0-2.5-1.1-3.4-2.8-3.4c-1.7,0-2.8,0.9-2.8,3.4v18.9c0,2.5,1.1,3.4,2.8,3.4
		c1.7,0,2.8-0.9,2.8-3.4v-6.4h-2.5V64.4z"/>
	<path fill="#FFFFFF" d="M106.9,48.9h5.5v34.9h-5.5V48.9z"/>
	<path fill="#FFFFFF" d="M134.2,83.9h-5.5l-0.9-6.3h-6.7l-0.9,6.3h-5l5.6-34.9h8L134.2,83.9z M121.6,72.8h5.3l-2.6-17.7L121.6,72.8z
		"/>
</g>
</svg>
