<?xml version="1.0" standalone="no"?>
<!DOCTYPE svg PUBLIC "-//W3C//DTD SVG 1.1//EN" "http://www.w3.org/Graphics/SVG/1.1/DTD/svg11.dtd" >
<svg>
<metadata>
Created by FontForge 20110222 at Sun Mar 22 18:20:40 2015
 By deploy user
4.1 Copyright 1992 Software Complement                                                                
</metadata>
<defs>
<font id="HighlandGothicFLF" horiz-adv-x="244" >
  <font-face 
    font-family="HighlandGothicFLF"
    font-weight="500"
    font-stretch="normal"
    units-per-em="1000"
    panose-1="2 0 6 3 4 0 0 2 0 4"
    ascent="800"
    descent="-200"
    x-height="556"
    cap-height="778"
    bbox="-96 -222 1184 1100"
    underline-thickness="76"
    underline-position="-66"
    unicode-range="U+0005-E00A"
  />
<missing-glyph horiz-adv-x="500" 
 />
    <glyph glyph-name=".notdef" horiz-adv-x="500" 
 />
    <glyph glyph-name="breve" horiz-adv-x="201" 
d="M73 778v11h-54v-39q0 -41 23 -62.5t58 -21.5q36 0 59 21.5t23 62.5v39h-54v-11q0 -14 -5 -25.5t-23 -11.5q-17 0 -22 11.5t-5 25.5z" />
    <glyph glyph-name="dotaccent" horiz-adv-x="171" 
d="M19 656h133v133h-133v-133z" />
    <glyph glyph-name="ring" horiz-adv-x="164" 
d="M113 726q0 -13 -9 -22t-22 -9t-22 9t-9 22t9 22t22 9t22 -9t9 -22zM82 789q-26 0 -44.5 -18.5t-18.5 -44.5t18.5 -44.5t44.5 -18.5t44.5 18.5t18.5 44.5t-18.5 44.5t-44.5 18.5z" />
    <glyph glyph-name="caron" horiz-adv-x="438" 
d="M19 194h400v307l-93 93h-307v-400zM378 392q0 55 -35 99l-34 -34q8 -11 15 -26.5t7 -38.5q0 -16 -5.5 -34t-16.5 -32l34 -33q19 21 27 47.5t8 51.5zM172 495q-35 -17 -50 -46.5t-15 -56.5q0 -32 12 -53t28 -34t31.5 -18t22.5 -5q19 0 31 12t12 24q0 20 -13 33
q-10 10 -31 24.5t-32 26.5q-10 11 -14.5 24t-4.5 25q0 29 23 44zM268 382q-13 14 -33 28t-28 23q-6 8 -9.5 14t-3.5 16q0 14 10.5 25.5t30.5 11.5q8 0 19.5 -4t29.5 -14l34 34q-23 19 -48.5 27t-50.5 8q-33 0 -62 -12.5t-50.5 -34t-34 -50.5t-12.5 -62t12.5 -62t34 -50.5
t50.5 -34t62 -12.5q26 0 50.5 8t47.5 26l-35 35q-5 -3 -8.5 -5.5t-11.5 -6.5q13 6 19 19t6 25q0 11 -4 23t-15 25zM24 589h300l90 -90v-300h-390v390zM372 392q0 -57 -30 -92l-26 27q11 14 15.5 31t4.5 34q0 22 -6 36.5t-14 28.5l27 26q17 -23 23 -47t6 -44zM163 399
q2 -2 7 -6.5t22 -17.5q14 -11 22 -17t13 -11q5 -7 8.5 -13.5t3.5 -15.5q0 -11 -11.5 -20.5t-26.5 -9.5q-12 0 -29.5 7.5t-30.5 21.5q-14 14 -21 32t-7 43q0 21 8.5 43t25.5 37q-2 -5 -2.5 -10.5t-0.5 -10.5q0 -13 4 -25.5t15 -26.5zM264 379q10 -14 14 -24t4 -21
q0 -14 -6.5 -24t-15 -17t-16.5 -10.5t-12 -4.5q20 3 33 9t17 8l27 -27q-23 -17 -46.5 -23t-43.5 -6q-32 0 -60 12t-49 32.5t-33 48.5t-12 60t12 60t33 49t49 33t60 12q23 0 46 -6.5t46 -23.5l-28 -28q-11 8 -25 12.5t-22 4.5q-19 0 -33.5 -11t-14.5 -31q0 -8 3 -16t12 -17
q7 -7 15 -13.5t13 -9.5q18 -13 24.5 -19.5z" />
    <glyph glyph-name="dotlessi" unicode="&#xd;" 
d="M194 0v556h-144v-556h144z" />
    <glyph glyph-name="fraction" horiz-adv-x="838" 
d="M10 0h89l389 778h-89zM96 311v467h-86v-467h86zM661 195q25 0 43.5 -13.5t18.5 -45.5q0 -28 -18 -42t-42 -14h-121q-23 0 -41.5 14t-18.5 42q0 32 18.5 45.5t43.5 13.5h117zM544 272q-24 0 -43 13t-19 44q0 29 18 43.5t42 14.5h121q24 0 42 -14.5t18 -43.5q0 -31 -19 -44
t-43 -13h-117zM511 467q-19 0 -42 -6t-43.5 -20t-34.5 -38t-14 -60q0 -25 7.5 -43t18.5 -31t23.5 -21.5t23.5 -14.5q-11 -6 -23.5 -14.5t-23.5 -21t-18.5 -30.5t-7.5 -43q0 -36 14 -60t34.5 -38t43.5 -20t42 -6h183q19 0 42 6t43.5 20t34.5 38t14 60q0 25 -7.5 43
t-18.5 30.5t-23.5 21t-23.5 14.5q11 6 23.5 14.5t23.5 21.5t18.5 31t7.5 43q0 36 -14 60t-34.5 38t-43.5 20t-42 6h-183z" />
    <glyph glyph-name="fi" horiz-adv-x="623" 
d="M429 612h144v166h-298q-41 0 -68.5 -13t-44.5 -34t-24 -48t-7 -55v-72h-106v-117h106v-439h144v439h154v-439h144v556h-298v28q0 24 6 39.5t16.5 23.5t24.5 11t31 3h76v-49z" />
    <glyph glyph-name="fl" horiz-adv-x="623" 
d="M573 778h-298q-41 0 -68.5 -13t-44.5 -34t-24 -48t-7 -55v-72h-106v-117h106v-439h144v439h154v-439h144v778zM429 556h-154v28q0 24 6 39.5t16.5 23.5t24.5 11t31 3h76v-105z" />
    <glyph glyph-name="Lslash" horiz-adv-x="718" 
d="M324 521v257h-164v-352l-135 -78l56 -97l79 46v-15q0 -78 21.5 -132t58.5 -87t85.5 -48t102.5 -15h270v133h-214q-38 0 -67.5 12t-50 33.5t-31.5 50.5t-11 64v98l135 78l-57 97z" />
    <glyph glyph-name="lslash" horiz-adv-x="407" 
d="M131 290v-290h144v373l107 62l-56 97l-51 -29v275h-144v-359l-106 -61l56 -97z" />
    <glyph glyph-name="Zcaron" horiz-adv-x="776" 
d="M737 133h-465v6l465 506v133h-697v-133h465v-4l-465 -508v-133h697v133zM379 952v11h-54v-39q0 -41 23 -62.5t58 -21.5q36 0 59 21.5t23 62.5v39h-54v-11q0 -14 -5 -25.5t-23 -11.5q-17 0 -22 11.5t-5 25.5z" />
    <glyph glyph-name="zcaron" horiz-adv-x="584" 
d="M559 117h-330v2l330 320v117h-534v-117h328v-3l-328 -319v-117h534v117zM268 716v11h-54v-39q0 -41 23 -62.5t58 -21.5q36 0 59 21.5t23 62.5v39h-54v-11q0 -14 -5 -25.5t-23 -11.5q-17 0 -22 11.5t-5 25.5z" />
    <glyph glyph-name="space" unicode=" " horiz-adv-x="360" 
 />
    <glyph glyph-name="exclam" unicode="!" 
d="M40 778v-583h164v583h-164zM40 0h164v133h-164v-133z" />
    <glyph glyph-name="quotedbl" unicode="&#x22;" horiz-adv-x="371" 
d="M19 778l44 -133h45l44 133v133h-133v-133zM219 778l44 -133h45l44 133v133h-133v-133z" />
    <glyph glyph-name="numbersign" unicode="#" horiz-adv-x="544" 
d="M212 474v117h117v-117h-117zM329 661h-117v117h-70v-117h-117v-70h117v-117h-117v-70h117v-116h70v116h117v-116h70v116h120v70h-120v117h120v70h-120v117h-70v-117z" />
    <glyph glyph-name="dollar" unicode="$" horiz-adv-x="622" 
d="M327 203v140h38q30 0 52.5 -19.5t22.5 -50.5q0 -30 -21.5 -50t-51.5 -20h-40zM287 343v-140h-233v-97h233v-50h40v50h95q22 0 50 7.5t53 26.5t41.5 51t16.5 82q0 49 -16.5 81.5t-41.5 51.5t-53 26.5t-50 7.5h-95v135h227v97h-227v51h-40v-51h-95q-23 0 -51 -7t-53 -25.5
t-41.5 -50.5t-16.5 -81q0 -50 16.5 -81.5t41.5 -50.5t53 -26t51 -7h95zM287 575v-135h-39q-29 0 -52 15t-23 53q0 34 22 50.5t51 16.5h41z" />
    <glyph glyph-name="percent" unicode="%" horiz-adv-x="516" 
d="M30 56h67l389 667h-67zM30 604q0 -25 5 -47t18.5 -38t35.5 -25.5t57 -9.5q34 0 56.5 9.5t36 25.5t18.5 38t5 47t-5 47t-18.5 38t-36 25.5t-56.5 9.5q-35 0 -57 -9.5t-35.5 -25.5t-18.5 -38t-5 -47zM146 686q22 0 34.5 -7t19.5 -18.5t9 -26t2 -30.5t-2 -30.5t-9 -26
t-19.5 -18.5t-34.5 -7t-35 7t-19.5 18.5t-8.5 26t-2 30.5t2 30.5t8.5 26t19.5 18.5t35 7zM250 173q0 -25 5 -47t18.5 -38t35.5 -25.5t57 -9.5q34 0 56.5 9.5t36 25.5t18.5 38t5 47t-5 47t-18.5 38t-36 25.5t-56.5 9.5q-35 0 -57 -9.5t-35.5 -25.5t-18.5 -38t-5 -47zM366 255
q22 0 34.5 -7t19.5 -18.5t9 -26t2 -30.5t-2 -30.5t-9 -26t-19.5 -18.5t-34.5 -7t-35 7t-19.5 18.5t-8.5 26t-2 30.5t2 30.5t8.5 26t19.5 18.5t35 7z" />
    <glyph glyph-name="ampersand" unicode="&#x26;" horiz-adv-x="885" 
d="M559 778h-319q-51 0 -90 -18t-65.5 -46t-40.5 -62.5t-14 -67.5q0 -67 28.5 -117t88.5 -78q-28 -14 -49.5 -31t-36.5 -38t-23 -48.5t-8 -62.5q0 -53 16 -93t51.5 -67.5t93 -41.5t141.5 -14q94 0 161.5 15.5t117.5 54t86.5 102.5t69.5 160h88v128h-389v-128h116
q-13 -93 -69.5 -146t-140.5 -53q-52 0 -85.5 7t-53 20.5t-27 33t-7.5 43.5q0 48 24 71.5t55 23.5h86v128h-86q-31 0 -55 24t-24 72q0 47 24 71.5t55 24.5h281v133z" />
    <glyph glyph-name="quotesingle" unicode="'" horiz-adv-x="171" 
d="M19 778l44 -133h45l44 133v133h-133v-133z" />
    <glyph glyph-name="parenleft" unicode="(" horiz-adv-x="366" 
d="M194 389q0 75 7.5 138.5t24 122.5t43.5 117t67 122q-153 -78 -228.5 -203.5t-77.5 -296.5t75.5 -296.5t230.5 -203.5q-40 64 -67 122t-43.5 117t-24 122.5t-7.5 138.5z" />
    <glyph glyph-name="parenright" unicode=")" horiz-adv-x="366" 
d="M172 389q0 -75 -7.5 -138.5t-24 -122.5t-43.5 -117t-67 -122q153 78 230.5 203.5t75.5 296.5t-77.5 296.5t-228.5 203.5q40 -64 67 -122t43.5 -117t24 -122.5t7.5 -138.5z" />
    <glyph glyph-name="asterisk" unicode="*" horiz-adv-x="334" 
d="M167 633q3 0 6 -5q9 -16 12 -39t12 -39q9 -15 25 -15q6 0 18.5 5t12.5 24q0 9 -4 16q-5 8 -12.5 15t-16 14.5t-16 15t-11.5 15.5q-2 4 -2 5q0 4 3 4.5t5 0.5q19 0 40.5 -9t39.5 -9q13 0 21.5 8.5t8.5 21.5t-8.5 21.5t-21.5 8.5q-18 0 -39.5 -9t-40.5 -9q-2 0 -5 0.5
t-3 4.5q0 1 2 5q4 8 11.5 15.5t16 15t16 14.5t12.5 15q4 7 4 16q0 8 -6.5 18.5t-24.5 10.5q-16 0 -25 -15q-9 -16 -12 -39t-12 -39q-3 -5 -6 -5q-4 0 -6 5q-9 16 -12 39t-12 39q-9 15 -25 15q-18 0 -24.5 -10.5t-6.5 -18.5q0 -9 4 -16q4 -8 12 -15t16.5 -14.5t16 -15
t11.5 -15.5q2 -4 2 -5q0 -4 -3 -4.5t-5 -0.5q-19 0 -40.5 9t-39.5 9q-13 0 -21.5 -8.5t-8.5 -21.5t8.5 -21.5t21.5 -8.5q18 0 39.5 9t40.5 9q2 0 5 -0.5t3 -4.5q0 -1 -2 -5q-4 -8 -11.5 -15.5t-16 -15t-16.5 -14.5t-12 -15q-4 -7 -4 -16q0 -19 12.5 -24t18.5 -5q16 0 25 15
q9 16 12 39t12 39q2 5 6 5z" />
    <glyph glyph-name="plus" unicode="+" horiz-adv-x="427" 
d="M19 445v-111h139v-139h111v139h139v111h-139v139h-111v-139h-139z" />
    <glyph glyph-name="comma" unicode="," horiz-adv-x="171" 
d="M86 0v-111q30 14 48 43.5t18 67.5v133h-133v-133h67z" />
    <glyph glyph-name="hyphen" unicode="-" horiz-adv-x="316" 
d="M19 445v-111h278v111h-278z" />
    <glyph glyph-name="period" unicode="." horiz-adv-x="171" 
d="M19 0h133v133h-133v-133z" />
    <glyph glyph-name="slash" unicode="/" horiz-adv-x="498" 
d="M10 0h89l389 778h-89z" />
    <glyph glyph-name="zero" unicode="0" horiz-adv-x="835" 
d="M30 389q0 -83 17.5 -156t61.5 -127t119 -85.5t190 -31.5q114 0 189 31.5t119 85.5t61.5 127t17.5 156q0 84 -17.5 157t-61.5 127t-119 85t-189 31q-115 0 -190 -31t-119 -85t-61.5 -127t-17.5 -157zM418 661q73 0 115.5 -23t65 -61t29 -87t6.5 -101t-6.5 -101t-29 -87
t-65 -61t-115.5 -23t-116 23t-65.5 61t-29 87t-6.5 101t6.5 101t29 87t65.5 61t116 23z" />
    <glyph glyph-name="one" unicode="1" 
d="M204 0v778h-164v-778h164z" />
    <glyph glyph-name="two" unicode="2" horiz-adv-x="779" 
d="M44 778v-133h405q20 0 38.5 -5t33 -16t23 -28.5t8.5 -43.5t-8.5 -44t-23 -29t-33 -15.5t-38.5 -4.5h-196q-51 0 -92 -16t-70 -46t-45 -72.5t-16 -95.5v-229h705v133h-541v96q0 16 6 33.5t19 31t32 22.5t46 9h230q31 0 69.5 10t72.5 35.5t57 69.5t23 112t-23 111.5t-57 69
t-72.5 35.5t-69.5 10h-483z" />
    <glyph glyph-name="three" unicode="3" horiz-adv-x="713" 
d="M561 389q18 10 39.5 24t40 35.5t30.5 51t12 71.5q0 60 -23 100t-57 63.5t-73 33.5t-70 10h-430v-133h375q20 0 38.5 -5t33 -16.5t23 -30t8.5 -44.5t-8.5 -44.5t-23 -30t-33 -16.5t-38.5 -5h-289v-128h289q20 0 38.5 -5t33 -16.5t23 -30t8.5 -44.5t-8.5 -44t-23 -29.5
t-33 -17t-38.5 -5.5h-375v-133h430q31 0 70 10t73 33.5t57 63.5t23 100q0 42 -12 71.5t-30.5 51t-40 35.5t-39.5 24z" />
    <glyph glyph-name="four" unicode="4" horiz-adv-x="817" 
d="M529 272h-319l319 340v-340zM20 292v-153h509v-139h164v139h104v133h-104v506h-217z" />
    <glyph glyph-name="five" unicode="5" horiz-adv-x="764" 
d="M686 778h-646v-453h411q21 0 39.5 -5t32.5 -16.5t22 -30t8 -44.5t-8 -44t-22 -29.5t-32.5 -17t-39.5 -5.5h-411v-133h472q31 0 69.5 10.5t72.5 36.5t57 70t23 112q0 67 -23 111.5t-57 70.5t-72.5 36.5t-69.5 10.5h-308v187h482v133z" />
    <glyph glyph-name="six" unicode="6" horiz-adv-x="793" 
d="M720 778h-311q-191 0 -285 -101t-94 -288q0 -104 23.5 -179t75 -123t132.5 -71t196 -23q57 0 112 13t98 42t69.5 77t26.5 117q0 46 -16 84.5t-46 66.5t-73.5 44t-98.5 16h-318q0 42 10.5 77t33 60.5t59 40t87.5 14.5h319v133zM211 325h268q51 0 80 -24.5t29 -71.5
q0 -28 -14.5 -47.5t-37 -32t-50.5 -18t-55 -5.5q-71 0 -114 19.5t-66.5 49.5t-31.5 65t-8 65z" />
    <glyph glyph-name="seven" unicode="7" horiz-adv-x="711" 
d="M20 778v-133h506l-506 -645h214l467 645v133h-681z" />
    <glyph glyph-name="eight" unicode="8" horiz-adv-x="811" 
d="M503 325q21 0 39.5 -5.5t32.5 -17.5t22.5 -30.5t8.5 -44.5q0 -47 -30 -70.5t-70 -23.5h-201q-39 0 -69.5 23.5t-30.5 70.5q0 26 8.5 44.5t22.5 30.5t32.5 17.5t39.5 5.5h195zM308 453q-20 0 -39 5.5t-33 17t-22.5 29.5t-8.5 44q0 47 30 71.5t70 24.5h201q41 0 70.5 -24.5
t29.5 -71.5q0 -26 -8.5 -44t-23 -29.5t-33 -17t-38.5 -5.5h-195zM253 778q-32 0 -70.5 -10t-72.5 -33.5t-57 -63.5t-23 -100q0 -42 12 -71.5t30.5 -51t40 -35.5t39.5 -24q-18 -10 -39.5 -24t-40 -35.5t-30.5 -51t-12 -71.5q0 -60 23 -100t57 -63.5t72.5 -33.5t70.5 -10h305
q31 0 70 10t73 33.5t57 63.5t23 100q0 42 -12 71.5t-30.5 51t-40 35.5t-39.5 24q18 10 39.5 24t40 35.5t30.5 51t12 71.5q0 60 -23 100t-57 63.5t-73 33.5t-70 10h-305z" />
    <glyph glyph-name="nine" unicode="9" horiz-adv-x="793" 
d="M73 0h311q191 0 285 100.5t94 288.5q0 104 -23.5 179t-75 123t-132.5 71t-196 23q-57 0 -112 -12.5t-98 -42t-69.5 -77t-26.5 -116.5q0 -46 16 -84.5t46 -67t73.5 -44.5t98.5 -16h319q0 -62 -19 -99.5t-48 -58t-62.5 -27.5t-61.5 -7h-319v-133zM583 453h-269
q-51 0 -80 24.5t-29 72.5q0 28 14.5 47.5t37 31.5t50.5 17.5t55 5.5q71 0 114.5 -19.5t67 -49t31.5 -64.5t8 -66z" />
    <glyph glyph-name="colon" unicode=":" horiz-adv-x="209" 
d="M38 0h133v133h-133v-133zM38 320h133v133h-133v-133z" />
    <glyph glyph-name="semicolon" unicode=";" horiz-adv-x="209" 
d="M38 320h133v133h-133v-133zM105 0v-111q30 14 48 43.5t18 67.5v133h-133v-133h67z" />
    <glyph glyph-name="less" unicode="&#x3c;" horiz-adv-x="249" 
d="M73 368q-8 7 -9.5 10t-1.5 11t2 11t10 10l145 127v66l-185 -159q-9 -8 -14 -12.5t-7 -10t-2.5 -12.5t-0.5 -20q0 -12 0.5 -19t2.5 -12.5t7 -10t14 -12.5l185 -160v67z" />
    <glyph glyph-name="equal" unicode="=" horiz-adv-x="298" 
d="M10 362v-84h278v84h-278zM10 501v-84h278v84h-278z" />
    <glyph glyph-name="greater" unicode="&#x3e;" horiz-adv-x="249" 
d="M176 368l-146 -126v-67l185 160q9 8 14 12.5t7 10t2.5 12.5t0.5 19q0 13 -0.5 20t-2.5 12.5t-7 10t-14 12.5l-185 159v-66l145 -127q8 -7 10 -10t2 -11t-1.5 -11t-9.5 -10z" />
    <glyph glyph-name="question" unicode="?" horiz-adv-x="775" 
d="M221 188v41q0 26 10 44.5t25 30t33 17t34 5.5h200q31 0 69.5 10t72.5 35.5t57 69t23 111.5t-23 111.5t-57 69t-72.5 35.5t-69.5 10h-498v-133h423q19 0 37.5 -5t32 -16t22 -28.5t8.5 -43.5t-8.5 -44t-22 -29t-32 -15.5t-37.5 -4.5h-169q-42 0 -81.5 -13.5t-71 -40.5
t-50.5 -66.5t-19 -90.5v-60h164zM221 133h-164v-133h164v133z" />
    <glyph glyph-name="at" unicode="@" horiz-adv-x="636" 
d="M510 474v-166h-100q-53 0 -77 17.5t-24 62.5t24.5 65.5t72.5 20.5h104zM30 389q0 -68 18.5 -128t59.5 -104t105 -69.5t156 -25.5h141v68h-141q-71 0 -122.5 20t-84.5 55t-48.5 82t-15.5 102q0 76 26 127t65.5 81t87.5 42.5t92 12.5q41 0 68.5 -6t43.5 -19t22.5 -34
t6.5 -51h-109q-57 0 -93.5 -13.5t-57.5 -35t-29 -49.5t-8 -56q0 -29 9.5 -55.5t30 -47t51.5 -33t74 -12.5h228v316q0 85 -59.5 124.5t-177.5 39.5q-48 0 -107 -14.5t-110.5 -51.5t-86.5 -101t-35 -164z" />
    <glyph glyph-name="A" unicode="A" horiz-adv-x="842" 
d="M10 0h175l76 189h320l76 -189h175l-328 778h-166zM421 588l111 -277h-222z" />
    <glyph glyph-name="B" unicode="B" horiz-adv-x="792" 
d="M40 0h473q46 0 89.5 9.5t77 33t53.5 63t20 99.5q0 66 -34.5 113.5t-96.5 70.5q62 27 91.5 78t29.5 118q0 48 -19.5 84t-52 60t-74 36.5t-84.5 12.5h-473v-778zM462 453h-258v197h258q57 0 84.5 -26t27.5 -72t-27.5 -72.5t-84.5 -26.5zM462 128h-258v197h258
q57 0 84.5 -26t27.5 -72q0 -47 -27.5 -73t-84.5 -26z" />
    <glyph glyph-name="C" unicode="C" horiz-adv-x="720" 
d="M681 778h-329q-158 0 -240 -100t-82 -289t82 -289t240 -100h329v133h-281q-101 0 -145 65.5t-44 190.5t44 190.5t145 65.5h281v133z" />
    <glyph glyph-name="D" unicode="D" horiz-adv-x="797" 
d="M204 645h193q101 0 145 -65.5t44 -190.5t-44 -190.5t-145 -65.5h-193v512zM40 0h411q157 0 236.5 100t79.5 289t-79.5 289t-236.5 100h-411v-778z" />
    <glyph glyph-name="E" unicode="E" horiz-adv-x="691" 
d="M649 453h-438q9 67 28.5 105.5t45.5 57.5t55.5 24t56.5 5h264v133h-309q-158 0 -240 -100t-82 -289t82 -289t240 -100h309v133h-264q-85 0 -128.5 45t-57.5 147h438v128z" />
    <glyph glyph-name="F" unicode="F" horiz-adv-x="681" 
d="M651 778h-279q-95 0 -159 -28t-102.5 -77.5t-54.5 -118t-16 -150.5v-404h164v325h435v128h-435q0 61 18.5 99t47 58.5t64 27.5t70.5 7h247v133z" />
    <glyph glyph-name="G" unicode="G" horiz-adv-x="793" 
d="M352 0h411v453h-380v-128h216v-192h-199q-101 0 -145 65.5t-44 190.5t44 190.5t145 65.5h363v133h-411q-158 0 -240 -100t-82 -289t82 -289t240 -100z" />
    <glyph glyph-name="H" unicode="H" horiz-adv-x="719" 
d="M40 0h164v325h311v-325h164v778h-164v-325h-311v325h-164v-778z" />
    <glyph glyph-name="I" unicode="I" 
d="M204 0v778h-164v-778h164z" />
    <glyph glyph-name="J" unicode="J" horiz-adv-x="598" 
d="M290 0q59 0 108 17t84.5 51.5t55.5 88t20 125.5v496h-164v-485q0 -44 -14.5 -74.5t-37.5 -49.5t-51.5 -27.5t-56.5 -8.5h-214v-133h270z" />
    <glyph glyph-name="K" unicode="K" horiz-adv-x="724" 
d="M204 385h15l288 -385h207l-332 402l332 376h-201l-294 -355h-15v355h-164v-778h164v385z" />
    <glyph glyph-name="L" unicode="L" horiz-adv-x="598" 
d="M308 0h270v133h-214q-38 0 -67.5 12t-50 33.5t-31.5 50.5t-11 64v485h-164v-496q0 -78 21.5 -132t58.5 -87t85.5 -48t102.5 -15z" />
    <glyph glyph-name="M" unicode="M" horiz-adv-x="974" 
d="M204 0v581h4l198 -581h162l197 581h5v-581h164v778h-246l-201 -600l-201 600h-246v-778h164z" />
    <glyph glyph-name="N" unicode="N" horiz-adv-x="770" 
d="M204 0v570h4l313 -570h209v778h-164v-569h-4l-313 569h-209v-778h164z" />
    <glyph glyph-name="O" unicode="O" horiz-adv-x="835" 
d="M30 389q0 -83 17.5 -156t61.5 -127t119 -85.5t190 -31.5q114 0 189 31.5t119 85.5t61.5 127t17.5 156q0 84 -17.5 157t-61.5 127t-119 85t-189 31q-115 0 -190 -31t-119 -85t-61.5 -127t-17.5 -157zM418 661q73 0 115.5 -23t65 -61t29 -87t6.5 -101t-6.5 -101t-29 -87
t-65 -61t-115.5 -23t-116 23t-65.5 61t-29 87t-6.5 101t6.5 101t29 87t65.5 61t116 23z" />
    <glyph glyph-name="P" unicode="P" horiz-adv-x="758" 
d="M204 278h293q52 0 94.5 15.5t73 47t47 78t16.5 109.5t-16.5 109.5t-47 78t-73 47t-94.5 15.5h-457v-778h164v278zM204 645h220q52 0 87 -27t35 -90q0 -62 -35 -89.5t-87 -27.5h-220v234z" />
    <glyph glyph-name="Q" unicode="Q" horiz-adv-x="844" 
d="M30 389q0 -83 17.5 -154.5t61.5 -123.5t119 -81.5t190 -29.5h396v122h-86q6 7 19 26t25.5 51t22.5 79t10 111q0 84 -17.5 157t-61.5 127t-119 85t-189 31q-115 0 -190 -31t-119 -85t-61.5 -127t-17.5 -157zM418 661q73 0 115.5 -23t65 -61t29 -87t6.5 -101t-6.5 -99.5
t-29 -83.5t-65 -57t-115.5 -21t-116 21t-65.5 57t-29 83.5t-6.5 99.5t6.5 101t29 87t65.5 61t116 23z" />
    <glyph glyph-name="R" unicode="R" horiz-adv-x="774" 
d="M204 645h192q26 0 48 -5t38.5 -17.5t26 -33.5t9.5 -52q0 -32 -9.5 -52.5t-26 -33t-38.5 -17.5t-48 -5h-192v216zM382 306l158 -306h195l-167 316q15 4 39.5 15t48 35.5t41 66.5t17.5 109q0 63 -16.5 107.5t-47 73t-73 42t-94.5 13.5h-443v-778h164v306h178z" />
    <glyph glyph-name="S" unicode="S" horiz-adv-x="830" 
d="M750 778h-497q-32 0 -70.5 -10t-72.5 -35.5t-57 -69t-23 -111.5t23 -112t57 -69.5t72.5 -35.5t70.5 -10h240q42 0 71.5 -27t29.5 -69q0 -21 -8 -38.5t-21.5 -30t-32 -20t-39.5 -7.5h-430v-133h506q31 0 69.5 10.5t72.5 36.5t57 70t23 112t-23 112.5t-57 70.5t-72.5 36.5
t-69.5 10.5h-241q-20 0 -38 5t-32 16t-22 28.5t-8 43.5q0 47 30 70t70 23h422v133z" />
    <glyph glyph-name="T" unicode="T" horiz-adv-x="727" 
d="M20 778v-133h261v-645h164v645h262v133h-687z" />
    <glyph glyph-name="U" unicode="U" horiz-adv-x="761" 
d="M40 778v-527q0 -63 26 -111.5t71.5 -82t108 -51t135.5 -17.5t135 17.5t107.5 51t71.5 82t26 111.5v527h-164v-521q0 -66 -46 -103t-130 -37q-85 0 -131 37t-46 103v521h-164z" />
    <glyph glyph-name="V" unicode="V" horiz-adv-x="872" 
d="M10 778l329 -778h169l354 778h-189l-238 -607h-4l-232 607h-189z" />
    <glyph glyph-name="W" unicode="W" horiz-adv-x="1152" 
d="M20 778l195 -778h194l165 577h4l165 -577h195l194 778h-178l-113 -576h-3l-165 576h-194l-165 -576h-3l-113 576h-178z" />
    <glyph glyph-name="X" unicode="X" horiz-adv-x="766" 
d="M20 778l279 -389l-279 -389h195l168 268l168 -268h195l-280 389l280 389h-195l-168 -268l-168 268h-195z" />
    <glyph glyph-name="Y" unicode="Y" horiz-adv-x="759" 
d="M10 778l288 -444v-334h164v334l287 444h-180l-189 -311l-189 311h-181z" />
    <glyph glyph-name="Z" unicode="Z" horiz-adv-x="776" 
d="M737 133h-465v6l465 506v133h-697v-133h465v-4l-465 -508v-133h697v133z" />
    <glyph glyph-name="bracketleft" unicode="[" horiz-adv-x="346" 
d="M40 923v-1067h267v133h-134v800h134v134h-267z" />
    <glyph glyph-name="backslash" unicode="\" horiz-adv-x="498" 
d="M488 0l-389 778h-89l389 -778h89z" />
    <glyph glyph-name="bracketright" unicode="]" horiz-adv-x="337" 
d="M297 923h-267v-134h134v-800h-134v-133h267v1067z" />
    <glyph glyph-name="asciicircum" unicode="^" horiz-adv-x="252" 
d="M143 778h-34l-90 -104h43l64 74l64 -74h43z" />
    <glyph glyph-name="underscore" unicode="_" horiz-adv-x="503" 
d="M0 -83v-84h556v84h-556z" />
    <glyph glyph-name="grave" unicode="`" horiz-adv-x="216" 
d="M19 778l111 -111h67l-111 111h-67z" />
    <glyph glyph-name="a" unicode="a" horiz-adv-x="621" 
d="M437 334h-240q-42 0 -74 -12.5t-53.5 -34.5t-33 -53t-11.5 -67q0 -74 44 -120.5t128 -46.5h384v359q0 55 -19 93t-48 61t-63 33t-64 10h-323v-111h280q28 0 46 -7.5t28.5 -19.5t14.5 -28t4 -32v-24zM437 111h-185q-14 0 -27 2t-23.5 8t-17 17t-6.5 29t6.5 29t17 17
t23.5 8t27 2h185v-112z" />
    <glyph glyph-name="b" unicode="b" horiz-adv-x="659" 
d="M367 0q126 0 196.5 70.5t70.5 207.5t-70.5 207.5t-196.5 70.5h-173v222h-144v-778h317zM194 439h151q63 0 99.5 -43t36.5 -118t-36.5 -118t-99.5 -43h-151v322z" />
    <glyph glyph-name="c" unicode="c" horiz-adv-x="545" 
d="M520 556h-228q-126 0 -196.5 -70.5t-70.5 -207.5t70.5 -207.5t196.5 -70.5h228v117h-206q-63 0 -99.5 43t-36.5 118t36.5 118t99.5 43h206v117z" />
    <glyph glyph-name="d" unicode="d" horiz-adv-x="659" 
d="M292 0h317v778h-144v-222h-173q-126 0 -196.5 -70.5t-70.5 -207.5t70.5 -207.5t196.5 -70.5zM465 439v-322h-151q-63 0 -99.5 43t-36.5 118t36.5 118t99.5 43h151z" />
    <glyph glyph-name="e" unicode="e" horiz-adv-x="545" 
d="M314 111q-45 0 -70 9t-37 24t-16 35.5t-7 43.5h324v111h-324q3 39 13.5 61t28 33.5t40 14t48.5 2.5h206v111h-228q-126 0 -196.5 -70.5t-70.5 -207.5t70.5 -207.5t196.5 -70.5h228v111h-206z" />
    <glyph glyph-name="f" unicode="f" horiz-adv-x="454" 
d="M429 778h-154q-41 0 -68.5 -13t-44.5 -34t-24 -48t-7 -55v-72h-106v-117h106v-439h144v439h154v117h-154v28q0 24 6 39.5t16.5 23.5t24.5 11t31 3h76v117z" />
    <glyph glyph-name="g" unicode="g" horiz-adv-x="649" 
d="M609 556h-317q-126 0 -196.5 -70.5t-70.5 -207.5t70.5 -207.5t196.5 -70.5h173q0 -66 -21.5 -88.5t-66.5 -22.5h-291v-111h320q42 0 79 13.5t64.5 40.5t43.5 69t16 99v556zM465 439v-322h-151q-63 0 -99.5 43t-36.5 118t36.5 118t99.5 43h151z" />
    <glyph glyph-name="h" unicode="h" horiz-adv-x="627" 
d="M194 439h168q22 0 37.5 -8t25 -20t14 -26t4.5 -26v-359h144v386q0 32 -12 62.5t-35.5 54.5t-58 38.5t-79.5 14.5h-208v222h-144v-778h144v439z" />
    <glyph glyph-name="i" unicode="i" 
d="M194 0v556h-144v-556h144zM194 612v133h-144v-133h144z" />
    <glyph glyph-name="j" unicode="j" 
d="M50 -18q0 -28 -11 -46t-27.5 -28.5t-36 -14.5t-36.5 -4h-35v-111h69q46 0 86.5 13t70.5 37.5t47 60.5t17 81v586h-144v-574zM194 612v133h-144v-133h144z" />
    <glyph glyph-name="k" unicode="k" horiz-adv-x="638" 
d="M194 274h6l228 -274h185l-263 292l238 264h-175l-213 -245h-6v467h-144v-778h144v274z" />
    <glyph glyph-name="l" unicode="l" 
d="M194 0v778h-144v-778h144z" />
    <glyph glyph-name="m" unicode="m" horiz-adv-x="884" 
d="M375 439v-439h144v439h100q25 0 41 -8t25 -20t12 -26t3 -26v-359h144v388q0 31 -12.5 61.5t-36 54t-56.5 38t-75 14.5h-614v-556h144v439h181z" />
    <glyph glyph-name="n" unicode="n" horiz-adv-x="610" 
d="M390 556h-340v-556h144v439h151q25 0 41 -8t25 -20t12 -26t3 -26v-359h144v388q0 31 -12.5 61.5t-36 54t-56.5 38t-75 14.5z" />
    <glyph glyph-name="o" unicode="o" horiz-adv-x="642" 
d="M321 450q42 0 69.5 -13t44 -36.5t23 -55t6.5 -67.5t-6.5 -67.5t-23 -55t-44 -36.5t-69.5 -13t-69.5 13t-44 36.5t-23 55t-6.5 67.5t6.5 67.5t23 55t44 36.5t69.5 13zM25 278q0 -71 21 -125t59.5 -90.5t93 -55t122.5 -18.5t122.5 18.5t93 55t59.5 90.5t21 125t-21 125
t-59.5 90.5t-93 55t-122.5 18.5t-122.5 -18.5t-93 -55t-59.5 -90.5t-21 -125z" />
    <glyph glyph-name="p" unicode="p" horiz-adv-x="659" 
d="M367 556h-317v-778h144v222h173q126 0 196.5 70.5t70.5 207.5t-70.5 207.5t-196.5 70.5zM194 117v322h151q63 0 99.5 -43t36.5 -118t-36.5 -118t-99.5 -43h-151z" />
    <glyph glyph-name="q" unicode="q" horiz-adv-x="659" 
d="M292 556q-126 0 -196.5 -70.5t-70.5 -207.5t70.5 -207.5t196.5 -70.5h173v-222h144v778h-317zM465 117h-151q-63 0 -99.5 43t-36.5 118t36.5 118t99.5 43h151v-322z" />
    <glyph glyph-name="r" unicode="r" horiz-adv-x="489" 
d="M194 439h70q16 0 27 -6t17.5 -14t9 -18t2.5 -17v-56h144v83q0 22 -8 47.5t-27 47.5t-49 36t-74 14h-256v-556h144v439z" />
    <glyph glyph-name="s" unicode="s" horiz-adv-x="636" 
d="M212 223h155q14 0 27.5 -2t24.5 -8t17.5 -17t6.5 -29t-6.5 -29t-17.5 -17t-24.5 -8t-27.5 -2h-327v-111h384q84 0 128 46.5t44 120.5q0 36 -11.5 67t-33 53t-53.5 34.5t-74 12.5h-155q-14 0 -27.5 2t-24.5 7.5t-17.5 16.5t-6.5 29t6.5 29t17.5 17t24.5 8t27.5 2h297v111
h-354q-42 0 -74 -12.5t-53.5 -34.5t-33 -53t-11.5 -67q0 -73 44 -119.5t128 -46.5z" />
    <glyph glyph-name="t" unicode="t" horiz-adv-x="433" 
d="M125 439v-254q0 -41 8 -75t28 -58.5t54 -38t87 -13.5h106v117h-55q-32 0 -49 11.5t-24.5 29.5t-9 39.5t-1.5 41.5v200h139v117h-139v222h-144v-222h-100v-117h100z" />
    <glyph glyph-name="u" unicode="u" horiz-adv-x="619" 
d="M425 117h-150q-26 0 -42 8.5t-24.5 20.5t-11.5 26t-3 26v358h-144v-387q0 -43 16.5 -74.5t43 -52.5t58.5 -31.5t62 -10.5h339v556h-144v-439z" />
    <glyph glyph-name="v" unicode="v" horiz-adv-x="663" 
d="M13 556l234 -556h169l234 556h-164l-152 -390h-5l-152 390h-164z" />
    <glyph glyph-name="w" unicode="w" horiz-adv-x="991" 
d="M13 556l200 -556h164l115 374h6l116 -374h163l201 556h-164l-116 -374h-5l-116 374h-164l-115 -374h-6l-115 374h-164z" />
    <glyph glyph-name="x" unicode="x" horiz-adv-x="645" 
d="M25 556l216 -278l-216 -278h175l123 174l122 -174h175l-216 278l216 278h-175l-122 -174l-123 174h-175z" />
    <glyph glyph-name="y" unicode="y" horiz-adv-x="619" 
d="M569 -35v591h-144v-439h-150q-26 0 -42 8.5t-24.5 20.5t-11.5 26t-3 26v358h-144v-374q0 -51 16.5 -86t44.5 -56.5t63 -30.5t73 -9h178v-39q0 -13 -5.5 -25.5t-16.5 -23t-27 -17t-38 -6.5h-274v-111h317q33 0 66.5 13.5t60.5 38.5t44 59t17 76z" />
    <glyph glyph-name="z" unicode="z" horiz-adv-x="584" 
d="M559 117h-330v2l330 320v117h-534v-117h328v-3l-328 -319v-117h534v117z" />
    <glyph glyph-name="braceleft" unicode="{" horiz-adv-x="378" 
d="M273 923q-37 0 -62.5 -13t-41.5 -33t-23 -43.5t-7 -44.5v-266q0 -17 -6 -29.5t-16 -20.5t-21.5 -12.5t-23.5 -4.5h-33v-133h33q29 0 48 -20t19 -47v-267q0 -27 10.5 -51t29 -42.5t43 -29t51.5 -10.5h66v133h-33q-11 0 -17.5 4t-10 9t-4.5 11t-1 9v300q0 9 -4 20.5
t-12.5 21.5t-21 17.5t-28.5 7.5q16 0 28.5 7.5t21 17.5t12.5 21.5t4 20.5v300q0 19 11.5 26t21.5 7h33v134h-66z" />
    <glyph glyph-name="bar" unicode="|" horiz-adv-x="214" 
d="M174 -50v878h-134v-878h134z" />
    <glyph glyph-name="braceright" unicode="}" horiz-adv-x="378" 
d="M105 923h-66v-134h33q10 0 21.5 -7t11.5 -26v-300q0 -9 4 -20.5t12.5 -21.5t20.5 -17.5t29 -7.5q-17 0 -29 -7.5t-20.5 -17.5t-12.5 -21.5t-4 -20.5v-300q0 -3 -1 -9t-4.5 -11t-10 -9t-17.5 -4h-33v-133h66q27 0 51.5 10.5t43 29t29 42.5t10.5 51v267q0 27 19 47t48 20
h33v133h-33q-12 0 -23.5 4.5t-21.5 12.5t-16 20.5t-6 29.5v266q0 21 -7 44.5t-23 43.5t-41.5 33t-62.5 13z" />
    <glyph glyph-name="asciitilde" unicode="~" horiz-adv-x="310" 
d="M182 694q0 41 -23 62.5t-58 21.5q-36 0 -59 -21.5t-23 -62.5v-92h54v64q0 14 5 25.5t23 11.5q17 0 22 -11.5t5 -25.5q0 -41 23 -62.5t58 -21.5q36 0 59 21.5t23 62.5v92h-54v-64q0 -14 -5 -25.5t-23 -11.5q-17 0 -22 11.5t-5 25.5z" />
    <glyph glyph-name="quotesinglbase" unicode="&#x201a;" horiz-adv-x="171" 
d="M19 0l44 -133h45l44 133v133h-133v-133z" />
    <glyph glyph-name="florin" unicode="&#x192;" horiz-adv-x="858" 
d="M40 778v-778h778v778h-778z" />
    <glyph glyph-name="quotedblbase" unicode="&#x201e;" horiz-adv-x="371" 
d="M19 0l44 -133h45l44 133v133h-133v-133zM219 0l44 -133h45l44 133v133h-133v-133z" />
    <glyph glyph-name="ellipsis" unicode="&#x2026;" horiz-adv-x="571" 
d="M19 0h133v133h-133v-133zM219 0h133v133h-133v-133zM419 0h133v133h-133v-133z" />
    <glyph glyph-name="dagger" unicode="&#x2020;" horiz-adv-x="348" 
d="M25 671v-84h107v-298h84v298h107v84h-107v107h-84v-107h-107z" />
    <glyph glyph-name="daggerdbl" unicode="&#x2021;" horiz-adv-x="348" 
d="M216 481v106h107v84h-107v107h-84v-107h-107v-84h107v-106h-107v-84h107v-107h84v107h107v84h-107z" />
    <glyph glyph-name="circumflex" unicode="&#x2c6;" horiz-adv-x="252" 
d="M143 778h-34l-90 -104h43l64 74l64 -74h43z" />
    <glyph glyph-name="perthousand" unicode="&#x2030;" horiz-adv-x="781" 
d="M30 56h67l389 667h-67zM30 604q0 -25 5 -47t18.5 -38t35.5 -25.5t57 -9.5q34 0 56.5 9.5t36 25.5t18.5 38t5 47t-5 47t-18.5 38t-36 25.5t-56.5 9.5q-35 0 -57 -9.5t-35.5 -25.5t-18.5 -38t-5 -47zM146 686q22 0 34.5 -7t19.5 -18.5t9 -26t2 -30.5t-2 -30.5t-9 -26
t-19.5 -18.5t-34.5 -7t-35 7t-19.5 18.5t-8.5 26t-2 30.5t2 30.5t8.5 26t19.5 18.5t35 7zM250 173q0 -25 5 -47t18.5 -38t35.5 -25.5t57 -9.5q34 0 56.5 9.5t36 25.5t18.5 38t5 47t-5 47t-18.5 38t-36 25.5t-56.5 9.5q-35 0 -57 -9.5t-35.5 -25.5t-18.5 -38t-5 -47zM366 255
q22 0 34.5 -7t19.5 -18.5t9 -26t2 -30.5t-2 -30.5t-9 -26t-19.5 -18.5t-34.5 -7t-35 7t-19.5 18.5t-8.5 26t-2 30.5t2 30.5t8.5 26t19.5 18.5t35 7zM524 173q0 -25 5 -47t18.5 -38t35.5 -25.5t57 -9.5q34 0 56.5 9.5t36 25.5t18.5 38t5 47t-5 47t-18.5 38t-36 25.5
t-56.5 9.5q-35 0 -57 -9.5t-35.5 -25.5t-18.5 -38t-5 -47zM640 255q22 0 34.5 -7t19.5 -18.5t9 -26t2 -30.5t-2 -30.5t-9 -26t-19.5 -18.5t-34.5 -7t-35 7t-19.5 18.5t-8.5 26t-2 30.5t2 30.5t8.5 26t19.5 18.5t35 7z" />
    <glyph glyph-name="Scaron" unicode="&#x160;" horiz-adv-x="830" 
d="M750 778h-497q-32 0 -70.5 -10t-72.5 -35.5t-57 -69t-23 -111.5t23 -112t57 -69.5t72.5 -35.5t70.5 -10h240q42 0 71.5 -27t29.5 -69q0 -21 -8 -38.5t-21.5 -30t-32 -20t-39.5 -7.5h-430v-133h506q31 0 69.5 10.5t72.5 36.5t57 70t23 112t-23 112.5t-57 70.5t-72.5 36.5
t-69.5 10.5h-241q-20 0 -38 5t-32 16t-22 28.5t-8 43.5q0 47 30 70t70 23h422v133zM392 952v11h-54v-39q0 -41 23 -62.5t58 -21.5q36 0 59 21.5t23 62.5v39h-54v-11q0 -14 -5 -25.5t-23 -11.5q-17 0 -22 11.5t-5 25.5z" />
    <glyph glyph-name="guilsinglleft" unicode="&#x2039;" horiz-adv-x="207" 
d="M73 368q-8 7 -9.5 10t-1.5 11t2 11t10 10l103 90v67l-143 -123q-9 -8 -14 -12.5t-7 -10t-2.5 -12.5t-0.5 -20q0 -12 0.5 -19t2.5 -12.5t7 -10t14 -12.5l143 -124v67z" />
    <glyph glyph-name="OE" unicode="&#x152;" horiz-adv-x="1114" 
d="M627 748q-82 41 -209 41q-115 0 -190 -31t-119 -85t-61.5 -127t-17.5 -157q0 -83 17.5 -156t61.5 -127t119 -85.5t190 -31.5q66 0 118 10.5t91 29.5q66 -29 148 -29h309v133h-264q-85 0 -128.5 45t-57.5 147h438v128h-438q9 67 28.5 105.5t45.5 57.5t55.5 24t56.5 5h264
v133h-309q-85 0 -148 -30zM514 647q-61 -98 -61 -258t60 -258q-40 -14 -95 -14q-73 0 -116 23t-65.5 61t-29 87t-6.5 101t6.5 101t29 87t65.5 61t116 23q56 0 96 -14z" />
    <glyph glyph-name="quoteleft" unicode="&#x2018;" horiz-adv-x="171" 
d="M85 800v111q-30 -14 -48 -43.5t-18 -67.5v-133h133v133h-67z" />
    <glyph glyph-name="quoteright" unicode="&#x2019;" horiz-adv-x="171" 
d="M86 778v-111q30 14 48 43.5t18 67.5v133h-133v-133h67z" />
    <glyph glyph-name="quotedblleft" unicode="&#x201c;" horiz-adv-x="372" 
d="M286 800v111q-30 -14 -48 -43.5t-18 -67.5v-133h133v133h-67zM85 800v111q-30 -14 -48 -43.5t-18 -67.5v-133h133v133h-67z" />
    <glyph glyph-name="quotedblright" unicode="&#x201d;" horiz-adv-x="371" 
d="M86 778v-111q30 14 48 43.5t18 67.5v133h-133v-133h67zM286 778v-111q30 14 48 43.5t18 67.5v133h-133v-133h67z" />
    <glyph glyph-name="bullet" unicode="&#x2022;" horiz-adv-x="273" 
d="M25 389q0 -23 9 -43t24 -35t35 -24t43 -9t43.5 9t35.5 24t24 35t9 43t-9 43t-24 35t-35.5 24t-43.5 9t-43 -9t-35 -24t-24 -35t-9 -43z" />
    <glyph glyph-name="endash" unicode="&#x2013;" horiz-adv-x="538" 
d="M19 445v-111h500v111h-500z" />
    <glyph glyph-name="emdash" unicode="&#x2014;" horiz-adv-x="1038" 
d="M19 445v-111h1000v111h-1000z" />
    <glyph glyph-name="tilde" unicode="&#x2dc;" horiz-adv-x="310" 
d="M182 694q0 41 -23 62.5t-58 21.5q-36 0 -59 -21.5t-23 -62.5v-92h54v64q0 14 5 25.5t23 11.5q17 0 22 -11.5t5 -25.5q0 -41 23 -62.5t58 -21.5q36 0 59 21.5t23 62.5v92h-54v-64q0 -14 -5 -25.5t-23 -11.5q-17 0 -22 11.5t-5 25.5z" />
    <glyph glyph-name="trademark" unicode="&#x2122;" horiz-adv-x="1224" 
d="M20 778v-94h186v-460h117v460h187v94h-490zM663 224v414h3l141 -414h116l140 414h4v-414h117v554h-176l-143 -428l-143 428h-176v-554h117z" />
    <glyph glyph-name="scaron" unicode="&#x161;" horiz-adv-x="636" 
d="M295 716v11h-54v-39q0 -41 23 -62.5t58 -21.5q36 0 59 21.5t23 62.5v39h-54v-11q0 -14 -5 -25.5t-23 -11.5q-17 0 -22 11.5t-5 25.5zM212 223h155q14 0 27.5 -2t24.5 -8t17.5 -17t6.5 -29t-6.5 -29t-17.5 -17t-24.5 -8t-27.5 -2h-327v-111h384q84 0 128 46.5t44 120.5
q0 36 -11.5 67t-33 53t-53.5 34.5t-74 12.5h-155q-14 0 -27.5 2t-24.5 7.5t-17.5 16.5t-6.5 29t6.5 29t17.5 17t24.5 8t27.5 2h297v111h-354q-42 0 -74 -12.5t-53.5 -34.5t-33 -53t-11.5 -67q0 -73 44 -119.5t128 -46.5z" />
    <glyph glyph-name="guilsinglright" unicode="&#x203a;" horiz-adv-x="207" 
d="M134 368l-104 -90v-67l143 124q9 8 14 12.5t7 10t2.5 12.5t0.5 19q0 13 -0.5 20t-2.5 12.5t-7 10t-14 12.5l-143 123v-67l103 -90q8 -7 10 -10t2 -11t-1.5 -11t-9.5 -10z" />
    <glyph glyph-name="oe" unicode="&#x153;" horiz-adv-x="825" 
d="M347 448q-42 -68 -42 -170q0 -53 11 -95.5t31 -74.5q-7 -2 -13 -2h-13q-42 0 -69.5 13t-44 36.5t-23 55t-6.5 67.5t6.5 67.5t23 55t44 36.5t69.5 13q8 0 14 -0.5t12 -1.5zM466 540q-62 27 -145 27q-68 0 -122.5 -18.5t-93 -55t-59.5 -90.5t-21 -125t21 -125t59.5 -90.5
t93 -55t122.5 -18.5q84 0 144 27q47 -16 107 -16h228v111h-206q-45 0 -70 9t-37 24t-16 35.5t-7 43.5h324v111h-324q3 39 13.5 61t28 33.5t40 14t48.5 2.5h206v111h-228q-61 0 -106 -16z" />
    <glyph glyph-name="Ydieresis" unicode="&#x178;" horiz-adv-x="759" 
d="M10 778l288 -444v-334h164v334l287 444h-180l-189 -311l-189 311h-181zM221 849h133v133h-133v-133zM410 849h133v133h-133v-133z" />
    <glyph glyph-name="exclamdown" unicode="&#xa1;" 
d="M40 0h164v584h-164v-584zM40 778v-133h164v133h-164z" />
    <glyph glyph-name="cent" unicode="&#xa2;" horiz-adv-x="545" 
d="M316 551v-324q-64 0 -101 43.5t-37 118.5t37 118.5t101 43.5zM382 227v324h138v116h-138v55h-66v-55h-24q-126 0 -196.5 -70.5t-70.5 -207.5t70.5 -207.5t196.5 -70.5h24v-55h66v55h138v116h-138z" />
    <glyph glyph-name="sterling" unicode="&#xa3;" horiz-adv-x="616" 
d="M586 778h-338q-72 0 -115.5 -18t-66 -49t-29.5 -72.5t-7 -89.5v-549h556v133h-434v190h434v133h-434v93q0 32 8 51t21 29t30.5 13t36.5 3h338v133z" />
    <glyph glyph-name="currency" unicode="&#xa4;" horiz-adv-x="424" 
d="M107 457q-20 -29 -20 -68q0 -36 19 -66l-81 -81l39 -39l81 81q29 -20 67 -20q37 0 68 20l80 -81l39 39l-81 81q19 30 19 66t-19 68l81 81l-39 39l-82 -82q-30 19 -66 19t-66 -19l-82 82l-39 -39zM274 389q0 -26 -18 -44t-44 -18t-44 18t-18 44t18 44t44 18t44 -18t18 -44
z" />
    <glyph glyph-name="yen" unicode="&#xa5;" horiz-adv-x="759" 
d="M10 778l234 -361h-127v-56h163l18 -27v-28h-111v-56h111v-250h164v250h111v56h-111v28l17 27h164v56h-128l234 361h-180l-189 -311l-189 311h-181z" />
    <glyph glyph-name="brokenbar" unicode="&#xa6;" horiz-adv-x="214" 
d="M174 356h-134v-406h134v406zM40 423h134v405h-134v-405z" />
    <glyph glyph-name="section" unicode="&#xa7;" horiz-adv-x="503" 
d="M299 308l-133 78q-18 11 -23 20t-5 24q0 24 13.5 35.5t30.5 11.5q12 0 23 -6l132 -79q19 -11 23.5 -20t4.5 -24q0 -24 -13 -35t-30 -11q-13 0 -23 6zM464 351q0 21 -6 37.5t-14.5 28.5t-18.5 20t-17 13l-202 119q-2 2 -9 8t-7 21t9.5 23.5t23.5 8.5h188v75h-200
q-33 0 -57 -9t-39.5 -23.5t-22.5 -33.5t-7 -40q0 -20 5 -33.5t11 -22.5t11.5 -13.5t7.5 -5.5q-12 -6 -26.5 -14t-26.5 -20t-20 -27.5t-8 -35.5q0 -21 6 -37t14.5 -28.5t18 -21t17.5 -12.5l202 -119q2 -2 9 -7.5t7 -20.5t-9 -23.5t-23 -8.5h-189v-75h200q33 0 57 8.5
t39.5 23.5t22.5 34t7 40q0 19 -5 32.5t-11 22.5t-12 13.5t-7 6.5q12 5 26.5 13.5t26.5 20t20 27t8 35.5z" />
    <glyph glyph-name="dieresis" unicode="&#xa8;" horiz-adv-x="360" 
d="M19 645h133v133h-133v-133zM208 645h133v133h-133v-133z" />
    <glyph glyph-name="copyright" unicode="&#xa9;" horiz-adv-x="838" 
d="M30 389q0 -80 31 -150.5t84 -123.5t123.5 -84t150.5 -31t151 31t124 84t83.5 123.5t30.5 150.5t-30.5 151t-83.5 124t-124 83.5t-151 30.5t-150.5 -30.5t-123.5 -83.5t-84 -124t-31 -151zM419 78q-64 0 -120.5 24.5t-99 67t-67 99t-24.5 120.5t24.5 120.5t67 99t99 67
t120.5 24.5t120.5 -24.5t99 -67t67 -99t24.5 -120.5t-24.5 -120.5t-67 -99t-99 -67t-120.5 -24.5zM549 583h-164q-78 0 -119.5 -50t-41.5 -144t41.5 -144t119.5 -50h164v66h-140q-51 0 -72.5 32.5t-21.5 95.5t21.5 95.5t72.5 32.5h140v66z" />
    <glyph glyph-name="ordfeminine" unicode="&#xaa;" horiz-adv-x="350" 
d="M230 492h-120q-42 0 -64 -23.5t-22 -59.5q0 -38 22 -61t64 -23h192v180q0 28 -9.5 46.5t-23.5 30t-31 16.5t-32 5h-162v-56h140q28 0 37 -13t9 -30v-12zM230 381h-92q-14 0 -25.5 4.5t-11.5 23.5q0 18 11.5 23t25.5 5h92v-56zM31 264v-69h278v69h-278z" />
    <glyph glyph-name="guillemotleft" unicode="&#xab;" horiz-adv-x="388" 
d="M73 368q-8 7 -9.5 10t-1.5 11t2 11t10 10l145 127v66l-185 -159q-9 -8 -14 -12.5t-7 -10t-2.5 -12.5t-0.5 -20q0 -12 0.5 -19t2.5 -12.5t7 -10t14 -12.5l185 -160v67zM212 368q-8 7 -9.5 10t-1.5 11t2 11t10 10l145 127v66l-185 -159q-9 -8 -14 -12.5t-7 -10t-2.5 -12.5
t-0.5 -20q0 -12 0.5 -19t2.5 -12.5t7 -10t14 -12.5l185 -160v67z" />
    <glyph glyph-name="logicalnot" unicode="&#xac;" horiz-adv-x="439" 
d="M414 445h-389v-111h278v-111h111v222z" />
    <glyph glyph-name="registered" unicode="&#xae;" horiz-adv-x="616" 
d="M30 500q0 -58 22 -108.5t59.5 -88t88 -59.5t108.5 -22t108.5 22t88 59.5t59.5 88t22 108.5t-22 108.5t-59.5 88t-88 59.5t-108.5 22t-108.5 -22t-88 -59.5t-59.5 -88t-22 -108.5zM308 278q-46 0 -86.5 17.5t-70.5 47.5t-47.5 70.5t-17.5 86.5t17.5 86.5t47.5 70.5
t70.5 47.5t86.5 17.5t86.5 -17.5t70.5 -47.5t47.5 -70.5t17.5 -86.5t-17.5 -86.5t-47.5 -70.5t-70.5 -47.5t-86.5 -17.5zM257 595h67q18 0 30 -8t12 -30q0 -23 -12 -30.5t-30 -7.5h-67v76zM319 475l55 -107h68l-58 110q5 2 13.5 6t17 12.5t14.5 23t6 37.5q0 45 -22 64
t-59 19h-155v-272h58v107h62z" />
    <glyph glyph-name="macron" unicode="&#xaf;" horiz-adv-x="177" 
d="M19 778v-56h139v56h-139z" />
    <glyph glyph-name="degree" unicode="&#xb0;" horiz-adv-x="288" 
d="M144 778q-26 0 -48.5 -10t-39.5 -27t-27 -39.5t-10 -48.5t10 -48.5t27 -39.5t39.5 -27t48.5 -10t48.5 10t39.5 27t27 39.5t10 48.5t-10 48.5t-27 39.5t-39.5 27t-48.5 10zM206 653q0 -26 -18 -44t-44 -18t-44 18t-18 44t18 44t44 18t44 -18t18 -44z" />
    <glyph glyph-name="plusminus" unicode="&#xb1;" horiz-adv-x="427" 
d="M19 556v-111h139v-139h111v139h139v111h-139v139h-111v-139h-139zM19 195v-111h389v111h-389z" />
    <glyph glyph-name="twosuperior" unicode="&#xb2;" horiz-adv-x="481" 
d="M33 778v-80h243q24 0 43 -12t19 -44t-19 -43.5t-43 -11.5h-118q-61 0 -97 -37.5t-36 -100.5v-138h423v80h-325v58q0 20 15 38.5t47 18.5h138q19 0 42 6t43 21.5t34 41.5t14 67t-14 67.5t-34 41.5t-43 21t-42 6h-290z" />
    <glyph glyph-name="threesuperior" unicode="&#xb3;" horiz-adv-x="442" 
d="M344 545q11 6 23.5 14.5t23.5 21t18.5 30.5t7.5 43q0 36 -14 60t-34.5 38t-43.5 20t-42 6h-258v-80h225q24 0 43 -12.5t19 -44.5t-19 -45t-43 -13h-173v-77h173q24 0 43 -12.5t19 -44.5t-19 -45t-43 -13h-225v-80h258q19 0 42 6t43.5 20t34.5 38t14 60q0 25 -7.5 43
t-18.5 30.5t-23.5 21.5t-23.5 15z" />
    <glyph glyph-name="acute" unicode="&#xb4;" horiz-adv-x="216" 
d="M197 778h-67l-111 -111h67z" />
    <glyph glyph-name="mu" unicode="&#xb5;" horiz-adv-x="716" 
d="M89 169q0 -54 -2 -96t-8.5 -79t-19 -74t-34.5 -80h72q32 44 56 88t41 87q36 -15 75 -15h200q5 -35 16.5 -62.5t36.5 -54.5h144q-21 23 -32.5 46t-17.5 50t-7 60.5t-1 77.5v439h-144v-439h-150q-26 0 -42 8.5t-24.5 20.5t-11.5 26t-3 26v358h-144v-387z" />
    <glyph glyph-name="paragraph" unicode="&#xb6;" horiz-adv-x="810" 
d="M554 278v-278h54v645h108v-645h54v778h-509q-52 0 -94.5 -15.5t-73 -47t-47 -78t-16.5 -109.5t16.5 -109.5t47 -78t73 -47t94.5 -15.5h293z" />
    <glyph glyph-name="periodcentered" unicode="&#xb7;" horiz-adv-x="171" 
d="M19 323h133v133h-133v-133z" />
    <glyph glyph-name="periodcentered" unicode="&#x2219;" horiz-adv-x="171" 
d="M19 323h133v133h-133v-133z" />
    <glyph glyph-name="onesuperior" unicode="&#xb9;" horiz-adv-x="151" 
d="M111 311v467h-86v-467h86z" />
    <glyph glyph-name="ordmasculine" unicode="&#xba;" horiz-adv-x="346" 
d="M172 550q42 0 57 -24.5t15 -61.5t-15 -61.5t-57 -24.5q-41 0 -56 24.5t-15 61.5t15 61.5t56 24.5zM24 464q0 -72 40 -108.5t108 -36.5q69 0 108.5 36.5t39.5 108.5t-39.5 108.5t-108.5 36.5q-68 0 -108 -36.5t-40 -108.5zM41 264v-69h278v69h-278z" />
    <glyph glyph-name="guillemotright" unicode="&#xbb;" horiz-adv-x="388" 
d="M315 368l-146 -126v-67l185 160q9 8 14 12.5t7 10t2.5 12.5t0.5 19q0 13 -0.5 20t-2.5 12.5t-7 10t-14 12.5l-185 159v-66l145 -127q8 -7 10 -10t2 -11t-1.5 -11t-9.5 -10zM176 368l-146 -126v-67l185 160q9 8 14 12.5t7 10t2.5 12.5t0.5 19q0 13 -0.5 20t-2.5 12.5
t-7 10t-14 12.5l-185 159v-66l145 -127q8 -7 10 -10t2 -11t-1.5 -11t-9.5 -10z" />
    <glyph glyph-name="onequarter" unicode="&#xbc;" horiz-adv-x="773" 
d="M25 0h89l389 778h-89zM111 311v467h-86v-467h86zM588 163h-192l192 204v-204zM282 175v-92h306v-83h98v83h62v80h-62v304h-130z" />
    <glyph glyph-name="onehalf" unicode="&#xbd;" horiz-adv-x="873" 
d="M25 0h89l389 778h-89zM111 311v467h-86v-467h86zM411 467v-80h243q25 0 43.5 -12t18.5 -44t-18.5 -44t-43.5 -12h-117q-61 0 -97.5 -37t-36.5 -101v-137h423v80h-325v57q0 20 15 39t47 19h138q19 0 42 6t43 21.5t34 41.5t14 67t-14 67.5t-34 41.5t-43 21t-42 6h-290z" />
    <glyph glyph-name="threequarters" unicode="&#xbe;" horiz-adv-x="1039" 
d="M291 0h89l389 778h-89zM854 163h-192l192 204v-204zM548 175v-92h306v-83h98v83h62v80h-62v304h-130zM344 545q11 6 23.5 14.5t23.5 21t18.5 30.5t7.5 43q0 36 -14 60t-34.5 38t-43.5 20t-42 6h-258v-80h225q24 0 43 -12.5t19 -44.5t-19 -45t-43 -13h-173v-77h173
q24 0 43 -12.5t19 -44.5t-19 -45t-43 -13h-225v-80h258q19 0 42 6t43.5 20t34.5 38t14 60q0 25 -7.5 43t-18.5 30.5t-23.5 21.5t-23.5 15z" />
    <glyph glyph-name="questiondown" unicode="&#xbf;" horiz-adv-x="780" 
d="M554 590v-41q0 -26 -10 -44.5t-25 -30t-33 -17t-34 -5.5h-200q-31 0 -69.5 -10t-72.5 -35.5t-57 -69t-23 -111.5t23 -111.5t57 -69t72.5 -35.5t69.5 -10h498v133h-423q-20 0 -38 5t-31.5 16t-22 28.5t-8.5 43.5t8.5 44t22 29t31.5 15.5t38 4.5h169q42 0 81.5 13.5
t71 40.5t50.5 66.5t19 90.5v60h-164zM554 645h164v133h-164v-133z" />
    <glyph glyph-name="Agrave" unicode="&#xc0;" horiz-adv-x="842" 
d="M10 0h175l76 189h320l76 -189h175l-328 778h-166zM421 588l111 -277h-222zM295 961l111 -111h67l-111 111h-67z" />
    <glyph glyph-name="Aacute" unicode="&#xc1;" horiz-adv-x="842" 
d="M10 0h175l76 189h320l76 -189h175l-328 778h-166zM421 588l111 -277h-222zM551 961h-67l-111 -111h67z" />
    <glyph glyph-name="Acircumflex" unicode="&#xc2;" horiz-adv-x="842" 
d="M10 0h175l76 189h320l76 -189h175l-328 778h-166zM421 588l111 -277h-222zM440 953h-34l-90 -104h43l64 74l64 -74h43z" />
    <glyph glyph-name="Atilde" unicode="&#xc3;" horiz-adv-x="842" 
d="M10 0h175l76 189h320l76 -189h175l-328 778h-166zM421 588l111 -277h-222zM453 952q0 41 -23 62.5t-58 21.5q-36 0 -59 -21.5t-23 -62.5v-92h54v64q0 14 5 25.5t23 11.5q17 0 22 -11.5t5 -25.5q0 -41 23 -62.5t58 -21.5q36 0 59 21.5t23 62.5v92h-54v-64q0 -14 -5 -25.5
t-23 -11.5q-17 0 -22 11.5t-5 25.5z" />
    <glyph glyph-name="Adieresis" unicode="&#xc4;" horiz-adv-x="842" 
d="M10 0h175l76 189h320l76 -189h175l-328 778h-166zM421 588l111 -277h-222zM269 849h133v133h-133v-133zM458 849h133v133h-133v-133z" />
    <glyph glyph-name="Aring" unicode="&#xc5;" horiz-adv-x="842" 
d="M10 0h175l76 189h320l76 -189h175l-328 778h-166zM421 588l111 -277h-222zM430 1100q-26 0 -48.5 -10t-39.5 -27t-27 -39.5t-10 -48.5t10 -48.5t27 -39.5t39.5 -27t48.5 -10t48.5 10t39.5 27t27 39.5t10 48.5t-10 48.5t-27 39.5t-39.5 27t-48.5 10zM492 975
q0 -26 -18 -44t-44 -18t-44 18t-18 44t18 44t44 18t44 -18t18 -44z" />
    <glyph glyph-name="AE" unicode="&#xc6;" horiz-adv-x="1131" 
d="M421 588l111 -277h-222zM657 0h444v133h-261q-85 0 -128.5 45t-57.5 147h435v128h-435q9 67 28.5 105.5t45.5 57.5t55.5 24t56.5 5h261v133h-763l-328 -778h175l76 189h320z" />
    <glyph glyph-name="Ccedilla" unicode="&#xc7;" horiz-adv-x="720" 
d="M494 -106v106h187v133h-281q-101 0 -145 65.5t-44 190.5t44 190.5t145 65.5h281v133h-329q-158 0 -240 -100t-82 -289t82 -289t240 -100h75v-53q0 -14 -14 -14h-53v-66h107q11 0 19 8t8 19z" />
    <glyph glyph-name="Egrave" unicode="&#xc8;" horiz-adv-x="691" 
d="M649 453h-438q9 67 28.5 105.5t45.5 57.5t55.5 24t56.5 5h264v133h-309q-158 0 -240 -100t-82 -289t82 -289t240 -100h309v133h-264q-85 0 -128.5 45t-57.5 147h438v128zM354 961l111 -111h67l-111 111h-67z" />
    <glyph glyph-name="Eacute" unicode="&#xc9;" horiz-adv-x="691" 
d="M649 453h-438q9 67 28.5 105.5t45.5 57.5t55.5 24t56.5 5h264v133h-309q-158 0 -240 -100t-82 -289t82 -289t240 -100h309v133h-264q-85 0 -128.5 45t-57.5 147h438v128zM567 961h-67l-111 -111h67z" />
    <glyph glyph-name="Ecircumflex" unicode="&#xca;" horiz-adv-x="691" 
d="M649 453h-438q9 67 28.5 105.5t45.5 57.5t55.5 24t56.5 5h264v133h-309q-158 0 -240 -100t-82 -289t82 -289t240 -100h309v133h-264q-85 0 -128.5 45t-57.5 147h438v128zM467 953h-34l-90 -104h43l64 74l64 -74h43z" />
    <glyph glyph-name="Edieresis" unicode="&#xcb;" horiz-adv-x="691" 
d="M649 453h-438q9 67 28.5 105.5t45.5 57.5t55.5 24t56.5 5h264v133h-309q-158 0 -240 -100t-82 -289t82 -289t240 -100h309v133h-264q-85 0 -128.5 45t-57.5 147h438v128zM284 849h133v133h-133v-133zM473 849h133v133h-133v-133z" />
    <glyph glyph-name="Igrave" unicode="&#xcc;" 
d="M204 0v778h-164v-778h164zM14 961l111 -111h67l-111 111h-67z" />
    <glyph glyph-name="Iacute" unicode="&#xcd;" 
d="M204 0v778h-164v-778h164zM230 961h-67l-111 -111h67z" />
    <glyph glyph-name="Icircumflex" unicode="&#xce;" 
d="M204 0v778h-164v-778h164zM139 953h-34l-90 -104h43l64 74l64 -74h43z" />
    <glyph glyph-name="Idieresis" unicode="&#xcf;" 
d="M-39 849h133v133h-133v-133zM150 849h133v133h-133v-133zM204 0v778h-164v-778h164z" />
    <glyph glyph-name="Eth" unicode="&#xd0;" horiz-adv-x="887" 
d="M294 453v192h193q101 0 145 -65.5t44 -190.5t-44 -190.5t-145 -65.5h-193v192h111v128h-111zM130 325v-325h411q157 0 236.5 100t79.5 289t-79.5 289t-236.5 100h-411v-325h-111v-128h111z" />
    <glyph glyph-name="Ntilde" unicode="&#xd1;" horiz-adv-x="770" 
d="M204 0v570h4l313 -570h209v778h-164v-569h-4l-313 569h-209v-778h164zM430 952q0 41 -23 62.5t-58 21.5q-36 0 -59 -21.5t-23 -62.5v-92h54v64q0 14 5 25.5t23 11.5q17 0 22 -11.5t5 -25.5q0 -41 23 -62.5t58 -21.5q36 0 59 21.5t23 62.5v92h-54v-64q0 -14 -5 -25.5
t-23 -11.5q-17 0 -22 11.5t-5 25.5z" />
    <glyph glyph-name="Ograve" unicode="&#xd2;" horiz-adv-x="835" 
d="M30 389q0 -83 17.5 -156t61.5 -127t119 -85.5t190 -31.5q114 0 189 31.5t119 85.5t61.5 127t17.5 156q0 84 -17.5 157t-61.5 127t-119 85t-189 31q-115 0 -190 -31t-119 -85t-61.5 -127t-17.5 -157zM418 661q73 0 115.5 -23t65 -61t29 -87t6.5 -101t-6.5 -101t-29 -87
t-65 -61t-115.5 -23t-116 23t-65.5 61t-29 87t-6.5 101t6.5 101t29 87t65.5 61t116 23zM283 961l111 -111h67l-111 111h-67z" />
    <glyph glyph-name="Oacute" unicode="&#xd3;" horiz-adv-x="835" 
d="M30 389q0 -83 17.5 -156t61.5 -127t119 -85.5t190 -31.5q114 0 189 31.5t119 85.5t61.5 127t17.5 156q0 84 -17.5 157t-61.5 127t-119 85t-189 31q-115 0 -190 -31t-119 -85t-61.5 -127t-17.5 -157zM418 661q73 0 115.5 -23t65 -61t29 -87t6.5 -101t-6.5 -101t-29 -87
t-65 -61t-115.5 -23t-116 23t-65.5 61t-29 87t-6.5 101t6.5 101t29 87t65.5 61t116 23zM572 961h-67l-111 -111h67z" />
    <glyph glyph-name="Ocircumflex" unicode="&#xd4;" horiz-adv-x="835" 
d="M30 389q0 -83 17.5 -156t61.5 -127t119 -85.5t190 -31.5q114 0 189 31.5t119 85.5t61.5 127t17.5 156q0 84 -17.5 157t-61.5 127t-119 85t-189 31q-115 0 -190 -31t-119 -85t-61.5 -127t-17.5 -157zM418 661q73 0 115.5 -23t65 -61t29 -87t6.5 -101t-6.5 -101t-29 -87
t-65 -61t-115.5 -23t-116 23t-65.5 61t-29 87t-6.5 101t6.5 101t29 87t65.5 61t116 23zM444 953h-34l-90 -104h43l64 74l64 -74h43z" />
    <glyph glyph-name="Otilde" unicode="&#xd5;" horiz-adv-x="835" 
d="M30 389q0 -83 17.5 -156t61.5 -127t119 -85.5t190 -31.5q114 0 189 31.5t119 85.5t61.5 127t17.5 156q0 84 -17.5 157t-61.5 127t-119 85t-189 31q-115 0 -190 -31t-119 -85t-61.5 -127t-17.5 -157zM418 661q73 0 115.5 -23t65 -61t29 -87t6.5 -101t-6.5 -101t-29 -87
t-65 -61t-115.5 -23t-116 23t-65.5 61t-29 87t-6.5 101t6.5 101t29 87t65.5 61t116 23zM454 952q0 41 -23 62.5t-58 21.5q-36 0 -59 -21.5t-23 -62.5v-92h54v64q0 14 5 25.5t23 11.5q17 0 22 -11.5t5 -25.5q0 -41 23 -62.5t58 -21.5q36 0 59 21.5t23 62.5v92h-54v-64
q0 -14 -5 -25.5t-23 -11.5q-17 0 -22 11.5t-5 25.5z" />
    <glyph glyph-name="Odieresis" unicode="&#xd6;" horiz-adv-x="835" 
d="M30 389q0 -83 17.5 -156t61.5 -127t119 -85.5t190 -31.5q114 0 189 31.5t119 85.5t61.5 127t17.5 156q0 84 -17.5 157t-61.5 127t-119 85t-189 31q-115 0 -190 -31t-119 -85t-61.5 -127t-17.5 -157zM418 661q73 0 115.5 -23t65 -61t29 -87t6.5 -101t-6.5 -101t-29 -87
t-65 -61t-115.5 -23t-116 23t-65.5 61t-29 87t-6.5 101t6.5 101t29 87t65.5 61t116 23zM266 849h133v133h-133v-133zM455 849h133v133h-133v-133z" />
    <glyph glyph-name="multiply" unicode="&#xd7;" horiz-adv-x="414" 
d="M30 291l79 -78l98 98l98 -98l79 78l-99 99l99 98l-79 78l-98 -98l-98 98l-79 -78l99 -98z" />
    <glyph glyph-name="Oslash" unicode="&#xd8;" horiz-adv-x="835" 
d="M719 681l86 97h-89l-46 -53q-35 22 -70.5 34.5t-68.5 19t-62 8.5t-51 2q-115 0 -190 -31t-119 -85t-61.5 -127t-17.5 -157q0 -24 2 -59t11 -75t26 -80.5t47 -76.5l-86 -98h89l47 53q34 -23 69.5 -35.5t69.5 -19t63 -8t50 -1.5q114 0 189 31.5t119 85.5t61.5 127t17.5 156
q0 27 -2.5 62.5t-11 74.5t-25.5 79t-47 76zM573 616l-351 -398q-9 18 -15 41t-9.5 46.5t-4.5 45.5t-1 38q0 52 8 102t32 89t68.5 63t117.5 24q41 0 79.5 -10t75.5 -41zM610 557q2 -6 6 -17t8 -29.5t7 -48t3 -73.5q0 -52 -6.5 -102t-29 -89t-65 -63t-115.5 -24
q-15 0 -33.5 1.5t-39.5 6.5t-42.5 15t-40.5 27z" />
    <glyph glyph-name="Ugrave" unicode="&#xd9;" horiz-adv-x="761" 
d="M40 778v-527q0 -63 26 -111.5t71.5 -82t108 -51t135.5 -17.5t135 17.5t107.5 51t71.5 82t26 111.5v527h-164v-521q0 -66 -46 -103t-130 -37q-85 0 -131 37t-46 103v521h-164zM257 961l111 -111h67l-111 111h-67z" />
    <glyph glyph-name="Uacute" unicode="&#xda;" horiz-adv-x="761" 
d="M40 778v-527q0 -63 26 -111.5t71.5 -82t108 -51t135.5 -17.5t135 17.5t107.5 51t71.5 82t26 111.5v527h-164v-521q0 -66 -46 -103t-130 -37q-85 0 -131 37t-46 103v521h-164zM544 961h-67l-111 -111h67z" />
    <glyph glyph-name="Ucircumflex" unicode="&#xdb;" horiz-adv-x="761" 
d="M40 778v-527q0 -63 26 -111.5t71.5 -82t108 -51t135.5 -17.5t135 17.5t107.5 51t71.5 82t26 111.5v527h-164v-521q0 -66 -46 -103t-130 -37q-85 0 -131 37t-46 103v521h-164zM416 953h-34l-90 -104h43l64 74l64 -74h43z" />
    <glyph glyph-name="Udieresis" unicode="&#xdc;" horiz-adv-x="761" 
d="M40 778v-527q0 -63 26 -111.5t71.5 -82t108 -51t135.5 -17.5t135 17.5t107.5 51t71.5 82t26 111.5v527h-164v-521q0 -66 -46 -103t-130 -37q-85 0 -131 37t-46 103v521h-164zM238 849h133v133h-133v-133zM427 849h133v133h-133v-133z" />
    <glyph glyph-name="Yacute" unicode="&#xdd;" horiz-adv-x="759" 
d="M10 778l288 -444v-334h164v334l287 444h-180l-189 -311l-189 311h-181zM527 961h-67l-111 -111h67z" />
    <glyph glyph-name="Thorn" unicode="&#xde;" horiz-adv-x="758" 
d="M40 778v-778h164v139h293q52 0 94.5 15.5t73 47t47 78t16.5 109.5t-16.5 109.5t-47 77.5t-73 47t-94.5 16h-293v139h-164zM204 506h220q52 0 87 -27t35 -90q0 -62 -35 -89.5t-87 -27.5h-220v234z" />
    <glyph glyph-name="germandbls" unicode="&#xdf;" horiz-adv-x="943" 
d="M519 556q-42 0 -74 -12.5t-53.5 -34.5t-33 -53t-11.5 -67q0 -73 44 -119.5t128 -46.5h155q14 0 27.5 -2t24.5 -8t17.5 -17t6.5 -29t-6.5 -29t-17.5 -17t-24.5 -8t-27.5 -2h-327v-111h384q84 0 128 46.5t44 120.5q0 36 -11.5 67t-33 53t-53.5 34.5t-74 12.5h-155
q-14 0 -27.5 2t-24.5 7.5t-17.5 16.5t-6.5 29t6.5 29t17.5 17t24.5 8t27.5 2q41 0 68.5 12.5t44.5 33.5t24 48t7 56v33q0 28 -7 55t-24 48t-44.5 34t-68.5 13h-301q-41 0 -68.5 -13t-44.5 -34t-24 -48t-7 -55v-72h-106v-117h106v-439h144v584q0 24 6 39.5t16 23.5t24 11
t31 3h147q34 0 55.5 -11t21.5 -41q0 -25 -11.5 -39t-45.5 -14z" />
    <glyph glyph-name="agrave" unicode="&#xe0;" horiz-adv-x="621" 
d="M437 334h-240q-42 0 -74 -12.5t-53.5 -34.5t-33 -53t-11.5 -67q0 -74 44 -120.5t128 -46.5h384v359q0 55 -19 93t-48 61t-63 33t-64 10h-323v-111h280q28 0 46 -7.5t28.5 -19.5t14.5 -28t4 -32v-24zM437 111h-185q-14 0 -27 2t-23.5 8t-17 17t-6.5 29t6.5 29t17 17
t23.5 8t27 2h185v-112zM157 722l111 -111h67l-111 111h-67z" />
    <glyph glyph-name="aacute" unicode="&#xe1;" horiz-adv-x="621" 
d="M437 334h-240q-42 0 -74 -12.5t-53.5 -34.5t-33 -53t-11.5 -67q0 -74 44 -120.5t128 -46.5h384v359q0 55 -19 93t-48 61t-63 33t-64 10h-323v-111h280q28 0 46 -7.5t28.5 -19.5t14.5 -28t4 -32v-24zM437 111h-185q-14 0 -27 2t-23.5 8t-17 17t-6.5 29t6.5 29t17 17
t23.5 8t27 2h185v-112zM396 722h-67l-111 -111h67z" />
    <glyph glyph-name="acircumflex" unicode="&#xe2;" horiz-adv-x="621" 
d="M437 334h-240q-42 0 -74 -12.5t-53.5 -34.5t-33 -53t-11.5 -67q0 -74 44 -120.5t128 -46.5h384v359q0 55 -19 93t-48 61t-63 33t-64 10h-323v-111h280q28 0 46 -7.5t28.5 -19.5t14.5 -28t4 -32v-24zM437 111h-185q-14 0 -27 2t-23.5 8t-17 17t-6.5 29t6.5 29t17 17
t23.5 8t27 2h185v-112zM324 716h-34l-90 -104h43l64 74l64 -74h43z" />
    <glyph glyph-name="atilde" unicode="&#xe3;" horiz-adv-x="621" 
d="M437 334h-240q-42 0 -74 -12.5t-53.5 -34.5t-33 -53t-11.5 -67q0 -74 44 -120.5t128 -46.5h384v359q0 55 -19 93t-48 61t-63 33t-64 10h-323v-111h280q28 0 46 -7.5t28.5 -19.5t14.5 -28t4 -32v-24zM437 111h-185q-14 0 -27 2t-23.5 8t-17 17t-6.5 29t6.5 29t17 17
t23.5 8t27 2h185v-112zM334 716q0 41 -23 62.5t-58 21.5q-36 0 -59 -21.5t-23 -62.5v-92h54v64q0 14 5 25.5t23 11.5q17 0 22 -11.5t5 -25.5q0 -41 23 -62.5t58 -21.5q36 0 59 21.5t23 62.5v92h-54v-64q0 -14 -5 -25.5t-23 -11.5q-17 0 -22 11.5t-5 25.5z" />
    <glyph glyph-name="adieresis" unicode="&#xe4;" horiz-adv-x="621" 
d="M437 334h-240q-42 0 -74 -12.5t-53.5 -34.5t-33 -53t-11.5 -67q0 -74 44 -120.5t128 -46.5h384v359q0 55 -19 93t-48 61t-63 33t-64 10h-323v-111h280q28 0 46 -7.5t28.5 -19.5t14.5 -28t4 -32v-24zM437 111h-185q-14 0 -27 2t-23.5 8t-17 17t-6.5 29t6.5 29t17 17
t23.5 8t27 2h185v-112zM113 612h133v133h-133v-133zM302 612h133v133h-133v-133z" />
    <glyph glyph-name="aring" unicode="&#xe5;" horiz-adv-x="621" 
d="M437 334h-240q-42 0 -74 -12.5t-53.5 -34.5t-33 -53t-11.5 -67q0 -74 44 -120.5t128 -46.5h384v359q0 55 -19 93t-48 61t-63 33t-64 10h-323v-111h280q28 0 46 -7.5t28.5 -19.5t14.5 -28t4 -32v-24zM437 111h-185q-14 0 -27 2t-23.5 8t-17 17t-6.5 29t6.5 29t17 17
t23.5 8t27 2h185v-112zM326 861q-26 0 -48.5 -10t-39.5 -27t-27 -39.5t-10 -48.5t10 -48.5t27 -39.5t39.5 -27t48.5 -10t48.5 10t39.5 27t27 39.5t10 48.5t-10 48.5t-27 39.5t-39.5 27t-48.5 10zM388 736q0 -26 -18 -44t-44 -18t-44 18t-18 44t18 44t44 18t44 -18t18 -44z
" />
    <glyph glyph-name="ae" unicode="&#xe6;" horiz-adv-x="942" 
d="M437 334h-240q-42 0 -74 -12.5t-53.5 -34.5t-33 -53t-11.5 -67q0 -74 44 -120.5t128 -46.5h384v17q47 -17 108 -17h228v111h-206q-45 0 -70 9t-37 24t-16 35.5t-7 43.5h324v111h-324q3 39 13.5 61t28 33.5t40 14t48.5 2.5h206v111h-228q-104 0 -170 -48q-35 30 -70.5 39
t-82.5 9h-302v-111h280q28 0 46 -7.5t28.5 -19.5t14.5 -28t4 -32v-24zM437 111h-185q-14 0 -27 2t-23.5 8t-17 17t-6.5 29t6.5 29t17 17t23.5 8t27 2h185v-112z" />
    <glyph glyph-name="ccedilla" unicode="&#xe7;" horiz-adv-x="545" 
d="M405 0h115v117h-206q-63 0 -99.5 43t-36.5 118t36.5 118t99.5 43h206v117h-228q-126 0 -196.5 -70.5t-70.5 -207.5t70.5 -207.5t196.5 -70.5h47v-53q0 -14 -14 -14h-53v-66h106q11 0 19 8t8 19v106z" />
    <glyph glyph-name="egrave" unicode="&#xe8;" horiz-adv-x="545" 
d="M314 111q-45 0 -70 9t-37 24t-16 35.5t-7 43.5h324v111h-324q3 39 13.5 61t28 33.5t40 14t48.5 2.5h206v111h-228q-126 0 -196.5 -70.5t-70.5 -207.5t70.5 -207.5t196.5 -70.5h228v111h-206zM274 722l111 -111h67l-111 111h-67z" />
    <glyph glyph-name="eacute" unicode="&#xe9;" horiz-adv-x="545" 
d="M314 111q-45 0 -70 9t-37 24t-16 35.5t-7 43.5h324v111h-324q3 39 13.5 61t28 33.5t40 14t48.5 2.5h206v111h-228q-126 0 -196.5 -70.5t-70.5 -207.5t70.5 -207.5t196.5 -70.5h228v111h-206zM491 722h-67l-111 -111h67z" />
    <glyph glyph-name="ecircumflex" unicode="&#xea;" horiz-adv-x="545" 
d="M314 111q-45 0 -70 9t-37 24t-16 35.5t-7 43.5h324v111h-324q3 39 13.5 61t28 33.5t40 14t48.5 2.5h206v111h-228q-126 0 -196.5 -70.5t-70.5 -207.5t70.5 -207.5t196.5 -70.5h228v111h-206zM365 716h-34l-90 -104h43l64 74l64 -74h43z" />
    <glyph glyph-name="edieresis" unicode="&#xeb;" horiz-adv-x="545" 
d="M314 111q-45 0 -70 9t-37 24t-16 35.5t-7 43.5h324v111h-324q3 39 13.5 61t28 33.5t40 14t48.5 2.5h206v111h-228q-126 0 -196.5 -70.5t-70.5 -207.5t70.5 -207.5t196.5 -70.5h228v111h-206zM192 612h133v133h-133v-133zM381 612h133v133h-133v-133z" />
    <glyph glyph-name="igrave" unicode="&#xec;" 
d="M13 722l111 -111h67l-111 111h-67zM194 0v556h-144v-556h144z" />
    <glyph glyph-name="iacute" unicode="&#xed;" 
d="M231 722h-67l-111 -111h67zM194 0v556h-144v-556h144z" />
    <glyph glyph-name="icircumflex" unicode="&#xee;" 
d="M139 716h-34l-90 -104h43l64 74l64 -74h43zM194 0v556h-144v-556h144z" />
    <glyph glyph-name="idieresis" unicode="&#xef;" 
d="M-39 612h133v133h-133v-133zM150 612h133v133h-133v-133zM194 0v556h-144v-556h144z" />
    <glyph glyph-name="eth" unicode="&#xf0;" horiz-adv-x="642" 
d="M321 450q42 0 69.5 -13t44 -36.5t23 -55t6.5 -67.5t-6.5 -67.5t-23 -55t-44 -36.5t-69.5 -13t-69.5 13t-44 36.5t-23 55t-6.5 67.5t6.5 67.5t23 55t44 36.5t69.5 13zM617 278q0 96 -16 166t-44 119.5t-67 82t-85 54.5l54 54h-67l-34 -34q-29 11 -59 18.5t-60 15.5h-111
q55 -14 101.5 -32t84.5 -46l-47 -47h67l17 17q19 -19 34.5 -40.5t28.5 -48.5q-25 6 -50.5 8t-42.5 2q-68 0 -122.5 -18.5t-93 -55t-59.5 -90.5t-21 -125t21 -125t59.5 -90.5t93 -55t122.5 -18.5t122.5 18.5t93 55t59.5 90.5t21 125z" />
    <glyph glyph-name="ntilde" unicode="&#xf1;" horiz-adv-x="610" 
d="M390 556h-340v-556h144v439h151q25 0 41 -8t25 -20t12 -26t3 -26v-359h144v388q0 31 -12.5 61.5t-36 54t-56.5 38t-75 14.5zM341 716q0 41 -23 62.5t-58 21.5q-36 0 -59 -21.5t-23 -62.5v-92h54v64q0 14 5 25.5t23 11.5q17 0 22 -11.5t5 -25.5q0 -41 23 -62.5t58 -21.5
q36 0 59 21.5t23 62.5v92h-54v-64q0 -14 -5 -25.5t-23 -11.5q-17 0 -22 11.5t-5 25.5z" />
    <glyph glyph-name="ograve" unicode="&#xf2;" horiz-adv-x="642" 
d="M321 450q42 0 69.5 -13t44 -36.5t23 -55t6.5 -67.5t-6.5 -67.5t-23 -55t-44 -36.5t-69.5 -13t-69.5 13t-44 36.5t-23 55t-6.5 67.5t6.5 67.5t23 55t44 36.5t69.5 13zM25 278q0 -71 21 -125t59.5 -90.5t93 -55t122.5 -18.5t122.5 18.5t93 55t59.5 90.5t21 125t-21 125
t-59.5 90.5t-93 55t-122.5 18.5t-122.5 -18.5t-93 -55t-59.5 -90.5t-21 -125zM180 722l111 -111h67l-111 111h-67z" />
    <glyph glyph-name="oacute" unicode="&#xf3;" horiz-adv-x="642" 
d="M321 450q42 0 69.5 -13t44 -36.5t23 -55t6.5 -67.5t-6.5 -67.5t-23 -55t-44 -36.5t-69.5 -13t-69.5 13t-44 36.5t-23 55t-6.5 67.5t6.5 67.5t23 55t44 36.5t69.5 13zM25 278q0 -71 21 -125t59.5 -90.5t93 -55t122.5 -18.5t122.5 18.5t93 55t59.5 90.5t21 125t-21 125
t-59.5 90.5t-93 55t-122.5 18.5t-122.5 -18.5t-93 -55t-59.5 -90.5t-21 -125zM470 722h-67l-111 -111h67z" />
    <glyph glyph-name="ocircumflex" unicode="&#xf4;" horiz-adv-x="642" 
d="M321 450q42 0 69.5 -13t44 -36.5t23 -55t6.5 -67.5t-6.5 -67.5t-23 -55t-44 -36.5t-69.5 -13t-69.5 13t-44 36.5t-23 55t-6.5 67.5t6.5 67.5t23 55t44 36.5t69.5 13zM25 278q0 -71 21 -125t59.5 -90.5t93 -55t122.5 -18.5t122.5 18.5t93 55t59.5 90.5t21 125t-21 125
t-59.5 90.5t-93 55t-122.5 18.5t-122.5 -18.5t-93 -55t-59.5 -90.5t-21 -125zM342 716h-34l-90 -104h43l64 74l64 -74h43z" />
    <glyph glyph-name="otilde" unicode="&#xf5;" horiz-adv-x="642" 
d="M321 450q42 0 69.5 -13t44 -36.5t23 -55t6.5 -67.5t-6.5 -67.5t-23 -55t-44 -36.5t-69.5 -13t-69.5 13t-44 36.5t-23 55t-6.5 67.5t6.5 67.5t23 55t44 36.5t69.5 13zM25 278q0 -71 21 -125t59.5 -90.5t93 -55t122.5 -18.5t122.5 18.5t93 55t59.5 90.5t21 125t-21 125
t-59.5 90.5t-93 55t-122.5 18.5t-122.5 -18.5t-93 -55t-59.5 -90.5t-21 -125zM340 716q0 41 -23 62.5t-58 21.5q-36 0 -59 -21.5t-23 -62.5v-92h54v64q0 14 5 25.5t23 11.5q17 0 22 -11.5t5 -25.5q0 -41 23 -62.5t58 -21.5q36 0 59 21.5t23 62.5v92h-54v-64q0 -14 -5 -25.5
t-23 -11.5q-17 0 -22 11.5t-5 25.5z" />
    <glyph glyph-name="odieresis" unicode="&#xf6;" horiz-adv-x="642" 
d="M321 450q42 0 69.5 -13t44 -36.5t23 -55t6.5 -67.5t-6.5 -67.5t-23 -55t-44 -36.5t-69.5 -13t-69.5 13t-44 36.5t-23 55t-6.5 67.5t6.5 67.5t23 55t44 36.5t69.5 13zM25 278q0 -71 21 -125t59.5 -90.5t93 -55t122.5 -18.5t122.5 18.5t93 55t59.5 90.5t21 125t-21 125
t-59.5 90.5t-93 55t-122.5 18.5t-122.5 -18.5t-93 -55t-59.5 -90.5t-21 -125zM164 612h133v133h-133v-133zM353 612h133v133h-133v-133z" />
    <glyph glyph-name="oslash" unicode="&#xf8;" horiz-adv-x="617" 
d="M92 79l-67 -79h89l29 34q44 -28 88 -36.5t78 -8.5q62 0 114 19.5t89.5 57t58.5 91t21 121.5q0 24 -3 50t-11.5 52.5t-22.5 52.5t-35 49l72 85h-89l-35 -41q-45 26 -88 33.5t-71 7.5q-63 0 -115 -19.5t-89.5 -57t-58.5 -91t-21 -121.5q0 -17 2.5 -41t9.5 -50.5t20 -54.5
t35 -53zM182 186q-9 30 -11 52.5t-2 39.5q0 36 6 67.5t22 55t43 36.5t69 13q25 0 45.5 -5.5t34.5 -13.5zM223 129l209 249q11 -31 13.5 -52.5t2.5 -47.5q0 -36 -6 -67.5t-22 -55t-42.5 -36.5t-68.5 -13q-16 0 -39.5 3.5t-46.5 19.5z" />
    <glyph glyph-name="ugrave" unicode="&#xf9;" horiz-adv-x="619" 
d="M425 117h-150q-26 0 -42 8.5t-24.5 20.5t-11.5 26t-3 26v358h-144v-387q0 -43 16.5 -74.5t43 -52.5t58.5 -31.5t62 -10.5h339v556h-144v-439zM164 722l111 -111h67l-111 111h-67z" />
    <glyph glyph-name="uacute" unicode="&#xfa;" horiz-adv-x="619" 
d="M425 117h-150q-26 0 -42 8.5t-24.5 20.5t-11.5 26t-3 26v358h-144v-387q0 -43 16.5 -74.5t43 -52.5t58.5 -31.5t62 -10.5h339v556h-144v-439zM438 722h-67l-111 -111h67z" />
    <glyph glyph-name="ucircumflex" unicode="&#xfb;" horiz-adv-x="619" 
d="M425 117h-150q-26 0 -42 8.5t-24.5 20.5t-11.5 26t-3 26v358h-144v-387q0 -43 16.5 -74.5t43 -52.5t58.5 -31.5t62 -10.5h339v556h-144v-439zM321 716h-34l-90 -104h43l64 74l64 -74h43z" />
    <glyph glyph-name="udieresis" unicode="&#xfc;" horiz-adv-x="619" 
d="M425 117h-150q-26 0 -42 8.5t-24.5 20.5t-11.5 26t-3 26v358h-144v-387q0 -43 16.5 -74.5t43 -52.5t58.5 -31.5t62 -10.5h339v556h-144v-439zM142 612h133v133h-133v-133zM331 612h133v133h-133v-133z" />
    <glyph glyph-name="yacute" unicode="&#xfd;" horiz-adv-x="619" 
d="M569 -35v591h-144v-439h-150q-26 0 -42 8.5t-24.5 20.5t-11.5 26t-3 26v358h-144v-374q0 -51 16.5 -86t44.5 -56.5t63 -30.5t73 -9h178v-39q0 -13 -5.5 -25.5t-16.5 -23t-27 -17t-38 -6.5h-274v-111h317q33 0 66.5 13.5t60.5 38.5t44 59t17 76zM420 722h-67l-111 -111h67
z" />
    <glyph glyph-name="thorn" unicode="&#xfe;" horiz-adv-x="659" 
d="M194 556v222h-144v-1000h144v222h173q126 0 196.5 70.5t70.5 207.5t-70.5 207.5t-196.5 70.5h-173zM194 117v322h151q63 0 99.5 -43t36.5 -118t-36.5 -118t-99.5 -43h-151z" />
    <glyph glyph-name="ydieresis" unicode="&#xff;" horiz-adv-x="619" 
d="M569 -35v591h-144v-439h-150q-26 0 -42 8.5t-24.5 20.5t-11.5 26t-3 26v358h-144v-374q0 -51 16.5 -86t44.5 -56.5t63 -30.5t73 -9h178v-39q0 -13 -5.5 -25.5t-16.5 -23t-27 -17t-38 -6.5h-274v-111h317q33 0 66.5 13.5t60.5 38.5t44 59t17 76zM142 612h133v133h-133
v-133zM331 612h133v133h-133v-133z" />
    <glyph glyph-name="minus" unicode="&#xe000;" horiz-adv-x="316" 
d="M19 445v-111h278v111h-278z" />
    <glyph glyph-name="partialdiff" unicode="&#xe001;" horiz-adv-x="836" 
d="M25 0h89l389 778h-89zM111 311v467h-86v-467h86zM738 233q11 6 23.5 14.5t23.5 21.5t18.5 31t7.5 43q0 36 -14 60t-34.5 38t-43.5 20t-42 6h-258v-80h225q24 0 43 -13t19 -45t-19 -44.5t-43 -12.5h-173v-77h173q24 0 43 -13t19 -45q0 -31 -19 -44t-43 -13h-225v-80h258
q19 0 42 6t43.5 20t34.5 38t14 60q0 25 -7.5 43t-18.5 30.5t-23.5 21t-23.5 14.5z" />
    <glyph glyph-name="summation" unicode="&#xe002;" horiz-adv-x="773" 
d="M25 0h89l389 778h-89zM111 311v467h-86v-467h86zM588 163h-192l192 204v-204zM282 175v-92h306v-83h98v83h62v80h-62v304h-130z" />
    <glyph glyph-name="product" unicode="&#xe003;" horiz-adv-x="1170" 
d="M359 0h89l389 778h-89zM1072 233q11 6 23.5 14.5t23.5 21.5t18.5 31t7.5 43q0 36 -14 60t-34.5 38t-43.5 20t-42 6h-258v-80h225q24 0 43 -13t19 -45t-19 -44.5t-43 -12.5h-173v-77h173q24 0 43 -13t19 -45q0 -31 -19 -44t-43 -13h-225v-80h258q19 0 42 6t43.5 20
t34.5 38t14 60q0 25 -7.5 43t-18.5 30.5t-23.5 21t-23.5 14.5zM33 778v-80h243q24 0 43 -12t19 -44t-19 -43.5t-43 -11.5h-118q-61 0 -97 -37.5t-36 -100.5v-138h423v80h-325v58q0 20 15 38.5t47 18.5h138q19 0 42 6t43 21.5t34 41.5t14 67t-14 67.5t-34 41.5t-43 21t-42 6
h-290z" />
    <glyph glyph-name="pi" unicode="&#xe004;" horiz-adv-x="1039" 
d="M291 0h89l389 778h-89zM854 163h-192l192 204v-204zM548 175v-92h306v-83h98v83h62v80h-62v304h-130zM344 545q11 6 23.5 14.5t23.5 21t18.5 30.5t7.5 43q0 36 -14 60t-34.5 38t-43.5 20t-42 6h-258v-80h225q24 0 43 -12.5t19 -44.5t-19 -45t-43 -13h-173v-77h173
q24 0 43 -12.5t19 -44.5t-19 -45t-43 -13h-225v-80h258q19 0 42 6t43.5 20t34.5 38t14 60q0 25 -7.5 43t-18.5 30.5t-23.5 21.5t-23.5 15z" />
    <glyph glyph-name="integral" unicode="&#xe005;" horiz-adv-x="858" 
d="M40 778v-778h778v778h-778zM71 747h716v-716h-716v716z" />
    <glyph glyph-name="radical" unicode="&#xe006;" horiz-adv-x="925" 
d="M10 448v-161l287 -287l618 619v159l-618 -619z" />
    <glyph glyph-name="approxequal" unicode="&#xe007;" horiz-adv-x="854" 
d="M505 465v-154h-155v154h155zM272 543h-78q-16 0 -30 6t-24.5 16.5t-16.5 25t-6 30.5q0 32 22.5 54.5t54.5 22.5q16 0 30.5 -6t25 -16.5t16.5 -24.5t6 -30v-78zM272 465v-154h-78q-32 0 -60 -12.5t-49 -33.5t-33.5 -49.5t-12.5 -60.5t12.5 -60t33.5 -49t49 -33.5t60 -12.5
t60.5 12.5t49.5 33.5t33.5 49t12.5 60v78h155v-78q0 -32 12 -60t33 -49t49.5 -33.5t60.5 -12.5t60 12.5t49 33.5t33.5 49t12.5 60t-12.5 60.5t-33.5 49.5t-49 33.5t-60 12.5h-77v154h77q32 0 60 12.5t49 33.5t33.5 49.5t12.5 60.5t-12.5 60t-33.5 49t-49 33.5t-60 12.5
t-60 -12.5t-49 -33.5t-33.5 -49t-12.5 -60v-78h-155v78q0 32 -12.5 60t-33.5 49t-49.5 33.5t-60.5 12.5t-60 -12.5t-49 -33.5t-33.5 -49t-12.5 -60t12.5 -60.5t33.5 -49.5t49 -33.5t60 -12.5h78zM272 233v-78q0 -16 -6 -30t-16.5 -24.5t-25 -16.5t-30.5 -6q-32 0 -54.5 22.5
t-22.5 54.5q0 16 6 30.5t16.5 25t24.5 16.5t30 6h78zM583 233h77q32 0 54.5 -23t22.5 -55t-22.5 -54.5t-54.5 -22.5t-54.5 22.5t-22.5 54.5v78zM583 543v78q0 32 22.5 54.5t54.5 22.5t54.5 -22.5t22.5 -54.5t-22.5 -55t-54.5 -23h-77z" />
    <glyph glyph-name="Delta" unicode="&#xe008;" horiz-adv-x="873" 
d="M25 0h89l389 778h-89zM111 311v467h-86v-467h86zM411 467v-80h243q25 0 43.5 -12t18.5 -44t-18.5 -44t-43.5 -12h-117q-61 0 -97.5 -37t-36.5 -101v-137h423v80h-325v57q0 20 15 39t47 19h138q19 0 42 6t43 21.5t34 41.5t14 67t-14 67.5t-34 41.5t-43 21t-42 6h-290z" />
    <glyph glyph-name="nonbreakingspace" unicode="&#xe009;" horiz-adv-x="360" 
 />
    <glyph glyph-name="lozenge" unicode="&#xe00a;" horiz-adv-x="798" 
d="M10 389l389 -389l389 389l-389 389zM399 65l-324 324l324 325l325 -325z" />
    </font>
</defs>
</svg>
