<?xml version="1.0" encoding="utf-8"?>
<!-- Generator: Adobe Illustrator 19.1.1, SVG Export Plug-In . SVG Version: 6.00 Build 0)  -->
<svg version="1.1" id="Layer_1" xmlns="http://www.w3.org/2000/svg" xmlns:xlink="http://www.w3.org/1999/xlink" x="0px" y="0px"
	 viewBox="-102 4.7 42 41.3" style="enable-background:new -102 4.7 42 41.3;" xml:space="preserve">
<style type="text/css">
	.st0{clip-path:url(#SVGID_2_);fill:#FFFFFF;}
	.st1{clip-path:url(#SVGID_4_);fill:#FFFFFF;}
</style>
<g>
	<g>
		<g>
			<g>
				<g>
					<defs>
						<rect id="SVGID_1_" x="-102" y="4.7" width="42" height="41.3"/>
					</defs>
					<clipPath id="SVGID_2_">
						<use xlink:href="#SVGID_1_"  style="overflow:visible;"/>
					</clipPath>
					<path class="st0" d="M-65.7,4.7h-16.5c-3,0-2.8,0.9-1.1,2.5l5.3,5.2l-8.7,8.5c-1.8,1.8-1.8,4.7,0,6.5l3.9,3.8
						c1.8,1.8,4.8,1.8,6.7,0l9-8.8l5,4.9c1.8,1.8,2.5,1.8,2.5-1.1V10.1C-60.2,4.7-60.2,4.7-65.7,4.7L-65.7,4.7z"/>
				</g>
			</g>
		</g>
	</g>
	<g>
		<g>
			<defs>
				<rect id="SVGID_3_" x="-102" y="4.7" width="42" height="41.3"/>
			</defs>
			<clipPath id="SVGID_4_">
				<use xlink:href="#SVGID_3_"  style="overflow:visible;"/>
			</clipPath>
			<path class="st1" d="M-73.1,32.8v5.4c0,1.6-1.4,2.9-3,2.9h-18.1c-1.6,0-3-1.3-3-2.9V20.4c0-1.6,1.4-2.9,3-2.9h5.5l4.8-4.7h-10.3
				c-4.4,0-7.8,3.4-7.8,7.6v17.7c0,4.3,3.4,7.6,7.8,7.6h18.1c4.4,0,7.8-3.4,7.8-7.6V28L-73.1,32.8z"/>
		</g>
	</g>
</g>
</svg>
